<ttFont>
<head>
    <!-- Most of this table will be recalculated by the compiler -->
    <tableVersion value="1.0"/>
    <fontRevision value="1.002"/>
    <checkSumAdjustment value="0x643d6ff7"/>
    <magicNumber value="0x5f0f3cf5"/>
    <flags value="00000000 00000011"/>
    <unitsPerEm value="1000"/>
    <created value="Sun Jan 10 02:32:56 2016"/>
    <modified value="Sun Jan 10 02:32:58 2016"/>
    <xMin value="-86"/>
    <yMin value="-343"/>
    <xMax value="1050"/>
    <yMax value="1225"/>
    <macStyle value="00000000 00000000"/>
    <lowestRecPPEM value="6"/>
    <fontDirectionHint value="2"/>
    <indexToLocFormat value="0"/>
    <glyphDataFormat value="0"/>
  </head>
    <TTGlyph name=".notdef" xMin="0" yMin="-200" xMax="500" yMax="800">
      <contour>
        <pt x="0" y="-200" on="1"/>
        <pt x="0" y="800" on="1"/>
        <pt x="500" y="800" on="1"/>
        <pt x="500" y="-200" on="1"/>
      </contour>
      <contour>
        <pt x="71" y="750" on="1"/>
        <pt x="250" y="360" on="1"/>
        <pt x="429" y="750" on="1"/>
      </contour>
      <contour>
        <pt x="450" y="676" on="1"/>
        <pt x="278" y="300" on="1"/>
        <pt x="450" y="-76" on="1"/>
      </contour>
      <contour>
        <pt x="50" y="-76" on="1"/>
        <pt x="222" y="300" on="1"/>
        <pt x="50" y="676" on="1"/>
      </contour>
      <contour>
        <pt x="250" y="240" on="1"/>
        <pt x="71" y="-150" on="1"/>
        <pt x="429" y="-150" on="1"/>
      </contour>
    </TTGlyph>
    <TTGlyph name="A" xMin="-9" yMin="-4" xMax="611" yMax="620">
      <contour>
        <pt x="363" y="-4" on="1"/>
        <pt x="360" y="16" on="0"/>
        <pt x="355" y="57" on="0"/>
        <pt x="352" y="77" on="1"/>
        <pt x="243" y="77" on="1"/>
        <pt x="241" y="58" on="0"/>
        <pt x="235" y="19" on="0"/>
        <pt x="233" y="0" on="1"/>
        <pt x="-9" y="0" on="1"/>
        <pt x="24" y="154" on="0"/>
        <pt x="96" y="467" on="0"/>
        <pt x="136" y="620" on="1"/>
        <pt x="465" y="620" on="1"/>
        <pt x="506" y="466" on="0"/>
        <pt x="579" y="158" on="0"/>
        <pt x="611" y="4" on="1"/>
      </contour>
      <contour>
        <pt x="290" y="428" on="1"/>
        <pt x="284" y="382" on="0"/>
        <pt x="272" y="291" on="0"/>
        <pt x="266" y="245" on="1"/>
        <pt x="329" y="245" on="1"/>
        <pt x="323" y="291" on="0"/>
        <pt x="310" y="382" on="0"/>
        <pt x="304" y="428" on="1"/>
      </contour>
    </TTGlyph>
    <TTGlyph name="A.sc" xMin="-7" yMin="-4" xMax="586" yMax="561">
      <contour>
        <pt x="344" y="-4" on="1"/>
        <pt x="342" y="13" on="0"/>
        <pt x="336" y="48" on="0"/>
        <pt x="334" y="65" on="1"/>
        <pt x="238" y="65" on="1"/>
        <pt x="235" y="49" on="0"/>
        <pt x="230" y="16" on="0"/>
        <pt x="228" y="0" on="1"/>
        <pt x="-7" y="0" on="1"/>
        <pt x="26" y="140" on="0"/>
        <pt x="95" y="421" on="0"/>
        <pt x="133" y="561" on="1"/>
        <pt x="443" y="561" on="1"/>
        <pt x="483" y="421" on="0"/>
        <pt x="553" y="143" on="0"/>
        <pt x="586" y="4" on="1"/>
      </contour>
      <contour>
        <pt x="281" y="374" on="1"/>
        <pt x="276" y="336" on="0"/>
        <pt x="265" y="259" on="0"/>
        <pt x="260" y="221" on="1"/>
        <pt x="312" y="221" on="1"/>
        <pt x="307" y="259" on="0"/>
        <pt x="296" y="336" on="0"/>
        <pt x="291" y="374" on="1"/>
      </contour>
    </TTGlyph>
    <TTGlyph name="AE" xMin="-20" yMin="0" xMax="803" yMax="620">
      <contour>
        <pt x="342" y="435" on="1"/>
        <pt x="329" y="390" on="0"/>
        <pt x="304" y="300" on="0"/>
        <pt x="292" y="255" on="1"/>
        <pt x="351" y="255" on="1"/>
        <pt x="351" y="435" on="1"/>
      </contour>
      <contour>
        <pt x="351" y="0" on="1"/>
        <pt x="351" y="87" on="1"/>
        <pt x="246" y="87" on="1"/>
        <pt x="240" y="65" on="0"/>
        <pt x="228" y="22" on="0"/>
        <pt x="222" y="0" on="1"/>
        <pt x="-20" y="0" on="1"/>
        <pt x="29" y="149" on="0"/>
        <pt x="142" y="469" on="0"/>
        <pt x="197" y="620" on="1"/>
        <pt x="794" y="620" on="1"/>
        <pt x="794" y="435" on="1"/>
        <pt x="581" y="435" on="1"/>
        <pt x="581" y="379" on="1"/>
        <pt x="743" y="379" on="1"/>
        <pt x="743" y="242" on="1"/>
        <pt x="581" y="242" on="1"/>
        <pt x="581" y="185" on="1"/>
        <pt x="803" y="185" on="1"/>
        <pt x="792" y="0" on="1"/>
      </contour>
    </TTGlyph>
    <TTGlyph name="AE.sc" xMin="-12" yMin="0" xMax="769" yMax="561">
      <contour>
        <pt x="329" y="391" on="1"/>
        <pt x="317" y="351" on="0"/>
        <pt x="294" y="271" on="0"/>
        <pt x="282" y="231" on="1"/>
        <pt x="339" y="231" on="1"/>
        <pt x="339" y="391" on="1"/>
      </contour>
      <contour>
        <pt x="339" y="0" on="1"/>
        <pt x="339" y="75" on="1"/>
        <pt x="239" y="75" on="1"/>
        <pt x="234" y="56" on="0"/>
        <pt x="223" y="19" on="0"/>
        <pt x="218" y="0" on="1"/>
        <pt x="-12" y="0" on="1"/>
        <pt x="34" y="139" on="0"/>
        <pt x="138" y="423" on="0"/>
        <pt x="191" y="561" on="1"/>
        <pt x="760" y="561" on="1"/>
        <pt x="760" y="391" on="1"/>
        <pt x="559" y="391" on="1"/>
        <pt x="559" y="344" on="1"/>
        <pt x="711" y="344" on="1"/>
        <pt x="711" y="218" on="1"/>
        <pt x="559" y="218" on="1"/>
        <pt x="559" y="170" on="1"/>
        <pt x="769" y="170" on="1"/>
        <pt x="758" y="0" on="1"/>
      </contour>
    </TTGlyph>
    <TTGlyph name="AEacute" xMin="-20" yMin="0" xMax="803" yMax="915">
      <contour>
        <pt x="328" y="738" on="1"/>
        <pt x="397" y="776" on="0"/>
        <pt x="525" y="864" on="0"/>
        <pt x="584" y="915" on="1"/>
        <pt x="706" y="749" on="1"/>
        <pt x="625" y="701" on="0"/>
        <pt x="449" y="655" on="0"/>
        <pt x="357" y="647" on="1"/>
      </contour>
      <contour>
        <pt x="342" y="435" on="1"/>
        <pt x="329" y="390" on="0"/>
        <pt x="304" y="300" on="0"/>
        <pt x="292" y="255" on="1"/>
        <pt x="351" y="255" on="1"/>
        <pt x="351" y="435" on="1"/>
      </contour>
      <contour>
        <pt x="351" y="0" on="1"/>
        <pt x="351" y="87" on="1"/>
        <pt x="246" y="87" on="1"/>
        <pt x="240" y="65" on="0"/>
        <pt x="228" y="22" on="0"/>
        <pt x="222" y="0" on="1"/>
        <pt x="-20" y="0" on="1"/>
        <pt x="29" y="149" on="0"/>
        <pt x="142" y="469" on="0"/>
        <pt x="197" y="620" on="1"/>
        <pt x="794" y="620" on="1"/>
        <pt x="794" y="435" on="1"/>
        <pt x="581" y="435" on="1"/>
        <pt x="581" y="379" on="1"/>
        <pt x="743" y="379" on="1"/>
        <pt x="743" y="242" on="1"/>
        <pt x="581" y="242" on="1"/>
        <pt x="581" y="185" on="1"/>
        <pt x="803" y="185" on="1"/>
        <pt x="792" y="0" on="1"/>
      </contour>
    </TTGlyph>
    <TTGlyph name="AEacute.sc" xMin="-12" yMin="0" xMax="769" yMax="856">
      <contour>
        <pt x="283" y="679" on="1"/>
        <pt x="352" y="717" on="0"/>
        <pt x="480" y="805" on="0"/>
        <pt x="539" y="856" on="1"/>
        <pt x="661" y="690" on="1"/>
        <pt x="580" y="642" on="0"/>
        <pt x="404" y="596" on="0"/>
        <pt x="312" y="588" on="1"/>
      </contour>
      <contour>
        <pt x="329" y="391" on="1"/>
        <pt x="317" y="351" on="0"/>
        <pt x="294" y="271" on="0"/>
        <pt x="282" y="231" on="1"/>
        <pt x="339" y="231" on="1"/>
        <pt x="339" y="391" on="1"/>
      </contour>
      <contour>
        <pt x="339" y="0" on="1"/>
        <pt x="339" y="75" on="1"/>
        <pt x="239" y="75" on="1"/>
        <pt x="234" y="56" on="0"/>
        <pt x="223" y="19" on="0"/>
        <pt x="218" y="0" on="1"/>
        <pt x="-12" y="0" on="1"/>
        <pt x="34" y="139" on="0"/>
        <pt x="138" y="423" on="0"/>
        <pt x="191" y="561" on="1"/>
        <pt x="760" y="561" on="1"/>
        <pt x="760" y="391" on="1"/>
        <pt x="559" y="391" on="1"/>
        <pt x="559" y="344" on="1"/>
        <pt x="711" y="344" on="1"/>
        <pt x="711" y="218" on="1"/>
        <pt x="559" y="218" on="1"/>
        <pt x="559" y="170" on="1"/>
        <pt x="769" y="170" on="1"/>
        <pt x="758" y="0" on="1"/>
      </contour>
    </TTGlyph>
    <TTGlyph name="Aacute" xMin="-9" yMin="-4" xMax="611" yMax="915">
      <contour>
        <pt x="142" y="738" on="1"/>
        <pt x="211" y="776" on="0"/>
        <pt x="339" y="864" on="0"/>
        <pt x="398" y="915" on="1"/>
        <pt x="520" y="749" on="1"/>
        <pt x="439" y="701" on="0"/>
        <pt x="263" y="655" on="0"/>
        <pt x="171" y="647" on="1"/>
      </contour>
      <contour>
        <pt x="363" y="-4" on="1"/>
        <pt x="360" y="16" on="0"/>
        <pt x="355" y="57" on="0"/>
        <pt x="352" y="77" on="1"/>
        <pt x="243" y="77" on="1"/>
        <pt x="241" y="58" on="0"/>
        <pt x="235" y="19" on="0"/>
        <pt x="233" y="0" on="1"/>
        <pt x="-9" y="0" on="1"/>
        <pt x="24" y="154" on="0"/>
        <pt x="96" y="467" on="0"/>
        <pt x="136" y="620" on="1"/>
        <pt x="465" y="620" on="1"/>
        <pt x="506" y="466" on="0"/>
        <pt x="579" y="158" on="0"/>
        <pt x="611" y="4" on="1"/>
      </contour>
      <contour>
        <pt x="290" y="428" on="1"/>
        <pt x="284" y="382" on="0"/>
        <pt x="272" y="291" on="0"/>
        <pt x="266" y="245" on="1"/>
        <pt x="329" y="245" on="1"/>
        <pt x="323" y="291" on="0"/>
        <pt x="310" y="382" on="0"/>
        <pt x="304" y="428" on="1"/>
      </contour>
    </TTGlyph>
    <TTGlyph name="Aacute.sc" xMin="-7" yMin="-4" xMax="586" yMax="856">
      <contour>
        <pt x="131" y="679" on="1"/>
        <pt x="200" y="717" on="0"/>
        <pt x="328" y="805" on="0"/>
        <pt x="387" y="856" on="1"/>
        <pt x="509" y="690" on="1"/>
        <pt x="428" y="642" on="0"/>
        <pt x="252" y="596" on="0"/>
        <pt x="160" y="588" on="1"/>
      </contour>
      <contour>
        <pt x="344" y="-4" on="1"/>
        <pt x="342" y="13" on="0"/>
        <pt x="336" y="48" on="0"/>
        <pt x="334" y="65" on="1"/>
        <pt x="238" y="65" on="1"/>
        <pt x="235" y="49" on="0"/>
        <pt x="230" y="16" on="0"/>
        <pt x="228" y="0" on="1"/>
        <pt x="-7" y="0" on="1"/>
        <pt x="26" y="140" on="0"/>
        <pt x="95" y="421" on="0"/>
        <pt x="133" y="561" on="1"/>
        <pt x="443" y="561" on="1"/>
        <pt x="483" y="421" on="0"/>
        <pt x="553" y="143" on="0"/>
        <pt x="586" y="4" on="1"/>
      </contour>
      <contour>
        <pt x="281" y="374" on="1"/>
        <pt x="276" y="336" on="0"/>
        <pt x="265" y="259" on="0"/>
        <pt x="260" y="221" on="1"/>
        <pt x="312" y="221" on="1"/>
        <pt x="307" y="259" on="0"/>
        <pt x="296" y="336" on="0"/>
        <pt x="291" y="374" on="1"/>
      </contour>
    </TTGlyph>
    <TTGlyph name="Abreve" xMin="-9" yMin="-4" xMax="611" yMax="888">
      <contour>
        <pt x="298" y="652" on="1"/>
        <pt x="220" y="652" on="0"/>
        <pt x="113" y="749" on="0"/>
        <pt x="81" y="822" on="1"/>
        <pt x="210" y="888" on="1"/>
        <pt x="233" y="858" on="0"/>
        <pt x="286" y="827" on="0"/>
        <pt x="312" y="827" on="1"/>
        <pt x="340" y="827" on="0"/>
        <pt x="390" y="858" on="0"/>
        <pt x="411" y="888" on="1"/>
        <pt x="521" y="841" on="1"/>
        <pt x="505" y="802" on="0"/>
        <pt x="462" y="733" on="0"/>
        <pt x="408" y="682" on="0"/>
        <pt x="339" y="652" on="0"/>
      </contour>
      <contour>
        <pt x="363" y="-4" on="1"/>
        <pt x="360" y="16" on="0"/>
        <pt x="355" y="57" on="0"/>
        <pt x="352" y="77" on="1"/>
        <pt x="243" y="77" on="1"/>
        <pt x="241" y="58" on="0"/>
        <pt x="235" y="19" on="0"/>
        <pt x="233" y="0" on="1"/>
        <pt x="-9" y="0" on="1"/>
        <pt x="24" y="154" on="0"/>
        <pt x="96" y="467" on="0"/>
        <pt x="136" y="620" on="1"/>
        <pt x="465" y="620" on="1"/>
        <pt x="506" y="466" on="0"/>
        <pt x="579" y="158" on="0"/>
        <pt x="611" y="4" on="1"/>
      </contour>
      <contour>
        <pt x="290" y="428" on="1"/>
        <pt x="284" y="382" on="0"/>
        <pt x="272" y="291" on="0"/>
        <pt x="266" y="245" on="1"/>
        <pt x="329" y="245" on="1"/>
        <pt x="323" y="291" on="0"/>
        <pt x="310" y="382" on="0"/>
        <pt x="304" y="428" on="1"/>
      </contour>
    </TTGlyph>
    <TTGlyph name="Abreve.sc" xMin="-7" yMin="-4" xMax="586" yMax="829">
      <contour>
        <pt x="287" y="593" on="1"/>
        <pt x="209" y="593" on="0"/>
        <pt x="102" y="690" on="0"/>
        <pt x="70" y="763" on="1"/>
        <pt x="199" y="829" on="1"/>
        <pt x="222" y="799" on="0"/>
        <pt x="275" y="768" on="0"/>
        <pt x="301" y="768" on="1"/>
        <pt x="329" y="768" on="0"/>
        <pt x="379" y="799" on="0"/>
        <pt x="400" y="829" on="1"/>
        <pt x="510" y="782" on="1"/>
        <pt x="494" y="743" on="0"/>
        <pt x="451" y="674" on="0"/>
        <pt x="397" y="623" on="0"/>
        <pt x="328" y="593" on="0"/>
      </contour>
      <contour>
        <pt x="344" y="-4" on="1"/>
        <pt x="342" y="13" on="0"/>
        <pt x="336" y="48" on="0"/>
        <pt x="334" y="65" on="1"/>
        <pt x="238" y="65" on="1"/>
        <pt x="235" y="49" on="0"/>
        <pt x="230" y="16" on="0"/>
        <pt x="228" y="0" on="1"/>
        <pt x="-7" y="0" on="1"/>
        <pt x="26" y="140" on="0"/>
        <pt x="95" y="421" on="0"/>
        <pt x="133" y="561" on="1"/>
        <pt x="443" y="561" on="1"/>
        <pt x="483" y="421" on="0"/>
        <pt x="553" y="143" on="0"/>
        <pt x="586" y="4" on="1"/>
      </contour>
      <contour>
        <pt x="281" y="374" on="1"/>
        <pt x="276" y="336" on="0"/>
        <pt x="265" y="259" on="0"/>
        <pt x="260" y="221" on="1"/>
        <pt x="312" y="221" on="1"/>
        <pt x="307" y="259" on="0"/>
        <pt x="296" y="336" on="0"/>
        <pt x="291" y="374" on="1"/>
      </contour>
    </TTGlyph>
    <TTGlyph name="Acircumflex" xMin="-9" yMin="-4" xMax="611" yMax="894">
      <contour>
        <pt x="404" y="645" on="1"/>
        <pt x="291" y="728" on="1"/>
        <pt x="178" y="645" on="1"/>
        <pt x="91" y="750" on="1"/>
        <pt x="276" y="894" on="1"/>
        <pt x="330" y="894" on="1"/>
        <pt x="511" y="760" on="1"/>
      </contour>
      <contour>
        <pt x="363" y="-4" on="1"/>
        <pt x="360" y="16" on="0"/>
        <pt x="355" y="57" on="0"/>
        <pt x="352" y="77" on="1"/>
        <pt x="243" y="77" on="1"/>
        <pt x="241" y="58" on="0"/>
        <pt x="235" y="19" on="0"/>
        <pt x="233" y="0" on="1"/>
        <pt x="-9" y="0" on="1"/>
        <pt x="24" y="154" on="0"/>
        <pt x="96" y="467" on="0"/>
        <pt x="136" y="620" on="1"/>
        <pt x="465" y="620" on="1"/>
        <pt x="506" y="466" on="0"/>
        <pt x="579" y="158" on="0"/>
        <pt x="611" y="4" on="1"/>
      </contour>
      <contour>
        <pt x="290" y="428" on="1"/>
        <pt x="284" y="382" on="0"/>
        <pt x="272" y="291" on="0"/>
        <pt x="266" y="245" on="1"/>
        <pt x="329" y="245" on="1"/>
        <pt x="323" y="291" on="0"/>
        <pt x="310" y="382" on="0"/>
        <pt x="304" y="428" on="1"/>
      </contour>
    </TTGlyph>
    <TTGlyph name="Acircumflex.sc" xMin="-7" yMin="-4" xMax="586" yMax="835">
      <contour>
        <pt x="393" y="586" on="1"/>
        <pt x="280" y="669" on="1"/>
        <pt x="167" y="586" on="1"/>
        <pt x="80" y="691" on="1"/>
        <pt x="265" y="835" on="1"/>
        <pt x="319" y="835" on="1"/>
        <pt x="500" y="701" on="1"/>
      </contour>
      <contour>
        <pt x="344" y="-4" on="1"/>
        <pt x="342" y="13" on="0"/>
        <pt x="336" y="48" on="0"/>
        <pt x="334" y="65" on="1"/>
        <pt x="238" y="65" on="1"/>
        <pt x="235" y="49" on="0"/>
        <pt x="230" y="16" on="0"/>
        <pt x="228" y="0" on="1"/>
        <pt x="-7" y="0" on="1"/>
        <pt x="26" y="140" on="0"/>
        <pt x="95" y="421" on="0"/>
        <pt x="133" y="561" on="1"/>
        <pt x="443" y="561" on="1"/>
        <pt x="483" y="421" on="0"/>
        <pt x="553" y="143" on="0"/>
        <pt x="586" y="4" on="1"/>
      </contour>
      <contour>
        <pt x="281" y="374" on="1"/>
        <pt x="276" y="336" on="0"/>
        <pt x="265" y="259" on="0"/>
        <pt x="260" y="221" on="1"/>
        <pt x="312" y="221" on="1"/>
        <pt x="307" y="259" on="0"/>
        <pt x="296" y="336" on="0"/>
        <pt x="291" y="374" on="1"/>
      </contour>
    </TTGlyph>
    <TTGlyph name="Adieresis" xMin="-9" yMin="-4" xMax="611" yMax="852">
      <contour>
        <pt x="532" y="667" on="1"/>
        <pt x="321" y="667" on="1"/>
        <pt x="323" y="852" on="1"/>
        <pt x="535" y="852" on="1"/>
      </contour>
      <contour>
        <pt x="279" y="667" on="1"/>
        <pt x="67" y="667" on="1"/>
        <pt x="70" y="852" on="1"/>
        <pt x="281" y="852" on="1"/>
      </contour>
      <contour>
        <pt x="363" y="-4" on="1"/>
        <pt x="360" y="16" on="0"/>
        <pt x="355" y="57" on="0"/>
        <pt x="352" y="77" on="1"/>
        <pt x="243" y="77" on="1"/>
        <pt x="241" y="58" on="0"/>
        <pt x="235" y="19" on="0"/>
        <pt x="233" y="0" on="1"/>
        <pt x="-9" y="0" on="1"/>
        <pt x="24" y="154" on="0"/>
        <pt x="96" y="467" on="0"/>
        <pt x="136" y="620" on="1"/>
        <pt x="465" y="620" on="1"/>
        <pt x="506" y="466" on="0"/>
        <pt x="579" y="158" on="0"/>
        <pt x="611" y="4" on="1"/>
      </contour>
      <contour>
        <pt x="290" y="428" on="1"/>
        <pt x="284" y="382" on="0"/>
        <pt x="272" y="291" on="0"/>
        <pt x="266" y="245" on="1"/>
        <pt x="329" y="245" on="1"/>
        <pt x="323" y="291" on="0"/>
        <pt x="310" y="382" on="0"/>
        <pt x="304" y="428" on="1"/>
      </contour>
    </TTGlyph>
    <TTGlyph name="Adieresis.sc" xMin="-7" yMin="-4" xMax="586" yMax="793">
      <contour>
        <pt x="521" y="608" on="1"/>
        <pt x="310" y="608" on="1"/>
        <pt x="312" y="793" on="1"/>
        <pt x="524" y="793" on="1"/>
      </contour>
      <contour>
        <pt x="268" y="608" on="1"/>
        <pt x="56" y="608" on="1"/>
        <pt x="59" y="793" on="1"/>
        <pt x="270" y="793" on="1"/>
      </contour>
      <contour>
        <pt x="344" y="-4" on="1"/>
        <pt x="342" y="13" on="0"/>
        <pt x="336" y="48" on="0"/>
        <pt x="334" y="65" on="1"/>
        <pt x="238" y="65" on="1"/>
        <pt x="235" y="49" on="0"/>
        <pt x="230" y="16" on="0"/>
        <pt x="228" y="0" on="1"/>
        <pt x="-7" y="0" on="1"/>
        <pt x="26" y="140" on="0"/>
        <pt x="95" y="421" on="0"/>
        <pt x="133" y="561" on="1"/>
        <pt x="443" y="561" on="1"/>
        <pt x="483" y="421" on="0"/>
        <pt x="553" y="143" on="0"/>
        <pt x="586" y="4" on="1"/>
      </contour>
      <contour>
        <pt x="281" y="374" on="1"/>
        <pt x="276" y="336" on="0"/>
        <pt x="265" y="259" on="0"/>
        <pt x="260" y="221" on="1"/>
        <pt x="312" y="221" on="1"/>
        <pt x="307" y="259" on="0"/>
        <pt x="296" y="336" on="0"/>
        <pt x="291" y="374" on="1"/>
      </contour>
    </TTGlyph>
    <TTGlyph name="Agrave" xMin="-9" yMin="-4" xMax="611" yMax="915">
      <contour>
        <pt x="463" y="739" on="1"/>
        <pt x="428" y="647" on="1"/>
        <pt x="338" y="659" on="0"/>
        <pt x="165" y="706" on="0"/>
        <pt x="87" y="750" on="1"/>
        <pt x="201" y="915" on="1"/>
        <pt x="261" y="868" on="0"/>
        <pt x="392" y="780" on="0"/>
      </contour>
      <contour>
        <pt x="363" y="-4" on="1"/>
        <pt x="360" y="16" on="0"/>
        <pt x="355" y="57" on="0"/>
        <pt x="352" y="77" on="1"/>
        <pt x="243" y="77" on="1"/>
        <pt x="241" y="58" on="0"/>
        <pt x="235" y="19" on="0"/>
        <pt x="233" y="0" on="1"/>
        <pt x="-9" y="0" on="1"/>
        <pt x="24" y="154" on="0"/>
        <pt x="96" y="467" on="0"/>
        <pt x="136" y="620" on="1"/>
        <pt x="465" y="620" on="1"/>
        <pt x="506" y="466" on="0"/>
        <pt x="579" y="158" on="0"/>
        <pt x="611" y="4" on="1"/>
      </contour>
      <contour>
        <pt x="290" y="428" on="1"/>
        <pt x="284" y="382" on="0"/>
        <pt x="272" y="291" on="0"/>
        <pt x="266" y="245" on="1"/>
        <pt x="329" y="245" on="1"/>
        <pt x="323" y="291" on="0"/>
        <pt x="310" y="382" on="0"/>
        <pt x="304" y="428" on="1"/>
      </contour>
    </TTGlyph>
    <TTGlyph name="Agrave.sc" xMin="-7" yMin="-4" xMax="586" yMax="856">
      <contour>
        <pt x="452" y="680" on="1"/>
        <pt x="417" y="588" on="1"/>
        <pt x="327" y="600" on="0"/>
        <pt x="154" y="647" on="0"/>
        <pt x="76" y="691" on="1"/>
        <pt x="190" y="856" on="1"/>
        <pt x="250" y="809" on="0"/>
        <pt x="381" y="721" on="0"/>
      </contour>
      <contour>
        <pt x="344" y="-4" on="1"/>
        <pt x="342" y="13" on="0"/>
        <pt x="336" y="48" on="0"/>
        <pt x="334" y="65" on="1"/>
        <pt x="238" y="65" on="1"/>
        <pt x="235" y="49" on="0"/>
        <pt x="230" y="16" on="0"/>
        <pt x="228" y="0" on="1"/>
        <pt x="-7" y="0" on="1"/>
        <pt x="26" y="140" on="0"/>
        <pt x="95" y="421" on="0"/>
        <pt x="133" y="561" on="1"/>
        <pt x="443" y="561" on="1"/>
        <pt x="483" y="421" on="0"/>
        <pt x="553" y="143" on="0"/>
        <pt x="586" y="4" on="1"/>
      </contour>
      <contour>
        <pt x="281" y="374" on="1"/>
        <pt x="276" y="336" on="0"/>
        <pt x="265" y="259" on="0"/>
        <pt x="260" y="221" on="1"/>
        <pt x="312" y="221" on="1"/>
        <pt x="307" y="259" on="0"/>
        <pt x="296" y="336" on="0"/>
        <pt x="291" y="374" on="1"/>
      </contour>
    </TTGlyph>
    <TTGlyph name="Amacron" xMin="-9" yMin="-4" xMax="611" yMax="852">
      <contour>
        <pt x="501" y="852" on="1"/>
        <pt x="501" y="667" on="1"/>
        <pt x="101" y="667" on="1"/>
        <pt x="101" y="852" on="1"/>
      </contour>
      <contour>
        <pt x="363" y="-4" on="1"/>
        <pt x="360" y="16" on="0"/>
        <pt x="355" y="57" on="0"/>
        <pt x="352" y="77" on="1"/>
        <pt x="243" y="77" on="1"/>
        <pt x="241" y="58" on="0"/>
        <pt x="235" y="19" on="0"/>
        <pt x="233" y="0" on="1"/>
        <pt x="-9" y="0" on="1"/>
        <pt x="24" y="154" on="0"/>
        <pt x="96" y="467" on="0"/>
        <pt x="136" y="620" on="1"/>
        <pt x="465" y="620" on="1"/>
        <pt x="506" y="466" on="0"/>
        <pt x="579" y="158" on="0"/>
        <pt x="611" y="4" on="1"/>
      </contour>
      <contour>
        <pt x="290" y="428" on="1"/>
        <pt x="284" y="382" on="0"/>
        <pt x="272" y="291" on="0"/>
        <pt x="266" y="245" on="1"/>
        <pt x="329" y="245" on="1"/>
        <pt x="323" y="291" on="0"/>
        <pt x="310" y="382" on="0"/>
        <pt x="304" y="428" on="1"/>
      </contour>
    </TTGlyph>
    <TTGlyph name="Amacron.sc" xMin="-7" yMin="-4" xMax="586" yMax="793">
      <contour>
        <pt x="490" y="793" on="1"/>
        <pt x="490" y="608" on="1"/>
        <pt x="90" y="608" on="1"/>
        <pt x="90" y="793" on="1"/>
      </contour>
      <contour>
        <pt x="344" y="-4" on="1"/>
        <pt x="342" y="13" on="0"/>
        <pt x="336" y="48" on="0"/>
        <pt x="334" y="65" on="1"/>
        <pt x="238" y="65" on="1"/>
        <pt x="235" y="49" on="0"/>
        <pt x="230" y="16" on="0"/>
        <pt x="228" y="0" on="1"/>
        <pt x="-7" y="0" on="1"/>
        <pt x="26" y="140" on="0"/>
        <pt x="95" y="421" on="0"/>
        <pt x="133" y="561" on="1"/>
        <pt x="443" y="561" on="1"/>
        <pt x="483" y="421" on="0"/>
        <pt x="553" y="143" on="0"/>
        <pt x="586" y="4" on="1"/>
      </contour>
      <contour>
        <pt x="281" y="374" on="1"/>
        <pt x="276" y="336" on="0"/>
        <pt x="265" y="259" on="0"/>
        <pt x="260" y="221" on="1"/>
        <pt x="312" y="221" on="1"/>
        <pt x="307" y="259" on="0"/>
        <pt x="296" y="336" on="0"/>
        <pt x="291" y="374" on="1"/>
      </contour>
    </TTGlyph>
    <TTGlyph name="Aogonek" xMin="-9" yMin="-256" xMax="611" yMax="620">
      <contour>
        <pt x="579" y="-256" on="1"/>
        <pt x="498" y="-252" on="0"/>
        <pt x="389" y="-222" on="0"/>
        <pt x="324" y="-182" on="0"/>
        <pt x="297" y="-134" on="0"/>
        <pt x="297" y="-110" on="1"/>
        <pt x="297" y="-81" on="0"/>
        <pt x="329" y="-26" on="0"/>
        <pt x="363" y="-1" on="1"/>
        <pt x="360" y="18" on="0"/>
        <pt x="355" y="58" on="0"/>
        <pt x="352" y="77" on="1"/>
        <pt x="243" y="77" on="1"/>
        <pt x="241" y="58" on="0"/>
        <pt x="235" y="19" on="0"/>
        <pt x="233" y="0" on="1"/>
        <pt x="-9" y="0" on="1"/>
        <pt x="24" y="154" on="0"/>
        <pt x="96" y="467" on="0"/>
        <pt x="136" y="620" on="1"/>
        <pt x="465" y="620" on="1"/>
        <pt x="506" y="466" on="0"/>
        <pt x="579" y="158" on="0"/>
        <pt x="611" y="4" on="1"/>
        <pt x="530" y="-18" on="0"/>
        <pt x="477" y="-44" on="0"/>
        <pt x="477" y="-57" on="1"/>
        <pt x="477" y="-70" on="0"/>
        <pt x="531" y="-87" on="0"/>
        <pt x="594" y="-91" on="1"/>
      </contour>
      <contour>
        <pt x="290" y="428" on="1"/>
        <pt x="284" y="382" on="0"/>
        <pt x="272" y="291" on="0"/>
        <pt x="266" y="245" on="1"/>
        <pt x="329" y="245" on="1"/>
        <pt x="323" y="291" on="0"/>
        <pt x="310" y="382" on="0"/>
        <pt x="304" y="428" on="1"/>
      </contour>
    </TTGlyph>
    <TTGlyph name="Aogonek.sc" xMin="-7" yMin="-256" xMax="586" yMax="561">
      <contour>
        <pt x="554" y="-256" on="1"/>
        <pt x="473" y="-251" on="0"/>
        <pt x="364" y="-223" on="0"/>
        <pt x="299" y="-184" on="0"/>
        <pt x="272" y="-135" on="0"/>
        <pt x="272" y="-110" on="1"/>
        <pt x="272" y="-79" on="0"/>
        <pt x="307" y="-25" on="0"/>
        <pt x="343" y="0" on="1"/>
        <pt x="341" y="16" on="0"/>
        <pt x="336" y="49" on="0"/>
        <pt x="334" y="65" on="1"/>
        <pt x="238" y="65" on="1"/>
        <pt x="235" y="49" on="0"/>
        <pt x="230" y="16" on="0"/>
        <pt x="228" y="0" on="1"/>
        <pt x="-7" y="0" on="1"/>
        <pt x="26" y="140" on="0"/>
        <pt x="95" y="421" on="0"/>
        <pt x="133" y="561" on="1"/>
        <pt x="443" y="561" on="1"/>
        <pt x="483" y="421" on="0"/>
        <pt x="553" y="143" on="0"/>
        <pt x="586" y="4" on="1"/>
        <pt x="505" y="-19" on="0"/>
        <pt x="452" y="-46" on="0"/>
        <pt x="452" y="-58" on="1"/>
        <pt x="452" y="-72" on="0"/>
        <pt x="506" y="-87" on="0"/>
        <pt x="569" y="-91" on="1"/>
      </contour>
      <contour>
        <pt x="281" y="374" on="1"/>
        <pt x="276" y="336" on="0"/>
        <pt x="265" y="259" on="0"/>
        <pt x="260" y="221" on="1"/>
        <pt x="312" y="221" on="1"/>
        <pt x="307" y="259" on="0"/>
        <pt x="296" y="336" on="0"/>
        <pt x="291" y="374" on="1"/>
      </contour>
    </TTGlyph>
    <TTGlyph name="Aring" xMin="-9" yMin="-4" xMax="611" yMax="936">
      <contour>
        <pt x="300" y="936" on="1"/>
        <pt x="372" y="936" on="0"/>
        <pt x="467" y="853" on="0"/>
        <pt x="467" y="797" on="1"/>
        <pt x="467" y="735" on="0"/>
        <pt x="375" y="652" on="0"/>
        <pt x="300" y="652" on="1"/>
        <pt x="228" y="652" on="0"/>
        <pt x="135" y="734" on="0"/>
        <pt x="135" y="791" on="1"/>
        <pt x="135" y="853" on="0"/>
        <pt x="225" y="936" on="0"/>
      </contour>
      <contour>
        <pt x="363" y="-4" on="1"/>
        <pt x="360" y="16" on="0"/>
        <pt x="355" y="57" on="0"/>
        <pt x="352" y="77" on="1"/>
        <pt x="243" y="77" on="1"/>
        <pt x="241" y="58" on="0"/>
        <pt x="235" y="19" on="0"/>
        <pt x="233" y="0" on="1"/>
        <pt x="-9" y="0" on="1"/>
        <pt x="24" y="154" on="0"/>
        <pt x="96" y="467" on="0"/>
        <pt x="136" y="620" on="1"/>
        <pt x="465" y="620" on="1"/>
        <pt x="506" y="466" on="0"/>
        <pt x="579" y="158" on="0"/>
        <pt x="611" y="4" on="1"/>
      </contour>
      <contour>
        <pt x="290" y="428" on="1"/>
        <pt x="284" y="382" on="0"/>
        <pt x="272" y="291" on="0"/>
        <pt x="266" y="245" on="1"/>
        <pt x="329" y="245" on="1"/>
        <pt x="323" y="291" on="0"/>
        <pt x="310" y="382" on="0"/>
        <pt x="304" y="428" on="1"/>
      </contour>
    </TTGlyph>
    <TTGlyph name="Aring.sc" xMin="-7" yMin="-4" xMax="586" yMax="877">
      <contour>
        <pt x="289" y="877" on="1"/>
        <pt x="361" y="877" on="0"/>
        <pt x="456" y="794" on="0"/>
        <pt x="456" y="738" on="1"/>
        <pt x="456" y="676" on="0"/>
        <pt x="364" y="593" on="0"/>
        <pt x="289" y="593" on="1"/>
        <pt x="217" y="593" on="0"/>
        <pt x="124" y="675" on="0"/>
        <pt x="124" y="732" on="1"/>
        <pt x="124" y="794" on="0"/>
        <pt x="214" y="877" on="0"/>
      </contour>
      <contour>
        <pt x="344" y="-4" on="1"/>
        <pt x="342" y="13" on="0"/>
        <pt x="336" y="48" on="0"/>
        <pt x="334" y="65" on="1"/>
        <pt x="238" y="65" on="1"/>
        <pt x="235" y="49" on="0"/>
        <pt x="230" y="16" on="0"/>
        <pt x="228" y="0" on="1"/>
        <pt x="-7" y="0" on="1"/>
        <pt x="26" y="140" on="0"/>
        <pt x="95" y="421" on="0"/>
        <pt x="133" y="561" on="1"/>
        <pt x="443" y="561" on="1"/>
        <pt x="483" y="421" on="0"/>
        <pt x="553" y="143" on="0"/>
        <pt x="586" y="4" on="1"/>
      </contour>
      <contour>
        <pt x="281" y="374" on="1"/>
        <pt x="276" y="336" on="0"/>
        <pt x="265" y="259" on="0"/>
        <pt x="260" y="221" on="1"/>
        <pt x="312" y="221" on="1"/>
        <pt x="307" y="259" on="0"/>
        <pt x="296" y="336" on="0"/>
        <pt x="291" y="374" on="1"/>
      </contour>
    </TTGlyph>
    <TTGlyph name="Aringacute" xMin="-9" yMin="-4" xMax="611" yMax="1225">
      <contour>
        <pt x="142" y="1048" on="1"/>
        <pt x="211" y="1086" on="0"/>
        <pt x="339" y="1174" on="0"/>
        <pt x="398" y="1225" on="1"/>
        <pt x="520" y="1059" on="1"/>
        <pt x="439" y="1011" on="0"/>
        <pt x="263" y="965" on="0"/>
        <pt x="171" y="957" on="1"/>
      </contour>
      <contour>
        <pt x="300" y="936" on="1"/>
        <pt x="372" y="936" on="0"/>
        <pt x="467" y="853" on="0"/>
        <pt x="467" y="797" on="1"/>
        <pt x="467" y="735" on="0"/>
        <pt x="375" y="652" on="0"/>
        <pt x="300" y="652" on="1"/>
        <pt x="228" y="652" on="0"/>
        <pt x="135" y="734" on="0"/>
        <pt x="135" y="791" on="1"/>
        <pt x="135" y="853" on="0"/>
        <pt x="225" y="936" on="0"/>
      </contour>
      <contour>
        <pt x="363" y="-4" on="1"/>
        <pt x="360" y="16" on="0"/>
        <pt x="355" y="57" on="0"/>
        <pt x="352" y="77" on="1"/>
        <pt x="243" y="77" on="1"/>
        <pt x="241" y="58" on="0"/>
        <pt x="235" y="19" on="0"/>
        <pt x="233" y="0" on="1"/>
        <pt x="-9" y="0" on="1"/>
        <pt x="24" y="154" on="0"/>
        <pt x="96" y="467" on="0"/>
        <pt x="136" y="620" on="1"/>
        <pt x="465" y="620" on="1"/>
        <pt x="506" y="466" on="0"/>
        <pt x="579" y="158" on="0"/>
        <pt x="611" y="4" on="1"/>
      </contour>
      <contour>
        <pt x="290" y="428" on="1"/>
        <pt x="284" y="382" on="0"/>
        <pt x="272" y="291" on="0"/>
        <pt x="266" y="245" on="1"/>
        <pt x="329" y="245" on="1"/>
        <pt x="323" y="291" on="0"/>
        <pt x="310" y="382" on="0"/>
        <pt x="304" y="428" on="1"/>
      </contour>
    </TTGlyph>
    <TTGlyph name="Aringacute.sc" xMin="-7" yMin="-4" xMax="586" yMax="1166">
      <contour>
        <pt x="131" y="989" on="1"/>
        <pt x="200" y="1027" on="0"/>
        <pt x="328" y="1115" on="0"/>
        <pt x="387" y="1166" on="1"/>
        <pt x="509" y="1000" on="1"/>
        <pt x="428" y="952" on="0"/>
        <pt x="252" y="906" on="0"/>
        <pt x="160" y="898" on="1"/>
      </contour>
      <contour>
        <pt x="289" y="877" on="1"/>
        <pt x="361" y="877" on="0"/>
        <pt x="456" y="794" on="0"/>
        <pt x="456" y="738" on="1"/>
        <pt x="456" y="676" on="0"/>
        <pt x="364" y="593" on="0"/>
        <pt x="289" y="593" on="1"/>
        <pt x="217" y="593" on="0"/>
        <pt x="124" y="675" on="0"/>
        <pt x="124" y="732" on="1"/>
        <pt x="124" y="794" on="0"/>
        <pt x="214" y="877" on="0"/>
      </contour>
      <contour>
        <pt x="344" y="-4" on="1"/>
        <pt x="342" y="13" on="0"/>
        <pt x="336" y="48" on="0"/>
        <pt x="334" y="65" on="1"/>
        <pt x="238" y="65" on="1"/>
        <pt x="235" y="49" on="0"/>
        <pt x="230" y="16" on="0"/>
        <pt x="228" y="0" on="1"/>
        <pt x="-7" y="0" on="1"/>
        <pt x="26" y="140" on="0"/>
        <pt x="95" y="421" on="0"/>
        <pt x="133" y="561" on="1"/>
        <pt x="443" y="561" on="1"/>
        <pt x="483" y="421" on="0"/>
        <pt x="553" y="143" on="0"/>
        <pt x="586" y="4" on="1"/>
      </contour>
      <contour>
        <pt x="281" y="374" on="1"/>
        <pt x="276" y="336" on="0"/>
        <pt x="265" y="259" on="0"/>
        <pt x="260" y="221" on="1"/>
        <pt x="312" y="221" on="1"/>
        <pt x="307" y="259" on="0"/>
        <pt x="296" y="336" on="0"/>
        <pt x="291" y="374" on="1"/>
      </contour>
    </TTGlyph>
    <TTGlyph name="Atilde" xMin="-9" yMin="-4" xMax="611" yMax="881">
      <contour>
        <pt x="393" y="656" on="1"/>
        <pt x="367" y="656" on="0"/>
        <pt x="320" y="672" on="0"/>
        <pt x="280" y="692" on="0"/>
        <pt x="245" y="708" on="0"/>
        <pt x="232" y="708" on="1"/>
        <pt x="219" y="708" on="0"/>
        <pt x="198" y="685" on="0"/>
        <pt x="184" y="657" on="1"/>
        <pt x="74" y="694" on="1"/>
        <pt x="94" y="772" on="0"/>
        <pt x="169" y="875" on="0"/>
        <pt x="230" y="875" on="1"/>
        <pt x="255" y="875" on="0"/>
        <pt x="301" y="858" on="0"/>
        <pt x="341" y="839" on="0"/>
        <pt x="375" y="822" on="0"/>
        <pt x="388" y="822" on="1"/>
        <pt x="401" y="822" on="0"/>
        <pt x="424" y="847" on="0"/>
        <pt x="442" y="881" on="1"/>
        <pt x="552" y="845" on="1"/>
        <pt x="530" y="763" on="0"/>
        <pt x="454" y="656" on="0"/>
      </contour>
      <contour>
        <pt x="363" y="-4" on="1"/>
        <pt x="360" y="16" on="0"/>
        <pt x="355" y="57" on="0"/>
        <pt x="352" y="77" on="1"/>
        <pt x="243" y="77" on="1"/>
        <pt x="241" y="58" on="0"/>
        <pt x="235" y="19" on="0"/>
        <pt x="233" y="0" on="1"/>
        <pt x="-9" y="0" on="1"/>
        <pt x="24" y="154" on="0"/>
        <pt x="96" y="467" on="0"/>
        <pt x="136" y="620" on="1"/>
        <pt x="465" y="620" on="1"/>
        <pt x="506" y="466" on="0"/>
        <pt x="579" y="158" on="0"/>
        <pt x="611" y="4" on="1"/>
      </contour>
      <contour>
        <pt x="290" y="428" on="1"/>
        <pt x="284" y="382" on="0"/>
        <pt x="272" y="291" on="0"/>
        <pt x="266" y="245" on="1"/>
        <pt x="329" y="245" on="1"/>
        <pt x="323" y="291" on="0"/>
        <pt x="310" y="382" on="0"/>
        <pt x="304" y="428" on="1"/>
      </contour>
    </TTGlyph>
    <TTGlyph name="Atilde.sc" xMin="-7" yMin="-4" xMax="586" yMax="822">
      <contour>
        <pt x="382" y="597" on="1"/>
        <pt x="356" y="597" on="0"/>
        <pt x="309" y="613" on="0"/>
        <pt x="269" y="633" on="0"/>
        <pt x="234" y="649" on="0"/>
        <pt x="221" y="649" on="1"/>
        <pt x="208" y="649" on="0"/>
        <pt x="187" y="626" on="0"/>
        <pt x="173" y="598" on="1"/>
        <pt x="63" y="635" on="1"/>
        <pt x="83" y="713" on="0"/>
        <pt x="158" y="816" on="0"/>
        <pt x="219" y="816" on="1"/>
        <pt x="244" y="816" on="0"/>
        <pt x="290" y="799" on="0"/>
        <pt x="330" y="780" on="0"/>
        <pt x="364" y="763" on="0"/>
        <pt x="377" y="763" on="1"/>
        <pt x="390" y="763" on="0"/>
        <pt x="413" y="788" on="0"/>
        <pt x="431" y="822" on="1"/>
        <pt x="541" y="786" on="1"/>
        <pt x="519" y="704" on="0"/>
        <pt x="443" y="597" on="0"/>
      </contour>
      <contour>
        <pt x="344" y="-4" on="1"/>
        <pt x="342" y="13" on="0"/>
        <pt x="336" y="48" on="0"/>
        <pt x="334" y="65" on="1"/>
        <pt x="238" y="65" on="1"/>
        <pt x="235" y="49" on="0"/>
        <pt x="230" y="16" on="0"/>
        <pt x="228" y="0" on="1"/>
        <pt x="-7" y="0" on="1"/>
        <pt x="26" y="140" on="0"/>
        <pt x="95" y="421" on="0"/>
        <pt x="133" y="561" on="1"/>
        <pt x="443" y="561" on="1"/>
        <pt x="483" y="421" on="0"/>
        <pt x="553" y="143" on="0"/>
        <pt x="586" y="4" on="1"/>
      </contour>
      <contour>
        <pt x="281" y="374" on="1"/>
        <pt x="276" y="336" on="0"/>
        <pt x="265" y="259" on="0"/>
        <pt x="260" y="221" on="1"/>
        <pt x="312" y="221" on="1"/>
        <pt x="307" y="259" on="0"/>
        <pt x="296" y="336" on="0"/>
        <pt x="291" y="374" on="1"/>
      </contour>
    </TTGlyph>
    <TTGlyph name="B" xMin="44" yMin="-8" xMax="597" yMax="628">
      <contour>
        <pt x="219" y="-8" on="1"/>
        <pt x="179" y="-8" on="0"/>
        <pt x="91" y="-4" on="0"/>
        <pt x="44" y="0" on="1"/>
        <pt x="44" y="620" on="1"/>
        <pt x="98" y="624" on="0"/>
        <pt x="196" y="628" on="0"/>
        <pt x="239" y="628" on="1"/>
        <pt x="412" y="628" on="0"/>
        <pt x="582" y="553" on="0"/>
        <pt x="582" y="463" on="1"/>
        <pt x="582" y="417" on="0"/>
        <pt x="532" y="345" on="0"/>
        <pt x="488" y="320" on="1"/>
        <pt x="542" y="304" on="0"/>
        <pt x="597" y="243" on="0"/>
        <pt x="597" y="187" on="1"/>
        <pt x="597" y="85" on="0"/>
        <pt x="402" y="-8" on="0"/>
      </contour>
      <contour>
        <pt x="278" y="367" on="1"/>
        <pt x="319" y="367" on="0"/>
        <pt x="356" y="389" on="0"/>
        <pt x="356" y="411" on="1"/>
        <pt x="356" y="432" on="0"/>
        <pt x="321" y="452" on="0"/>
        <pt x="291" y="452" on="1"/>
        <pt x="278" y="452" on="1"/>
      </contour>
      <contour>
        <pt x="300" y="166" on="1"/>
        <pt x="333" y="166" on="0"/>
        <pt x="364" y="190" on="0"/>
        <pt x="364" y="210" on="1"/>
        <pt x="364" y="232" on="0"/>
        <pt x="333" y="249" on="0"/>
        <pt x="304" y="249" on="1"/>
        <pt x="298" y="249" on="0"/>
        <pt x="285" y="249" on="0"/>
        <pt x="278" y="248" on="1"/>
        <pt x="278" y="167" on="1"/>
        <pt x="284" y="166" on="0"/>
        <pt x="295" y="166" on="0"/>
      </contour>
    </TTGlyph>
    <TTGlyph name="B.sc" xMin="41" yMin="-9" xMax="573" yMax="570">
      <contour>
        <pt x="216" y="-9" on="1"/>
        <pt x="176" y="-9" on="0"/>
        <pt x="88" y="-4" on="0"/>
        <pt x="41" y="0" on="1"/>
        <pt x="41" y="561" on="1"/>
        <pt x="96" y="565" on="0"/>
        <pt x="197" y="570" on="0"/>
        <pt x="240" y="570" on="1"/>
        <pt x="398" y="570" on="0"/>
        <pt x="559" y="500" on="0"/>
        <pt x="559" y="420" on="1"/>
        <pt x="559" y="378" on="0"/>
        <pt x="513" y="311" on="0"/>
        <pt x="471" y="289" on="1"/>
        <pt x="521" y="273" on="0"/>
        <pt x="573" y="218" on="0"/>
        <pt x="573" y="167" on="1"/>
        <pt x="573" y="76" on="0"/>
        <pt x="386" y="-9" on="0"/>
      </contour>
      <contour>
        <pt x="270" y="399" on="1"/>
        <pt x="270" y="325" on="1"/>
        <pt x="306" y="325" on="0"/>
        <pt x="339" y="344" on="0"/>
        <pt x="339" y="363" on="1"/>
        <pt x="339" y="382" on="0"/>
        <pt x="307" y="399" on="0"/>
        <pt x="279" y="399" on="1"/>
      </contour>
      <contour>
        <pt x="285" y="160" on="1"/>
        <pt x="316" y="160" on="0"/>
        <pt x="346" y="182" on="0"/>
        <pt x="346" y="199" on="1"/>
        <pt x="346" y="218" on="0"/>
        <pt x="318" y="233" on="0"/>
        <pt x="291" y="233" on="1"/>
        <pt x="287" y="233" on="0"/>
        <pt x="276" y="233" on="0"/>
        <pt x="270" y="232" on="1"/>
        <pt x="270" y="161" on="1"/>
        <pt x="274" y="161" on="0"/>
        <pt x="282" y="160" on="0"/>
      </contour>
    </TTGlyph>
    <TTGlyph name="C" xMin="19" yMin="-6" xMax="505" yMax="630">
      <contour>
        <pt x="505" y="192" on="1"/>
        <pt x="493" y="-3" on="1"/>
        <pt x="470" y="-4" on="0"/>
        <pt x="426" y="-6" on="0"/>
        <pt x="406" y="-6" on="1"/>
        <pt x="295" y="-6" on="0"/>
        <pt x="146" y="42" on="0"/>
        <pt x="57" y="122" on="0"/>
        <pt x="19" y="232" on="0"/>
        <pt x="19" y="293" on="1"/>
        <pt x="19" y="361" on="0"/>
        <pt x="65" y="483" on="0"/>
        <pt x="172" y="575" on="0"/>
        <pt x="350" y="630" on="0"/>
        <pt x="481" y="630" on="1"/>
        <pt x="491" y="630" on="1"/>
        <pt x="499" y="422" on="1"/>
        <pt x="481" y="423" on="0"/>
        <pt x="448" y="424" on="0"/>
        <pt x="434" y="424" on="1"/>
        <pt x="383" y="424" on="0"/>
        <pt x="319" y="413" on="0"/>
        <pt x="285" y="389" on="0"/>
        <pt x="273" y="349" on="0"/>
        <pt x="273" y="321" on="1"/>
        <pt x="273" y="286" on="0"/>
        <pt x="294" y="237" on="0"/>
        <pt x="347" y="206" on="0"/>
        <pt x="437" y="192" on="0"/>
      </contour>
    </TTGlyph>
    <TTGlyph name="C.sc" xMin="18" yMin="-8" xMax="483" yMax="571">
      <contour>
        <pt x="483" y="177" on="1"/>
        <pt x="472" y="-2" on="1"/>
        <pt x="443" y="-5" on="0"/>
        <pt x="390" y="-8" on="0"/>
        <pt x="365" y="-8" on="1"/>
        <pt x="263" y="-8" on="0"/>
        <pt x="128" y="36" on="0"/>
        <pt x="50" y="111" on="0"/>
        <pt x="18" y="211" on="0"/>
        <pt x="18" y="265" on="1"/>
        <pt x="18" y="327" on="0"/>
        <pt x="62" y="439" on="0"/>
        <pt x="164" y="522" on="0"/>
        <pt x="334" y="571" on="0"/>
        <pt x="459" y="571" on="1"/>
        <pt x="470" y="571" on="1"/>
        <pt x="478" y="379" on="1"/>
        <pt x="460" y="380" on="0"/>
        <pt x="427" y="380" on="0"/>
        <pt x="413" y="380" on="1"/>
        <pt x="367" y="380" on="0"/>
        <pt x="310" y="371" on="0"/>
        <pt x="279" y="351" on="0"/>
        <pt x="269" y="316" on="0"/>
        <pt x="269" y="291" on="1"/>
        <pt x="269" y="260" on="0"/>
        <pt x="288" y="216" on="0"/>
        <pt x="335" y="190" on="0"/>
        <pt x="419" y="177" on="0"/>
      </contour>
    </TTGlyph>
    <TTGlyph name="Cacute" xMin="19" yMin="-6" xMax="529" yMax="905">
      <contour>
        <pt x="151" y="728" on="1"/>
        <pt x="220" y="766" on="0"/>
        <pt x="348" y="854" on="0"/>
        <pt x="407" y="905" on="1"/>
        <pt x="529" y="739" on="1"/>
        <pt x="448" y="691" on="0"/>
        <pt x="272" y="645" on="0"/>
        <pt x="180" y="637" on="1"/>
      </contour>
      <contour>
        <pt x="505" y="192" on="1"/>
        <pt x="493" y="-3" on="1"/>
        <pt x="470" y="-4" on="0"/>
        <pt x="426" y="-6" on="0"/>
        <pt x="406" y="-6" on="1"/>
        <pt x="295" y="-6" on="0"/>
        <pt x="146" y="42" on="0"/>
        <pt x="57" y="122" on="0"/>
        <pt x="19" y="232" on="0"/>
        <pt x="19" y="293" on="1"/>
        <pt x="19" y="361" on="0"/>
        <pt x="65" y="483" on="0"/>
        <pt x="172" y="575" on="0"/>
        <pt x="350" y="630" on="0"/>
        <pt x="481" y="630" on="1"/>
        <pt x="491" y="630" on="1"/>
        <pt x="499" y="422" on="1"/>
        <pt x="481" y="423" on="0"/>
        <pt x="448" y="424" on="0"/>
        <pt x="434" y="424" on="1"/>
        <pt x="383" y="424" on="0"/>
        <pt x="319" y="413" on="0"/>
        <pt x="285" y="389" on="0"/>
        <pt x="273" y="349" on="0"/>
        <pt x="273" y="321" on="1"/>
        <pt x="273" y="286" on="0"/>
        <pt x="294" y="237" on="0"/>
        <pt x="347" y="206" on="0"/>
        <pt x="437" y="192" on="0"/>
      </contour>
    </TTGlyph>
    <TTGlyph name="Cacute.sc" xMin="18" yMin="-8" xMax="499" yMax="849">
      <contour>
        <pt x="121" y="672" on="1"/>
        <pt x="190" y="710" on="0"/>
        <pt x="318" y="798" on="0"/>
        <pt x="377" y="849" on="1"/>
        <pt x="499" y="683" on="1"/>
        <pt x="418" y="635" on="0"/>
        <pt x="242" y="589" on="0"/>
        <pt x="150" y="581" on="1"/>
      </contour>
      <contour>
        <pt x="483" y="177" on="1"/>
        <pt x="472" y="-2" on="1"/>
        <pt x="443" y="-5" on="0"/>
        <pt x="390" y="-8" on="0"/>
        <pt x="365" y="-8" on="1"/>
        <pt x="263" y="-8" on="0"/>
        <pt x="128" y="36" on="0"/>
        <pt x="50" y="111" on="0"/>
        <pt x="18" y="211" on="0"/>
        <pt x="18" y="265" on="1"/>
        <pt x="18" y="327" on="0"/>
        <pt x="62" y="439" on="0"/>
        <pt x="164" y="522" on="0"/>
        <pt x="334" y="571" on="0"/>
        <pt x="459" y="571" on="1"/>
        <pt x="470" y="571" on="1"/>
        <pt x="478" y="379" on="1"/>
        <pt x="460" y="380" on="0"/>
        <pt x="427" y="380" on="0"/>
        <pt x="413" y="380" on="1"/>
        <pt x="367" y="380" on="0"/>
        <pt x="310" y="371" on="0"/>
        <pt x="279" y="351" on="0"/>
        <pt x="269" y="316" on="0"/>
        <pt x="269" y="291" on="1"/>
        <pt x="269" y="260" on="0"/>
        <pt x="288" y="216" on="0"/>
        <pt x="335" y="190" on="0"/>
        <pt x="419" y="177" on="0"/>
      </contour>
    </TTGlyph>
    <TTGlyph name="Ccaron" xMin="19" yMin="-6" xMax="520" yMax="897">
      <contour>
        <pt x="335" y="648" on="1"/>
        <pt x="281" y="648" on="1"/>
        <pt x="100" y="782" on="1"/>
        <pt x="207" y="897" on="1"/>
        <pt x="320" y="814" on="1"/>
        <pt x="433" y="897" on="1"/>
        <pt x="520" y="792" on="1"/>
      </contour>
      <contour>
        <pt x="505" y="192" on="1"/>
        <pt x="493" y="-3" on="1"/>
        <pt x="470" y="-4" on="0"/>
        <pt x="426" y="-6" on="0"/>
        <pt x="406" y="-6" on="1"/>
        <pt x="295" y="-6" on="0"/>
        <pt x="146" y="42" on="0"/>
        <pt x="57" y="122" on="0"/>
        <pt x="19" y="232" on="0"/>
        <pt x="19" y="293" on="1"/>
        <pt x="19" y="361" on="0"/>
        <pt x="65" y="483" on="0"/>
        <pt x="172" y="575" on="0"/>
        <pt x="350" y="630" on="0"/>
        <pt x="481" y="630" on="1"/>
        <pt x="491" y="630" on="1"/>
        <pt x="499" y="422" on="1"/>
        <pt x="481" y="423" on="0"/>
        <pt x="448" y="424" on="0"/>
        <pt x="434" y="424" on="1"/>
        <pt x="383" y="424" on="0"/>
        <pt x="319" y="413" on="0"/>
        <pt x="285" y="389" on="0"/>
        <pt x="273" y="349" on="0"/>
        <pt x="273" y="321" on="1"/>
        <pt x="273" y="286" on="0"/>
        <pt x="294" y="237" on="0"/>
        <pt x="347" y="206" on="0"/>
        <pt x="437" y="192" on="0"/>
      </contour>
    </TTGlyph>
    <TTGlyph name="Ccaron.sc" xMin="18" yMin="-8" xMax="490" yMax="841">
      <contour>
        <pt x="305" y="592" on="1"/>
        <pt x="251" y="592" on="1"/>
        <pt x="70" y="726" on="1"/>
        <pt x="177" y="841" on="1"/>
        <pt x="290" y="758" on="1"/>
        <pt x="403" y="841" on="1"/>
        <pt x="490" y="736" on="1"/>
      </contour>
      <contour>
        <pt x="483" y="177" on="1"/>
        <pt x="472" y="-2" on="1"/>
        <pt x="443" y="-5" on="0"/>
        <pt x="390" y="-8" on="0"/>
        <pt x="365" y="-8" on="1"/>
        <pt x="263" y="-8" on="0"/>
        <pt x="128" y="36" on="0"/>
        <pt x="50" y="111" on="0"/>
        <pt x="18" y="211" on="0"/>
        <pt x="18" y="265" on="1"/>
        <pt x="18" y="327" on="0"/>
        <pt x="62" y="439" on="0"/>
        <pt x="164" y="522" on="0"/>
        <pt x="334" y="571" on="0"/>
        <pt x="459" y="571" on="1"/>
        <pt x="470" y="571" on="1"/>
        <pt x="478" y="379" on="1"/>
        <pt x="460" y="380" on="0"/>
        <pt x="427" y="380" on="0"/>
        <pt x="413" y="380" on="1"/>
        <pt x="367" y="380" on="0"/>
        <pt x="310" y="371" on="0"/>
        <pt x="279" y="351" on="0"/>
        <pt x="269" y="316" on="0"/>
        <pt x="269" y="291" on="1"/>
        <pt x="269" y="260" on="0"/>
        <pt x="288" y="216" on="0"/>
        <pt x="335" y="190" on="0"/>
        <pt x="419" y="177" on="0"/>
      </contour>
    </TTGlyph>
    <TTGlyph name="Ccedilla" xMin="19" yMin="-294" xMax="505" yMax="630">
      <contour>
        <pt x="505" y="192" on="1"/>
        <pt x="493" y="-3" on="1"/>
        <pt x="470" y="-4" on="0"/>
        <pt x="426" y="-6" on="0"/>
        <pt x="406" y="-6" on="1"/>
        <pt x="295" y="-6" on="0"/>
        <pt x="146" y="42" on="0"/>
        <pt x="57" y="122" on="0"/>
        <pt x="19" y="232" on="0"/>
        <pt x="19" y="293" on="1"/>
        <pt x="19" y="361" on="0"/>
        <pt x="65" y="483" on="0"/>
        <pt x="172" y="575" on="0"/>
        <pt x="350" y="630" on="0"/>
        <pt x="481" y="630" on="1"/>
        <pt x="491" y="630" on="1"/>
        <pt x="499" y="422" on="1"/>
        <pt x="481" y="423" on="0"/>
        <pt x="448" y="424" on="0"/>
        <pt x="434" y="424" on="1"/>
        <pt x="383" y="424" on="0"/>
        <pt x="319" y="413" on="0"/>
        <pt x="285" y="389" on="0"/>
        <pt x="273" y="349" on="0"/>
        <pt x="273" y="321" on="1"/>
        <pt x="273" y="286" on="0"/>
        <pt x="294" y="237" on="0"/>
        <pt x="347" y="206" on="0"/>
        <pt x="437" y="192" on="0"/>
      </contour>
      <contour>
        <pt x="197" y="-102" on="1"/>
        <pt x="224" y="-16" on="1"/>
        <pt x="335" y="-36" on="0"/>
        <pt x="435" y="-117" on="0"/>
        <pt x="435" y="-167" on="1"/>
        <pt x="435" y="-220" on="0"/>
        <pt x="321" y="-294" on="0"/>
        <pt x="212" y="-294" on="1"/>
        <pt x="205" y="-294" on="0"/>
        <pt x="189" y="-293" on="0"/>
        <pt x="182" y="-293" on="1"/>
        <pt x="178" y="-155" on="1"/>
        <pt x="194" y="-156" on="0"/>
        <pt x="220" y="-157" on="0"/>
        <pt x="230" y="-157" on="1"/>
        <pt x="264" y="-157" on="0"/>
        <pt x="290" y="-147" on="0"/>
        <pt x="290" y="-137" on="1"/>
        <pt x="290" y="-128" on="0"/>
        <pt x="249" y="-111" on="0"/>
      </contour>
    </TTGlyph>
    <TTGlyph name="Ccedilla.sc" xMin="18" yMin="-296" xMax="483" yMax="571">
      <contour>
        <pt x="483" y="177" on="1"/>
        <pt x="472" y="-2" on="1"/>
        <pt x="443" y="-5" on="0"/>
        <pt x="390" y="-8" on="0"/>
        <pt x="365" y="-8" on="1"/>
        <pt x="263" y="-8" on="0"/>
        <pt x="128" y="36" on="0"/>
        <pt x="50" y="111" on="0"/>
        <pt x="18" y="211" on="0"/>
        <pt x="18" y="265" on="1"/>
        <pt x="18" y="327" on="0"/>
        <pt x="62" y="439" on="0"/>
        <pt x="164" y="522" on="0"/>
        <pt x="334" y="571" on="0"/>
        <pt x="459" y="571" on="1"/>
        <pt x="470" y="571" on="1"/>
        <pt x="478" y="379" on="1"/>
        <pt x="460" y="380" on="0"/>
        <pt x="427" y="380" on="0"/>
        <pt x="413" y="380" on="1"/>
        <pt x="367" y="380" on="0"/>
        <pt x="310" y="371" on="0"/>
        <pt x="279" y="351" on="0"/>
        <pt x="269" y="316" on="0"/>
        <pt x="269" y="291" on="1"/>
        <pt x="269" y="260" on="0"/>
        <pt x="288" y="216" on="0"/>
        <pt x="335" y="190" on="0"/>
        <pt x="419" y="177" on="0"/>
      </contour>
      <contour>
        <pt x="162" y="-104" on="1"/>
        <pt x="189" y="-18" on="1"/>
        <pt x="300" y="-38" on="0"/>
        <pt x="400" y="-119" on="0"/>
        <pt x="400" y="-169" on="1"/>
        <pt x="400" y="-222" on="0"/>
        <pt x="286" y="-296" on="0"/>
        <pt x="177" y="-296" on="1"/>
        <pt x="170" y="-296" on="0"/>
        <pt x="154" y="-295" on="0"/>
        <pt x="147" y="-295" on="1"/>
        <pt x="143" y="-157" on="1"/>
        <pt x="159" y="-158" on="0"/>
        <pt x="185" y="-159" on="0"/>
        <pt x="195" y="-159" on="1"/>
        <pt x="229" y="-159" on="0"/>
        <pt x="255" y="-149" on="0"/>
        <pt x="255" y="-139" on="1"/>
        <pt x="255" y="-130" on="0"/>
        <pt x="214" y="-113" on="0"/>
      </contour>
    </TTGlyph>
    <TTGlyph name="Cdotaccent" xMin="19" yMin="-6" xMax="505" yMax="852">
      <contour>
        <pt x="426" y="667" on="1"/>
        <pt x="186" y="667" on="1"/>
        <pt x="194" y="852" on="1"/>
        <pt x="434" y="852" on="1"/>
      </contour>
      <contour>
        <pt x="505" y="192" on="1"/>
        <pt x="493" y="-3" on="1"/>
        <pt x="470" y="-4" on="0"/>
        <pt x="426" y="-6" on="0"/>
        <pt x="406" y="-6" on="1"/>
        <pt x="295" y="-6" on="0"/>
        <pt x="146" y="42" on="0"/>
        <pt x="57" y="122" on="0"/>
        <pt x="19" y="232" on="0"/>
        <pt x="19" y="293" on="1"/>
        <pt x="19" y="361" on="0"/>
        <pt x="65" y="483" on="0"/>
        <pt x="172" y="575" on="0"/>
        <pt x="350" y="630" on="0"/>
        <pt x="481" y="630" on="1"/>
        <pt x="491" y="630" on="1"/>
        <pt x="499" y="422" on="1"/>
        <pt x="481" y="423" on="0"/>
        <pt x="448" y="424" on="0"/>
        <pt x="434" y="424" on="1"/>
        <pt x="383" y="424" on="0"/>
        <pt x="319" y="413" on="0"/>
        <pt x="285" y="389" on="0"/>
        <pt x="273" y="349" on="0"/>
        <pt x="273" y="321" on="1"/>
        <pt x="273" y="286" on="0"/>
        <pt x="294" y="237" on="0"/>
        <pt x="347" y="206" on="0"/>
        <pt x="437" y="192" on="0"/>
      </contour>
    </TTGlyph>
    <TTGlyph name="Cdotaccent.sc" xMin="18" yMin="-8" xMax="483" yMax="796">
      <contour>
        <pt x="396" y="611" on="1"/>
        <pt x="156" y="611" on="1"/>
        <pt x="164" y="796" on="1"/>
        <pt x="404" y="796" on="1"/>
      </contour>
      <contour>
        <pt x="483" y="177" on="1"/>
        <pt x="472" y="-2" on="1"/>
        <pt x="443" y="-5" on="0"/>
        <pt x="390" y="-8" on="0"/>
        <pt x="365" y="-8" on="1"/>
        <pt x="263" y="-8" on="0"/>
        <pt x="128" y="36" on="0"/>
        <pt x="50" y="111" on="0"/>
        <pt x="18" y="211" on="0"/>
        <pt x="18" y="265" on="1"/>
        <pt x="18" y="327" on="0"/>
        <pt x="62" y="439" on="0"/>
        <pt x="164" y="522" on="0"/>
        <pt x="334" y="571" on="0"/>
        <pt x="459" y="571" on="1"/>
        <pt x="470" y="571" on="1"/>
        <pt x="478" y="379" on="1"/>
        <pt x="460" y="380" on="0"/>
        <pt x="427" y="380" on="0"/>
        <pt x="413" y="380" on="1"/>
        <pt x="367" y="380" on="0"/>
        <pt x="310" y="371" on="0"/>
        <pt x="279" y="351" on="0"/>
        <pt x="269" y="316" on="0"/>
        <pt x="269" y="291" on="1"/>
        <pt x="269" y="260" on="0"/>
        <pt x="288" y="216" on="0"/>
        <pt x="335" y="190" on="0"/>
        <pt x="419" y="177" on="0"/>
      </contour>
    </TTGlyph>
    <TTGlyph name="D" xMin="44" yMin="-9" xMax="613" yMax="627">
      <contour>
        <pt x="613" y="326" on="1"/>
        <pt x="613" y="249" on="0"/>
        <pt x="561" y="125" on="0"/>
        <pt x="456" y="38" on="0"/>
        <pt x="294" y="-9" on="0"/>
        <pt x="184" y="-9" on="1"/>
        <pt x="152" y="-9" on="0"/>
        <pt x="81" y="-4" on="0"/>
        <pt x="44" y="0" on="1"/>
        <pt x="44" y="620" on="1"/>
        <pt x="87" y="624" on="0"/>
        <pt x="165" y="627" on="0"/>
        <pt x="200" y="627" on="1"/>
        <pt x="421" y="627" on="0"/>
        <pt x="613" y="480" on="0"/>
      </contour>
      <contour>
        <pt x="372" y="309" on="1"/>
        <pt x="372" y="377" on="0"/>
        <pt x="324" y="436" on="0"/>
        <pt x="287" y="436" on="1"/>
        <pt x="281" y="436" on="1"/>
        <pt x="281" y="185" on="1"/>
        <pt x="285" y="184" on="0"/>
        <pt x="293" y="184" on="0"/>
        <pt x="297" y="184" on="1"/>
        <pt x="332" y="184" on="0"/>
        <pt x="372" y="238" on="0"/>
      </contour>
    </TTGlyph>
    <TTGlyph name="D.sc" xMin="41" yMin="-9" xMax="586" yMax="569">
      <contour>
        <pt x="586" y="295" on="1"/>
        <pt x="586" y="226" on="0"/>
        <pt x="537" y="113" on="0"/>
        <pt x="437" y="34" on="0"/>
        <pt x="285" y="-9" on="0"/>
        <pt x="183" y="-9" on="1"/>
        <pt x="150" y="-9" on="0"/>
        <pt x="79" y="-4" on="0"/>
        <pt x="41" y="0" on="1"/>
        <pt x="41" y="561" on="1"/>
        <pt x="85" y="565" on="0"/>
        <pt x="165" y="569" on="0"/>
        <pt x="202" y="569" on="1"/>
        <pt x="405" y="569" on="0"/>
        <pt x="586" y="433" on="0"/>
      </contour>
      <contour>
        <pt x="351" y="280" on="1"/>
        <pt x="351" y="340" on="0"/>
        <pt x="308" y="393" on="0"/>
        <pt x="277" y="393" on="1"/>
        <pt x="273" y="393" on="1"/>
        <pt x="273" y="170" on="1"/>
        <pt x="277" y="169" on="0"/>
        <pt x="284" y="169" on="0"/>
        <pt x="288" y="169" on="1"/>
        <pt x="317" y="169" on="0"/>
        <pt x="351" y="217" on="0"/>
      </contour>
    </TTGlyph>
    <TTGlyph name="Dcaron" xMin="44" yMin="-9" xMax="613" yMax="904">
      <contour>
        <pt x="325" y="655" on="1"/>
        <pt x="271" y="655" on="1"/>
        <pt x="90" y="789" on="1"/>
        <pt x="197" y="904" on="1"/>
        <pt x="310" y="821" on="1"/>
        <pt x="423" y="904" on="1"/>
        <pt x="510" y="799" on="1"/>
      </contour>
      <contour>
        <pt x="613" y="326" on="1"/>
        <pt x="613" y="249" on="0"/>
        <pt x="561" y="125" on="0"/>
        <pt x="456" y="38" on="0"/>
        <pt x="294" y="-9" on="0"/>
        <pt x="184" y="-9" on="1"/>
        <pt x="152" y="-9" on="0"/>
        <pt x="81" y="-4" on="0"/>
        <pt x="44" y="0" on="1"/>
        <pt x="44" y="620" on="1"/>
        <pt x="87" y="624" on="0"/>
        <pt x="165" y="627" on="0"/>
        <pt x="200" y="627" on="1"/>
        <pt x="421" y="627" on="0"/>
        <pt x="613" y="480" on="0"/>
      </contour>
      <contour>
        <pt x="372" y="309" on="1"/>
        <pt x="372" y="377" on="0"/>
        <pt x="324" y="436" on="0"/>
        <pt x="287" y="436" on="1"/>
        <pt x="281" y="436" on="1"/>
        <pt x="281" y="185" on="1"/>
        <pt x="285" y="184" on="0"/>
        <pt x="293" y="184" on="0"/>
        <pt x="297" y="184" on="1"/>
        <pt x="332" y="184" on="0"/>
        <pt x="372" y="238" on="0"/>
      </contour>
    </TTGlyph>
    <TTGlyph name="Dcaron.sc" xMin="41" yMin="-9" xMax="586" yMax="846">
      <contour>
        <pt x="310" y="597" on="1"/>
        <pt x="256" y="597" on="1"/>
        <pt x="75" y="731" on="1"/>
        <pt x="182" y="846" on="1"/>
        <pt x="295" y="763" on="1"/>
        <pt x="408" y="846" on="1"/>
        <pt x="495" y="741" on="1"/>
      </contour>
      <contour>
        <pt x="586" y="295" on="1"/>
        <pt x="586" y="226" on="0"/>
        <pt x="537" y="113" on="0"/>
        <pt x="437" y="34" on="0"/>
        <pt x="285" y="-9" on="0"/>
        <pt x="183" y="-9" on="1"/>
        <pt x="150" y="-9" on="0"/>
        <pt x="79" y="-4" on="0"/>
        <pt x="41" y="0" on="1"/>
        <pt x="41" y="561" on="1"/>
        <pt x="85" y="565" on="0"/>
        <pt x="165" y="569" on="0"/>
        <pt x="202" y="569" on="1"/>
        <pt x="405" y="569" on="0"/>
        <pt x="586" y="433" on="0"/>
      </contour>
      <contour>
        <pt x="351" y="280" on="1"/>
        <pt x="351" y="340" on="0"/>
        <pt x="308" y="393" on="0"/>
        <pt x="277" y="393" on="1"/>
        <pt x="273" y="393" on="1"/>
        <pt x="273" y="170" on="1"/>
        <pt x="277" y="169" on="0"/>
        <pt x="284" y="169" on="0"/>
        <pt x="288" y="169" on="1"/>
        <pt x="317" y="169" on="0"/>
        <pt x="351" y="217" on="0"/>
      </contour>
    </TTGlyph>
    <TTGlyph name="Dcroat" xMin="-6" yMin="-9" xMax="613" yMax="627">
      <contour>
        <pt x="184" y="-9" on="1"/>
        <pt x="152" y="-9" on="0"/>
        <pt x="81" y="-4" on="0"/>
        <pt x="44" y="0" on="1"/>
        <pt x="44" y="252" on="1"/>
        <pt x="-6" y="252" on="1"/>
        <pt x="-6" y="373" on="1"/>
        <pt x="44" y="373" on="1"/>
        <pt x="44" y="620" on="1"/>
        <pt x="87" y="624" on="0"/>
        <pt x="165" y="627" on="0"/>
        <pt x="200" y="627" on="1"/>
        <pt x="421" y="627" on="0"/>
        <pt x="613" y="480" on="0"/>
        <pt x="613" y="326" on="1"/>
        <pt x="613" y="249" on="0"/>
        <pt x="561" y="125" on="0"/>
        <pt x="456" y="38" on="0"/>
        <pt x="294" y="-9" on="0"/>
      </contour>
      <contour>
        <pt x="295" y="177" on="1"/>
        <pt x="333" y="177" on="0"/>
        <pt x="379" y="232" on="0"/>
        <pt x="379" y="309" on="1"/>
        <pt x="379" y="384" on="0"/>
        <pt x="323" y="444" on="0"/>
        <pt x="281" y="444" on="1"/>
        <pt x="274" y="444" on="1"/>
        <pt x="274" y="373" on="1"/>
        <pt x="335" y="373" on="1"/>
        <pt x="329" y="252" on="1"/>
        <pt x="274" y="252" on="1"/>
        <pt x="274" y="178" on="1"/>
        <pt x="279" y="177" on="0"/>
        <pt x="290" y="177" on="0"/>
      </contour>
    </TTGlyph>
    <TTGlyph name="Dcroat.sc" xMin="-9" yMin="-11" xMax="586" yMax="571">
      <contour>
        <pt x="188" y="-11" on="1"/>
        <pt x="154" y="-11" on="0"/>
        <pt x="81" y="-5" on="0"/>
        <pt x="41" y="0" on="1"/>
        <pt x="41" y="227" on="1"/>
        <pt x="-9" y="227" on="1"/>
        <pt x="-9" y="338" on="1"/>
        <pt x="41" y="338" on="1"/>
        <pt x="41" y="561" on="1"/>
        <pt x="87" y="565" on="0"/>
        <pt x="171" y="571" on="0"/>
        <pt x="208" y="571" on="1"/>
        <pt x="407" y="571" on="0"/>
        <pt x="586" y="432" on="0"/>
        <pt x="586" y="295" on="1"/>
        <pt x="586" y="227" on="0"/>
        <pt x="537" y="113" on="0"/>
        <pt x="439" y="33" on="0"/>
        <pt x="289" y="-11" on="0"/>
      </contour>
      <contour>
        <pt x="286" y="161" on="1"/>
        <pt x="317" y="161" on="0"/>
        <pt x="356" y="212" on="0"/>
        <pt x="356" y="280" on="1"/>
        <pt x="356" y="346" on="0"/>
        <pt x="307" y="400" on="0"/>
        <pt x="273" y="400" on="1"/>
        <pt x="267" y="400" on="1"/>
        <pt x="267" y="338" on="1"/>
        <pt x="317" y="338" on="1"/>
        <pt x="312" y="227" on="1"/>
        <pt x="267" y="227" on="1"/>
        <pt x="267" y="163" on="1"/>
        <pt x="271" y="162" on="0"/>
        <pt x="282" y="161" on="0"/>
      </contour>
    </TTGlyph>
    <TTGlyph name="E" xMin="44" yMin="0" xMax="510" yMax="620">
      <contour>
        <pt x="510" y="185" on="1"/>
        <pt x="499" y="0" on="1"/>
        <pt x="44" y="0" on="1"/>
        <pt x="44" y="620" on="1"/>
        <pt x="501" y="620" on="1"/>
        <pt x="501" y="435" on="1"/>
        <pt x="288" y="435" on="1"/>
        <pt x="288" y="379" on="1"/>
        <pt x="450" y="379" on="1"/>
        <pt x="450" y="242" on="1"/>
        <pt x="288" y="242" on="1"/>
        <pt x="288" y="185" on="1"/>
      </contour>
    </TTGlyph>
    <TTGlyph name="E.sc" xMin="41" yMin="0" xMax="489" yMax="561">
      <contour>
        <pt x="489" y="170" on="1"/>
        <pt x="478" y="0" on="1"/>
        <pt x="41" y="0" on="1"/>
        <pt x="41" y="561" on="1"/>
        <pt x="480" y="561" on="1"/>
        <pt x="480" y="391" on="1"/>
        <pt x="279" y="391" on="1"/>
        <pt x="279" y="344" on="1"/>
        <pt x="431" y="344" on="1"/>
        <pt x="431" y="218" on="1"/>
        <pt x="279" y="218" on="1"/>
        <pt x="279" y="170" on="1"/>
      </contour>
    </TTGlyph>
    <TTGlyph name="Eacute" xMin="44" yMin="0" xMax="510" yMax="915">
      <contour>
        <pt x="116" y="738" on="1"/>
        <pt x="185" y="776" on="0"/>
        <pt x="313" y="864" on="0"/>
        <pt x="372" y="915" on="1"/>
        <pt x="494" y="749" on="1"/>
        <pt x="413" y="701" on="0"/>
        <pt x="237" y="655" on="0"/>
        <pt x="145" y="647" on="1"/>
      </contour>
      <contour>
        <pt x="510" y="185" on="1"/>
        <pt x="499" y="0" on="1"/>
        <pt x="44" y="0" on="1"/>
        <pt x="44" y="620" on="1"/>
        <pt x="501" y="620" on="1"/>
        <pt x="501" y="435" on="1"/>
        <pt x="288" y="435" on="1"/>
        <pt x="288" y="379" on="1"/>
        <pt x="450" y="379" on="1"/>
        <pt x="450" y="242" on="1"/>
        <pt x="288" y="242" on="1"/>
        <pt x="288" y="185" on="1"/>
      </contour>
    </TTGlyph>
    <TTGlyph name="Eacute.sc" xMin="41" yMin="0" xMax="489" yMax="856">
      <contour>
        <pt x="103" y="679" on="1"/>
        <pt x="172" y="717" on="0"/>
        <pt x="300" y="805" on="0"/>
        <pt x="359" y="856" on="1"/>
        <pt x="481" y="690" on="1"/>
        <pt x="400" y="642" on="0"/>
        <pt x="224" y="596" on="0"/>
        <pt x="132" y="588" on="1"/>
      </contour>
      <contour>
        <pt x="489" y="170" on="1"/>
        <pt x="478" y="0" on="1"/>
        <pt x="41" y="0" on="1"/>
        <pt x="41" y="561" on="1"/>
        <pt x="480" y="561" on="1"/>
        <pt x="480" y="391" on="1"/>
        <pt x="279" y="391" on="1"/>
        <pt x="279" y="344" on="1"/>
        <pt x="431" y="344" on="1"/>
        <pt x="431" y="218" on="1"/>
        <pt x="279" y="218" on="1"/>
        <pt x="279" y="170" on="1"/>
      </contour>
    </TTGlyph>
    <TTGlyph name="Ebreve" xMin="44" yMin="0" xMax="510" yMax="888">
      <contour>
        <pt x="272" y="652" on="1"/>
        <pt x="194" y="652" on="0"/>
        <pt x="87" y="749" on="0"/>
        <pt x="55" y="822" on="1"/>
        <pt x="184" y="888" on="1"/>
        <pt x="207" y="858" on="0"/>
        <pt x="260" y="827" on="0"/>
        <pt x="286" y="827" on="1"/>
        <pt x="314" y="827" on="0"/>
        <pt x="364" y="858" on="0"/>
        <pt x="385" y="888" on="1"/>
        <pt x="495" y="841" on="1"/>
        <pt x="479" y="802" on="0"/>
        <pt x="436" y="733" on="0"/>
        <pt x="382" y="682" on="0"/>
        <pt x="313" y="652" on="0"/>
      </contour>
      <contour>
        <pt x="510" y="185" on="1"/>
        <pt x="499" y="0" on="1"/>
        <pt x="44" y="0" on="1"/>
        <pt x="44" y="620" on="1"/>
        <pt x="501" y="620" on="1"/>
        <pt x="501" y="435" on="1"/>
        <pt x="288" y="435" on="1"/>
        <pt x="288" y="379" on="1"/>
        <pt x="450" y="379" on="1"/>
        <pt x="450" y="242" on="1"/>
        <pt x="288" y="242" on="1"/>
        <pt x="288" y="185" on="1"/>
      </contour>
    </TTGlyph>
    <TTGlyph name="Ebreve.sc" xMin="41" yMin="0" xMax="489" yMax="829">
      <contour>
        <pt x="259" y="593" on="1"/>
        <pt x="181" y="593" on="0"/>
        <pt x="74" y="690" on="0"/>
        <pt x="42" y="763" on="1"/>
        <pt x="171" y="829" on="1"/>
        <pt x="194" y="799" on="0"/>
        <pt x="247" y="768" on="0"/>
        <pt x="273" y="768" on="1"/>
        <pt x="301" y="768" on="0"/>
        <pt x="351" y="799" on="0"/>
        <pt x="372" y="829" on="1"/>
        <pt x="482" y="782" on="1"/>
        <pt x="466" y="743" on="0"/>
        <pt x="423" y="674" on="0"/>
        <pt x="369" y="623" on="0"/>
        <pt x="300" y="593" on="0"/>
      </contour>
      <contour>
        <pt x="489" y="170" on="1"/>
        <pt x="478" y="0" on="1"/>
        <pt x="41" y="0" on="1"/>
        <pt x="41" y="561" on="1"/>
        <pt x="480" y="561" on="1"/>
        <pt x="480" y="391" on="1"/>
        <pt x="279" y="391" on="1"/>
        <pt x="279" y="344" on="1"/>
        <pt x="431" y="344" on="1"/>
        <pt x="431" y="218" on="1"/>
        <pt x="279" y="218" on="1"/>
        <pt x="279" y="170" on="1"/>
      </contour>
    </TTGlyph>
    <TTGlyph name="Ecaron" xMin="44" yMin="0" xMax="510" yMax="897">
      <contour>
        <pt x="300" y="648" on="1"/>
        <pt x="246" y="648" on="1"/>
        <pt x="65" y="782" on="1"/>
        <pt x="172" y="897" on="1"/>
        <pt x="285" y="814" on="1"/>
        <pt x="398" y="897" on="1"/>
        <pt x="485" y="792" on="1"/>
      </contour>
      <contour>
        <pt x="510" y="185" on="1"/>
        <pt x="499" y="0" on="1"/>
        <pt x="44" y="0" on="1"/>
        <pt x="44" y="620" on="1"/>
        <pt x="501" y="620" on="1"/>
        <pt x="501" y="435" on="1"/>
        <pt x="288" y="435" on="1"/>
        <pt x="288" y="379" on="1"/>
        <pt x="450" y="379" on="1"/>
        <pt x="450" y="242" on="1"/>
        <pt x="288" y="242" on="1"/>
        <pt x="288" y="185" on="1"/>
      </contour>
    </TTGlyph>
    <TTGlyph name="Ecaron.sc" xMin="41" yMin="0" xMax="489" yMax="838">
      <contour>
        <pt x="287" y="589" on="1"/>
        <pt x="233" y="589" on="1"/>
        <pt x="52" y="723" on="1"/>
        <pt x="159" y="838" on="1"/>
        <pt x="272" y="755" on="1"/>
        <pt x="385" y="838" on="1"/>
        <pt x="472" y="733" on="1"/>
      </contour>
      <contour>
        <pt x="489" y="170" on="1"/>
        <pt x="478" y="0" on="1"/>
        <pt x="41" y="0" on="1"/>
        <pt x="41" y="561" on="1"/>
        <pt x="480" y="561" on="1"/>
        <pt x="480" y="391" on="1"/>
        <pt x="279" y="391" on="1"/>
        <pt x="279" y="344" on="1"/>
        <pt x="431" y="344" on="1"/>
        <pt x="431" y="218" on="1"/>
        <pt x="279" y="218" on="1"/>
        <pt x="279" y="170" on="1"/>
      </contour>
    </TTGlyph>
    <TTGlyph name="Ecircumflex" xMin="44" yMin="0" xMax="510" yMax="894">
      <contour>
        <pt x="378" y="645" on="1"/>
        <pt x="265" y="728" on="1"/>
        <pt x="152" y="645" on="1"/>
        <pt x="65" y="750" on="1"/>
        <pt x="250" y="894" on="1"/>
        <pt x="304" y="894" on="1"/>
        <pt x="485" y="760" on="1"/>
      </contour>
      <contour>
        <pt x="510" y="185" on="1"/>
        <pt x="499" y="0" on="1"/>
        <pt x="44" y="0" on="1"/>
        <pt x="44" y="620" on="1"/>
        <pt x="501" y="620" on="1"/>
        <pt x="501" y="435" on="1"/>
        <pt x="288" y="435" on="1"/>
        <pt x="288" y="379" on="1"/>
        <pt x="450" y="379" on="1"/>
        <pt x="450" y="242" on="1"/>
        <pt x="288" y="242" on="1"/>
        <pt x="288" y="185" on="1"/>
      </contour>
    </TTGlyph>
    <TTGlyph name="Ecircumflex.sc" xMin="41" yMin="0" xMax="489" yMax="835">
      <contour>
        <pt x="365" y="586" on="1"/>
        <pt x="252" y="669" on="1"/>
        <pt x="139" y="586" on="1"/>
        <pt x="52" y="691" on="1"/>
        <pt x="237" y="835" on="1"/>
        <pt x="291" y="835" on="1"/>
        <pt x="472" y="701" on="1"/>
      </contour>
      <contour>
        <pt x="489" y="170" on="1"/>
        <pt x="478" y="0" on="1"/>
        <pt x="41" y="0" on="1"/>
        <pt x="41" y="561" on="1"/>
        <pt x="480" y="561" on="1"/>
        <pt x="480" y="391" on="1"/>
        <pt x="279" y="391" on="1"/>
        <pt x="279" y="344" on="1"/>
        <pt x="431" y="344" on="1"/>
        <pt x="431" y="218" on="1"/>
        <pt x="279" y="218" on="1"/>
        <pt x="279" y="170" on="1"/>
      </contour>
    </TTGlyph>
    <TTGlyph name="Edieresis" xMin="41" yMin="0" xMax="510" yMax="852">
      <contour>
        <pt x="506" y="667" on="1"/>
        <pt x="295" y="667" on="1"/>
        <pt x="297" y="852" on="1"/>
        <pt x="509" y="852" on="1"/>
      </contour>
      <contour>
        <pt x="253" y="667" on="1"/>
        <pt x="41" y="667" on="1"/>
        <pt x="44" y="852" on="1"/>
        <pt x="255" y="852" on="1"/>
      </contour>
      <contour>
        <pt x="510" y="185" on="1"/>
        <pt x="499" y="0" on="1"/>
        <pt x="44" y="0" on="1"/>
        <pt x="44" y="620" on="1"/>
        <pt x="501" y="620" on="1"/>
        <pt x="501" y="435" on="1"/>
        <pt x="288" y="435" on="1"/>
        <pt x="288" y="379" on="1"/>
        <pt x="450" y="379" on="1"/>
        <pt x="450" y="242" on="1"/>
        <pt x="288" y="242" on="1"/>
        <pt x="288" y="185" on="1"/>
      </contour>
    </TTGlyph>
    <TTGlyph name="Edieresis.sc" xMin="28" yMin="0" xMax="496" yMax="793">
      <contour>
        <pt x="493" y="608" on="1"/>
        <pt x="282" y="608" on="1"/>
        <pt x="284" y="793" on="1"/>
        <pt x="496" y="793" on="1"/>
      </contour>
      <contour>
        <pt x="240" y="608" on="1"/>
        <pt x="28" y="608" on="1"/>
        <pt x="31" y="793" on="1"/>
        <pt x="242" y="793" on="1"/>
      </contour>
      <contour>
        <pt x="489" y="170" on="1"/>
        <pt x="478" y="0" on="1"/>
        <pt x="41" y="0" on="1"/>
        <pt x="41" y="561" on="1"/>
        <pt x="480" y="561" on="1"/>
        <pt x="480" y="391" on="1"/>
        <pt x="279" y="391" on="1"/>
        <pt x="279" y="344" on="1"/>
        <pt x="431" y="344" on="1"/>
        <pt x="431" y="218" on="1"/>
        <pt x="279" y="218" on="1"/>
        <pt x="279" y="170" on="1"/>
      </contour>
    </TTGlyph>
    <TTGlyph name="Edotaccent" xMin="44" yMin="0" xMax="510" yMax="852">
      <contour>
        <pt x="391" y="667" on="1"/>
        <pt x="151" y="667" on="1"/>
        <pt x="159" y="852" on="1"/>
        <pt x="399" y="852" on="1"/>
      </contour>
      <contour>
        <pt x="510" y="185" on="1"/>
        <pt x="499" y="0" on="1"/>
        <pt x="44" y="0" on="1"/>
        <pt x="44" y="620" on="1"/>
        <pt x="501" y="620" on="1"/>
        <pt x="501" y="435" on="1"/>
        <pt x="288" y="435" on="1"/>
        <pt x="288" y="379" on="1"/>
        <pt x="450" y="379" on="1"/>
        <pt x="450" y="242" on="1"/>
        <pt x="288" y="242" on="1"/>
        <pt x="288" y="185" on="1"/>
      </contour>
    </TTGlyph>
    <TTGlyph name="Edotaccent.sc" xMin="41" yMin="0" xMax="489" yMax="793">
      <contour>
        <pt x="378" y="608" on="1"/>
        <pt x="138" y="608" on="1"/>
        <pt x="146" y="793" on="1"/>
        <pt x="386" y="793" on="1"/>
      </contour>
      <contour>
        <pt x="489" y="170" on="1"/>
        <pt x="478" y="0" on="1"/>
        <pt x="41" y="0" on="1"/>
        <pt x="41" y="561" on="1"/>
        <pt x="480" y="561" on="1"/>
        <pt x="480" y="391" on="1"/>
        <pt x="279" y="391" on="1"/>
        <pt x="279" y="344" on="1"/>
        <pt x="431" y="344" on="1"/>
        <pt x="431" y="218" on="1"/>
        <pt x="279" y="218" on="1"/>
        <pt x="279" y="170" on="1"/>
      </contour>
    </TTGlyph>
    <TTGlyph name="Egrave" xMin="44" yMin="0" xMax="510" yMax="915">
      <contour>
        <pt x="437" y="739" on="1"/>
        <pt x="402" y="647" on="1"/>
        <pt x="312" y="659" on="0"/>
        <pt x="139" y="706" on="0"/>
        <pt x="61" y="750" on="1"/>
        <pt x="175" y="915" on="1"/>
        <pt x="235" y="868" on="0"/>
        <pt x="366" y="780" on="0"/>
      </contour>
      <contour>
        <pt x="510" y="185" on="1"/>
        <pt x="499" y="0" on="1"/>
        <pt x="44" y="0" on="1"/>
        <pt x="44" y="620" on="1"/>
        <pt x="501" y="620" on="1"/>
        <pt x="501" y="435" on="1"/>
        <pt x="288" y="435" on="1"/>
        <pt x="288" y="379" on="1"/>
        <pt x="450" y="379" on="1"/>
        <pt x="450" y="242" on="1"/>
        <pt x="288" y="242" on="1"/>
        <pt x="288" y="185" on="1"/>
      </contour>
    </TTGlyph>
    <TTGlyph name="Egrave.sc" xMin="41" yMin="0" xMax="489" yMax="856">
      <contour>
        <pt x="424" y="680" on="1"/>
        <pt x="389" y="588" on="1"/>
        <pt x="299" y="600" on="0"/>
        <pt x="126" y="647" on="0"/>
        <pt x="48" y="691" on="1"/>
        <pt x="162" y="856" on="1"/>
        <pt x="222" y="809" on="0"/>
        <pt x="353" y="721" on="0"/>
      </contour>
      <contour>
        <pt x="489" y="170" on="1"/>
        <pt x="478" y="0" on="1"/>
        <pt x="41" y="0" on="1"/>
        <pt x="41" y="561" on="1"/>
        <pt x="480" y="561" on="1"/>
        <pt x="480" y="391" on="1"/>
        <pt x="279" y="391" on="1"/>
        <pt x="279" y="344" on="1"/>
        <pt x="431" y="344" on="1"/>
        <pt x="431" y="218" on="1"/>
        <pt x="279" y="218" on="1"/>
        <pt x="279" y="170" on="1"/>
      </contour>
    </TTGlyph>
    <TTGlyph name="Emacron" xMin="44" yMin="0" xMax="510" yMax="852">
      <contour>
        <pt x="475" y="852" on="1"/>
        <pt x="475" y="667" on="1"/>
        <pt x="75" y="667" on="1"/>
        <pt x="75" y="852" on="1"/>
      </contour>
      <contour>
        <pt x="510" y="185" on="1"/>
        <pt x="499" y="0" on="1"/>
        <pt x="44" y="0" on="1"/>
        <pt x="44" y="620" on="1"/>
        <pt x="501" y="620" on="1"/>
        <pt x="501" y="435" on="1"/>
        <pt x="288" y="435" on="1"/>
        <pt x="288" y="379" on="1"/>
        <pt x="450" y="379" on="1"/>
        <pt x="450" y="242" on="1"/>
        <pt x="288" y="242" on="1"/>
        <pt x="288" y="185" on="1"/>
      </contour>
    </TTGlyph>
    <TTGlyph name="Emacron.sc" xMin="41" yMin="0" xMax="489" yMax="793">
      <contour>
        <pt x="462" y="793" on="1"/>
        <pt x="462" y="608" on="1"/>
        <pt x="62" y="608" on="1"/>
        <pt x="62" y="793" on="1"/>
      </contour>
      <contour>
        <pt x="489" y="170" on="1"/>
        <pt x="478" y="0" on="1"/>
        <pt x="41" y="0" on="1"/>
        <pt x="41" y="561" on="1"/>
        <pt x="480" y="561" on="1"/>
        <pt x="480" y="391" on="1"/>
        <pt x="279" y="391" on="1"/>
        <pt x="279" y="344" on="1"/>
        <pt x="431" y="344" on="1"/>
        <pt x="431" y="218" on="1"/>
        <pt x="279" y="218" on="1"/>
        <pt x="279" y="170" on="1"/>
      </contour>
    </TTGlyph>
    <TTGlyph name="Eogonek" xMin="44" yMin="-260" xMax="510" yMax="620">
      <contour>
        <pt x="482" y="-95" on="1"/>
        <pt x="467" y="-260" on="1"/>
        <pt x="386" y="-256" on="0"/>
        <pt x="277" y="-230" on="0"/>
        <pt x="212" y="-193" on="0"/>
        <pt x="185" y="-148" on="0"/>
        <pt x="185" y="-124" on="1"/>
        <pt x="185" y="-89" on="0"/>
        <pt x="238" y="-27" on="0"/>
        <pt x="292" y="0" on="1"/>
        <pt x="44" y="0" on="1"/>
        <pt x="44" y="620" on="1"/>
        <pt x="501" y="620" on="1"/>
        <pt x="501" y="435" on="1"/>
        <pt x="288" y="435" on="1"/>
        <pt x="288" y="379" on="1"/>
        <pt x="450" y="379" on="1"/>
        <pt x="450" y="242" on="1"/>
        <pt x="288" y="242" on="1"/>
        <pt x="288" y="185" on="1"/>
        <pt x="510" y="185" on="1"/>
        <pt x="499" y="0" on="1"/>
        <pt x="418" y="-25" on="0"/>
        <pt x="365" y="-52" on="0"/>
        <pt x="365" y="-65" on="1"/>
        <pt x="365" y="-78" on="0"/>
        <pt x="419" y="-91" on="0"/>
      </contour>
    </TTGlyph>
    <TTGlyph name="Eogonek.sc" xMin="41" yMin="-260" xMax="489" yMax="561">
      <contour>
        <pt x="461" y="-95" on="1"/>
        <pt x="446" y="-260" on="1"/>
        <pt x="365" y="-256" on="0"/>
        <pt x="256" y="-230" on="0"/>
        <pt x="191" y="-193" on="0"/>
        <pt x="164" y="-148" on="0"/>
        <pt x="164" y="-124" on="1"/>
        <pt x="164" y="-89" on="0"/>
        <pt x="217" y="-27" on="0"/>
        <pt x="271" y="0" on="1"/>
        <pt x="41" y="0" on="1"/>
        <pt x="41" y="561" on="1"/>
        <pt x="480" y="561" on="1"/>
        <pt x="480" y="391" on="1"/>
        <pt x="279" y="391" on="1"/>
        <pt x="279" y="344" on="1"/>
        <pt x="431" y="344" on="1"/>
        <pt x="431" y="218" on="1"/>
        <pt x="279" y="218" on="1"/>
        <pt x="279" y="170" on="1"/>
        <pt x="489" y="170" on="1"/>
        <pt x="478" y="0" on="1"/>
        <pt x="397" y="-25" on="0"/>
        <pt x="344" y="-52" on="0"/>
        <pt x="344" y="-65" on="1"/>
        <pt x="344" y="-78" on="0"/>
        <pt x="398" y="-91" on="0"/>
      </contour>
    </TTGlyph>
    <TTGlyph name="Eth" xMin="-6" yMin="-9" xMax="613" yMax="627">
      <contour>
        <pt x="184" y="-9" on="1"/>
        <pt x="152" y="-9" on="0"/>
        <pt x="81" y="-4" on="0"/>
        <pt x="44" y="0" on="1"/>
        <pt x="44" y="252" on="1"/>
        <pt x="-6" y="252" on="1"/>
        <pt x="-6" y="373" on="1"/>
        <pt x="44" y="373" on="1"/>
        <pt x="44" y="620" on="1"/>
        <pt x="87" y="624" on="0"/>
        <pt x="165" y="627" on="0"/>
        <pt x="200" y="627" on="1"/>
        <pt x="421" y="627" on="0"/>
        <pt x="613" y="480" on="0"/>
        <pt x="613" y="326" on="1"/>
        <pt x="613" y="249" on="0"/>
        <pt x="561" y="125" on="0"/>
        <pt x="456" y="38" on="0"/>
        <pt x="294" y="-9" on="0"/>
      </contour>
      <contour>
        <pt x="295" y="177" on="1"/>
        <pt x="333" y="177" on="0"/>
        <pt x="379" y="232" on="0"/>
        <pt x="379" y="309" on="1"/>
        <pt x="379" y="384" on="0"/>
        <pt x="323" y="444" on="0"/>
        <pt x="281" y="444" on="1"/>
        <pt x="274" y="444" on="1"/>
        <pt x="274" y="373" on="1"/>
        <pt x="335" y="373" on="1"/>
        <pt x="329" y="252" on="1"/>
        <pt x="274" y="252" on="1"/>
        <pt x="274" y="178" on="1"/>
        <pt x="279" y="177" on="0"/>
        <pt x="290" y="177" on="0"/>
      </contour>
    </TTGlyph>
    <TTGlyph name="Eth.sc" xMin="-9" yMin="-11" xMax="586" yMax="571">
      <contour>
        <pt x="188" y="-11" on="1"/>
        <pt x="154" y="-11" on="0"/>
        <pt x="81" y="-5" on="0"/>
        <pt x="41" y="0" on="1"/>
        <pt x="41" y="227" on="1"/>
        <pt x="-9" y="227" on="1"/>
        <pt x="-9" y="338" on="1"/>
        <pt x="41" y="338" on="1"/>
        <pt x="41" y="561" on="1"/>
        <pt x="87" y="565" on="0"/>
        <pt x="171" y="571" on="0"/>
        <pt x="208" y="571" on="1"/>
        <pt x="407" y="571" on="0"/>
        <pt x="586" y="432" on="0"/>
        <pt x="586" y="295" on="1"/>
        <pt x="586" y="227" on="0"/>
        <pt x="537" y="113" on="0"/>
        <pt x="439" y="33" on="0"/>
        <pt x="289" y="-11" on="0"/>
      </contour>
      <contour>
        <pt x="286" y="161" on="1"/>
        <pt x="317" y="161" on="0"/>
        <pt x="356" y="212" on="0"/>
        <pt x="356" y="280" on="1"/>
        <pt x="356" y="346" on="0"/>
        <pt x="307" y="400" on="0"/>
        <pt x="273" y="400" on="1"/>
        <pt x="267" y="400" on="1"/>
        <pt x="267" y="338" on="1"/>
        <pt x="317" y="338" on="1"/>
        <pt x="312" y="227" on="1"/>
        <pt x="267" y="227" on="1"/>
        <pt x="267" y="163" on="1"/>
        <pt x="271" y="162" on="0"/>
        <pt x="282" y="161" on="0"/>
      </contour>
    </TTGlyph>
    <TTGlyph name="Euro" xMin="27" yMin="-16" xMax="515" yMax="643">
      <contour>
        <pt x="515" y="162" on="1"/>
        <pt x="497" y="-16" on="1"/>
        <pt x="393" y="-15" on="0"/>
        <pt x="249" y="14" on="0"/>
        <pt x="156" y="66" on="0"/>
        <pt x="105" y="143" on="0"/>
        <pt x="94" y="192" on="1"/>
        <pt x="28" y="192" on="1"/>
        <pt x="28" y="283" on="1"/>
        <pt x="84" y="283" on="1"/>
        <pt x="84" y="290" on="0"/>
        <pt x="84" y="305" on="0"/>
        <pt x="84" y="312" on="1"/>
        <pt x="84" y="315" on="0"/>
        <pt x="84" y="320" on="0"/>
        <pt x="84" y="323" on="1"/>
        <pt x="27" y="323" on="1"/>
        <pt x="27" y="414" on="1"/>
        <pt x="94" y="414" on="1"/>
        <pt x="104" y="458" on="0"/>
        <pt x="153" y="534" on="0"/>
        <pt x="243" y="593" on="0"/>
        <pt x="383" y="634" on="0"/>
        <pt x="484" y="643" on="1"/>
        <pt x="506" y="448" on="1"/>
        <pt x="410" y="439" on="0"/>
        <pt x="317" y="419" on="0"/>
        <pt x="300" y="397" on="1"/>
        <pt x="463" y="397" on="1"/>
        <pt x="459" y="323" on="1"/>
        <pt x="284" y="323" on="1"/>
        <pt x="284" y="322" on="0"/>
        <pt x="284" y="317" on="0"/>
        <pt x="284" y="315" on="1"/>
        <pt x="284" y="306" on="0"/>
        <pt x="284" y="290" on="0"/>
        <pt x="285" y="283" on="1"/>
        <pt x="454" y="283" on="1"/>
        <pt x="450" y="209" on="1"/>
        <pt x="309" y="209" on="1"/>
        <pt x="329" y="188" on="0"/>
        <pt x="425" y="168" on="0"/>
      </contour>
    </TTGlyph>
    <TTGlyph name="F" xMin="44" yMin="0" xMax="496" yMax="620">
      <contour>
        <pt x="445" y="186" on="1"/>
        <pt x="296" y="186" on="1"/>
        <pt x="296" y="0" on="1"/>
        <pt x="44" y="0" on="1"/>
        <pt x="44" y="620" on="1"/>
        <pt x="496" y="620" on="1"/>
        <pt x="496" y="428" on="1"/>
        <pt x="296" y="428" on="1"/>
        <pt x="296" y="367" on="1"/>
        <pt x="445" y="367" on="1"/>
      </contour>
    </TTGlyph>
    <TTGlyph name="F.sc" xMin="41" yMin="0" xMax="475" yMax="561">
      <contour>
        <pt x="426" y="165" on="1"/>
        <pt x="287" y="165" on="1"/>
        <pt x="287" y="0" on="1"/>
        <pt x="41" y="0" on="1"/>
        <pt x="41" y="561" on="1"/>
        <pt x="475" y="561" on="1"/>
        <pt x="475" y="384" on="1"/>
        <pt x="287" y="384" on="1"/>
        <pt x="287" y="333" on="1"/>
        <pt x="426" y="333" on="1"/>
      </contour>
    </TTGlyph>
    <TTGlyph name="G" xMin="19" yMin="-7" xMax="544" yMax="631">
      <contour>
        <pt x="544" y="7" on="1"/>
        <pt x="498" y="0" on="0"/>
        <pt x="414" y="-7" on="0"/>
        <pt x="377" y="-7" on="1"/>
        <pt x="272" y="-7" on="0"/>
        <pt x="133" y="42" on="0"/>
        <pt x="52" y="125" on="0"/>
        <pt x="19" y="234" on="0"/>
        <pt x="19" y="293" on="1"/>
        <pt x="19" y="361" on="0"/>
        <pt x="65" y="484" on="0"/>
        <pt x="172" y="576" on="0"/>
        <pt x="350" y="631" on="0"/>
        <pt x="481" y="631" on="1"/>
        <pt x="501" y="631" on="1"/>
        <pt x="515" y="421" on="1"/>
        <pt x="493" y="422" on="0"/>
        <pt x="455" y="423" on="0"/>
        <pt x="438" y="423" on="1"/>
        <pt x="383" y="423" on="0"/>
        <pt x="315" y="411" on="0"/>
        <pt x="278" y="385" on="0"/>
        <pt x="266" y="340" on="0"/>
        <pt x="266" y="308" on="1"/>
        <pt x="266" y="258" on="0"/>
        <pt x="302" y="193" on="0"/>
        <pt x="349" y="177" on="1"/>
        <pt x="347" y="211" on="0"/>
        <pt x="343" y="280" on="0"/>
        <pt x="342" y="310" on="1"/>
        <pt x="543" y="310" on="1"/>
        <pt x="543" y="219" on="0"/>
        <pt x="544" y="66" on="0"/>
      </contour>
    </TTGlyph>
    <TTGlyph name="G.sc" xMin="18" yMin="-8" xMax="519" yMax="570">
      <contour>
        <pt x="519" y="4" on="1"/>
        <pt x="475" y="-2" on="0"/>
        <pt x="395" y="-8" on="0"/>
        <pt x="360" y="-8" on="1"/>
        <pt x="259" y="-8" on="0"/>
        <pt x="125" y="37" on="0"/>
        <pt x="49" y="112" on="0"/>
        <pt x="18" y="212" on="0"/>
        <pt x="18" y="265" on="1"/>
        <pt x="18" y="327" on="0"/>
        <pt x="62" y="438" on="0"/>
        <pt x="163" y="521" on="0"/>
        <pt x="333" y="570" on="0"/>
        <pt x="457" y="570" on="1"/>
        <pt x="478" y="570" on="1"/>
        <pt x="491" y="377" on="1"/>
        <pt x="469" y="378" on="0"/>
        <pt x="430" y="379" on="0"/>
        <pt x="414" y="379" on="1"/>
        <pt x="364" y="379" on="0"/>
        <pt x="303" y="369" on="0"/>
        <pt x="270" y="346" on="0"/>
        <pt x="259" y="306" on="0"/>
        <pt x="259" y="277" on="1"/>
        <pt x="259" y="234" on="0"/>
        <pt x="289" y="179" on="0"/>
        <pt x="329" y="163" on="1"/>
        <pt x="328" y="192" on="0"/>
        <pt x="324" y="253" on="0"/>
        <pt x="323" y="279" on="1"/>
        <pt x="518" y="279" on="1"/>
        <pt x="518" y="196" on="0"/>
        <pt x="519" y="58" on="0"/>
      </contour>
    </TTGlyph>
    <TTGlyph name="Gbreve" xMin="19" yMin="-7" xMax="544" yMax="888">
      <contour>
        <pt x="307" y="652" on="1"/>
        <pt x="229" y="652" on="0"/>
        <pt x="122" y="749" on="0"/>
        <pt x="90" y="822" on="1"/>
        <pt x="219" y="888" on="1"/>
        <pt x="242" y="858" on="0"/>
        <pt x="295" y="827" on="0"/>
        <pt x="321" y="827" on="1"/>
        <pt x="349" y="827" on="0"/>
        <pt x="399" y="858" on="0"/>
        <pt x="420" y="888" on="1"/>
        <pt x="530" y="841" on="1"/>
        <pt x="514" y="802" on="0"/>
        <pt x="471" y="733" on="0"/>
        <pt x="417" y="682" on="0"/>
        <pt x="348" y="652" on="0"/>
      </contour>
      <contour>
        <pt x="544" y="7" on="1"/>
        <pt x="498" y="0" on="0"/>
        <pt x="414" y="-7" on="0"/>
        <pt x="377" y="-7" on="1"/>
        <pt x="272" y="-7" on="0"/>
        <pt x="133" y="42" on="0"/>
        <pt x="52" y="125" on="0"/>
        <pt x="19" y="234" on="0"/>
        <pt x="19" y="293" on="1"/>
        <pt x="19" y="361" on="0"/>
        <pt x="65" y="484" on="0"/>
        <pt x="172" y="576" on="0"/>
        <pt x="350" y="631" on="0"/>
        <pt x="481" y="631" on="1"/>
        <pt x="501" y="631" on="1"/>
        <pt x="515" y="421" on="1"/>
        <pt x="493" y="422" on="0"/>
        <pt x="455" y="423" on="0"/>
        <pt x="438" y="423" on="1"/>
        <pt x="383" y="423" on="0"/>
        <pt x="315" y="411" on="0"/>
        <pt x="278" y="385" on="0"/>
        <pt x="266" y="340" on="0"/>
        <pt x="266" y="308" on="1"/>
        <pt x="266" y="258" on="0"/>
        <pt x="302" y="193" on="0"/>
        <pt x="349" y="177" on="1"/>
        <pt x="347" y="211" on="0"/>
        <pt x="343" y="280" on="0"/>
        <pt x="342" y="310" on="1"/>
        <pt x="543" y="310" on="1"/>
        <pt x="543" y="219" on="0"/>
        <pt x="544" y="66" on="0"/>
      </contour>
    </TTGlyph>
    <TTGlyph name="Gbreve.sc" xMin="18" yMin="-8" xMax="519" yMax="832">
      <contour>
        <pt x="287" y="596" on="1"/>
        <pt x="209" y="596" on="0"/>
        <pt x="102" y="693" on="0"/>
        <pt x="70" y="766" on="1"/>
        <pt x="199" y="832" on="1"/>
        <pt x="222" y="802" on="0"/>
        <pt x="275" y="771" on="0"/>
        <pt x="301" y="771" on="1"/>
        <pt x="329" y="771" on="0"/>
        <pt x="379" y="802" on="0"/>
        <pt x="400" y="832" on="1"/>
        <pt x="510" y="785" on="1"/>
        <pt x="494" y="746" on="0"/>
        <pt x="451" y="677" on="0"/>
        <pt x="397" y="626" on="0"/>
        <pt x="328" y="596" on="0"/>
      </contour>
      <contour>
        <pt x="519" y="4" on="1"/>
        <pt x="475" y="-2" on="0"/>
        <pt x="395" y="-8" on="0"/>
        <pt x="360" y="-8" on="1"/>
        <pt x="259" y="-8" on="0"/>
        <pt x="125" y="37" on="0"/>
        <pt x="49" y="112" on="0"/>
        <pt x="18" y="212" on="0"/>
        <pt x="18" y="265" on="1"/>
        <pt x="18" y="327" on="0"/>
        <pt x="62" y="438" on="0"/>
        <pt x="163" y="521" on="0"/>
        <pt x="333" y="570" on="0"/>
        <pt x="457" y="570" on="1"/>
        <pt x="478" y="570" on="1"/>
        <pt x="491" y="377" on="1"/>
        <pt x="469" y="378" on="0"/>
        <pt x="430" y="379" on="0"/>
        <pt x="414" y="379" on="1"/>
        <pt x="364" y="379" on="0"/>
        <pt x="303" y="369" on="0"/>
        <pt x="270" y="346" on="0"/>
        <pt x="259" y="306" on="0"/>
        <pt x="259" y="277" on="1"/>
        <pt x="259" y="234" on="0"/>
        <pt x="289" y="179" on="0"/>
        <pt x="329" y="163" on="1"/>
        <pt x="328" y="192" on="0"/>
        <pt x="324" y="253" on="0"/>
        <pt x="323" y="279" on="1"/>
        <pt x="518" y="279" on="1"/>
        <pt x="518" y="196" on="0"/>
        <pt x="519" y="58" on="0"/>
      </contour>
    </TTGlyph>
    <TTGlyph name="Gcommaaccent" xMin="19" yMin="-337" xMax="544" yMax="631">
      <contour>
        <pt x="544" y="7" on="1"/>
        <pt x="498" y="0" on="0"/>
        <pt x="414" y="-7" on="0"/>
        <pt x="377" y="-7" on="1"/>
        <pt x="272" y="-7" on="0"/>
        <pt x="133" y="42" on="0"/>
        <pt x="52" y="125" on="0"/>
        <pt x="19" y="234" on="0"/>
        <pt x="19" y="293" on="1"/>
        <pt x="19" y="361" on="0"/>
        <pt x="65" y="484" on="0"/>
        <pt x="172" y="576" on="0"/>
        <pt x="350" y="631" on="0"/>
        <pt x="481" y="631" on="1"/>
        <pt x="501" y="631" on="1"/>
        <pt x="515" y="421" on="1"/>
        <pt x="493" y="422" on="0"/>
        <pt x="455" y="423" on="0"/>
        <pt x="438" y="423" on="1"/>
        <pt x="383" y="423" on="0"/>
        <pt x="315" y="411" on="0"/>
        <pt x="278" y="385" on="0"/>
        <pt x="266" y="340" on="0"/>
        <pt x="266" y="308" on="1"/>
        <pt x="266" y="258" on="0"/>
        <pt x="302" y="193" on="0"/>
        <pt x="349" y="177" on="1"/>
        <pt x="347" y="211" on="0"/>
        <pt x="343" y="280" on="0"/>
        <pt x="342" y="310" on="1"/>
        <pt x="543" y="310" on="1"/>
        <pt x="543" y="219" on="0"/>
        <pt x="544" y="66" on="0"/>
      </contour>
      <contour>
        <pt x="190" y="-297" on="1"/>
        <pt x="195" y="-265" on="0"/>
        <pt x="201" y="-205" on="0"/>
        <pt x="201" y="-174" on="1"/>
        <pt x="201" y="-147" on="0"/>
        <pt x="196" y="-91" on="0"/>
        <pt x="190" y="-59" on="1"/>
        <pt x="430" y="-52" on="1"/>
        <pt x="430" y="-57" on="1"/>
        <pt x="430" y="-144" on="0"/>
        <pt x="370" y="-277" on="0"/>
        <pt x="288" y="-337" on="1"/>
      </contour>
    </TTGlyph>
    <TTGlyph name="Gcommaaccent.sc" xMin="18" yMin="-338" xMax="519" yMax="570">
      <contour>
        <pt x="519" y="4" on="1"/>
        <pt x="475" y="-2" on="0"/>
        <pt x="395" y="-8" on="0"/>
        <pt x="360" y="-8" on="1"/>
        <pt x="259" y="-8" on="0"/>
        <pt x="125" y="37" on="0"/>
        <pt x="49" y="112" on="0"/>
        <pt x="18" y="212" on="0"/>
        <pt x="18" y="265" on="1"/>
        <pt x="18" y="327" on="0"/>
        <pt x="62" y="438" on="0"/>
        <pt x="163" y="521" on="0"/>
        <pt x="333" y="570" on="0"/>
        <pt x="457" y="570" on="1"/>
        <pt x="478" y="570" on="1"/>
        <pt x="491" y="377" on="1"/>
        <pt x="469" y="378" on="0"/>
        <pt x="430" y="379" on="0"/>
        <pt x="414" y="379" on="1"/>
        <pt x="364" y="379" on="0"/>
        <pt x="303" y="369" on="0"/>
        <pt x="270" y="346" on="0"/>
        <pt x="259" y="306" on="0"/>
        <pt x="259" y="277" on="1"/>
        <pt x="259" y="234" on="0"/>
        <pt x="289" y="179" on="0"/>
        <pt x="329" y="163" on="1"/>
        <pt x="328" y="192" on="0"/>
        <pt x="324" y="253" on="0"/>
        <pt x="323" y="279" on="1"/>
        <pt x="518" y="279" on="1"/>
        <pt x="518" y="196" on="0"/>
        <pt x="519" y="58" on="0"/>
      </contour>
      <contour>
        <pt x="170" y="-298" on="1"/>
        <pt x="175" y="-266" on="0"/>
        <pt x="181" y="-206" on="0"/>
        <pt x="181" y="-175" on="1"/>
        <pt x="181" y="-148" on="0"/>
        <pt x="176" y="-92" on="0"/>
        <pt x="170" y="-60" on="1"/>
        <pt x="410" y="-53" on="1"/>
        <pt x="410" y="-58" on="1"/>
        <pt x="410" y="-145" on="0"/>
        <pt x="350" y="-278" on="0"/>
        <pt x="268" y="-338" on="1"/>
      </contour>
    </TTGlyph>
    <TTGlyph name="Gdotaccent" xMin="19" yMin="-7" xMax="544" yMax="852">
      <contour>
        <pt x="426" y="667" on="1"/>
        <pt x="186" y="667" on="1"/>
        <pt x="194" y="852" on="1"/>
        <pt x="434" y="852" on="1"/>
      </contour>
      <contour>
        <pt x="544" y="7" on="1"/>
        <pt x="498" y="0" on="0"/>
        <pt x="414" y="-7" on="0"/>
        <pt x="377" y="-7" on="1"/>
        <pt x="272" y="-7" on="0"/>
        <pt x="133" y="42" on="0"/>
        <pt x="52" y="125" on="0"/>
        <pt x="19" y="234" on="0"/>
        <pt x="19" y="293" on="1"/>
        <pt x="19" y="361" on="0"/>
        <pt x="65" y="484" on="0"/>
        <pt x="172" y="576" on="0"/>
        <pt x="350" y="631" on="0"/>
        <pt x="481" y="631" on="1"/>
        <pt x="501" y="631" on="1"/>
        <pt x="515" y="421" on="1"/>
        <pt x="493" y="422" on="0"/>
        <pt x="455" y="423" on="0"/>
        <pt x="438" y="423" on="1"/>
        <pt x="383" y="423" on="0"/>
        <pt x="315" y="411" on="0"/>
        <pt x="278" y="385" on="0"/>
        <pt x="266" y="340" on="0"/>
        <pt x="266" y="308" on="1"/>
        <pt x="266" y="258" on="0"/>
        <pt x="302" y="193" on="0"/>
        <pt x="349" y="177" on="1"/>
        <pt x="347" y="211" on="0"/>
        <pt x="343" y="280" on="0"/>
        <pt x="342" y="310" on="1"/>
        <pt x="543" y="310" on="1"/>
        <pt x="543" y="219" on="0"/>
        <pt x="544" y="66" on="0"/>
      </contour>
    </TTGlyph>
    <TTGlyph name="Gdotaccent.sc" xMin="18" yMin="-8" xMax="519" yMax="796">
      <contour>
        <pt x="406" y="611" on="1"/>
        <pt x="166" y="611" on="1"/>
        <pt x="174" y="796" on="1"/>
        <pt x="414" y="796" on="1"/>
      </contour>
      <contour>
        <pt x="519" y="4" on="1"/>
        <pt x="475" y="-2" on="0"/>
        <pt x="395" y="-8" on="0"/>
        <pt x="360" y="-8" on="1"/>
        <pt x="259" y="-8" on="0"/>
        <pt x="125" y="37" on="0"/>
        <pt x="49" y="112" on="0"/>
        <pt x="18" y="212" on="0"/>
        <pt x="18" y="265" on="1"/>
        <pt x="18" y="327" on="0"/>
        <pt x="62" y="438" on="0"/>
        <pt x="163" y="521" on="0"/>
        <pt x="333" y="570" on="0"/>
        <pt x="457" y="570" on="1"/>
        <pt x="478" y="570" on="1"/>
        <pt x="491" y="377" on="1"/>
        <pt x="469" y="378" on="0"/>
        <pt x="430" y="379" on="0"/>
        <pt x="414" y="379" on="1"/>
        <pt x="364" y="379" on="0"/>
        <pt x="303" y="369" on="0"/>
        <pt x="270" y="346" on="0"/>
        <pt x="259" y="306" on="0"/>
        <pt x="259" y="277" on="1"/>
        <pt x="259" y="234" on="0"/>
        <pt x="289" y="179" on="0"/>
        <pt x="329" y="163" on="1"/>
        <pt x="328" y="192" on="0"/>
        <pt x="324" y="253" on="0"/>
        <pt x="323" y="279" on="1"/>
        <pt x="518" y="279" on="1"/>
        <pt x="518" y="196" on="0"/>
        <pt x="519" y="58" on="0"/>
      </contour>
    </TTGlyph>
    <TTGlyph name="H" xMin="44" yMin="0" xMax="629" yMax="620">
      <contour>
        <pt x="374" y="0" on="1"/>
        <pt x="374" y="215" on="1"/>
        <pt x="296" y="215" on="1"/>
        <pt x="296" y="0" on="1"/>
        <pt x="44" y="0" on="1"/>
        <pt x="44" y="620" on="1"/>
        <pt x="296" y="620" on="1"/>
        <pt x="296" y="410" on="1"/>
        <pt x="374" y="410" on="1"/>
        <pt x="374" y="620" on="1"/>
        <pt x="629" y="620" on="1"/>
        <pt x="629" y="0" on="1"/>
      </contour>
    </TTGlyph>
    <TTGlyph name="H.sc" xMin="41" yMin="0" xMax="602" yMax="561">
      <contour>
        <pt x="354" y="0" on="1"/>
        <pt x="354" y="193" on="1"/>
        <pt x="287" y="193" on="1"/>
        <pt x="287" y="0" on="1"/>
        <pt x="41" y="0" on="1"/>
        <pt x="41" y="561" on="1"/>
        <pt x="287" y="561" on="1"/>
        <pt x="287" y="373" on="1"/>
        <pt x="354" y="373" on="1"/>
        <pt x="354" y="561" on="1"/>
        <pt x="602" y="561" on="1"/>
        <pt x="602" y="0" on="1"/>
      </contour>
    </TTGlyph>
    <TTGlyph name="Hbar" xMin="-6" yMin="0" xMax="679" yMax="620">
      <contour>
        <pt x="374" y="361" on="1"/>
        <pt x="374" y="435" on="1"/>
        <pt x="296" y="435" on="1"/>
        <pt x="296" y="361" on="1"/>
      </contour>
      <contour>
        <pt x="374" y="0" on="1"/>
        <pt x="374" y="171" on="1"/>
        <pt x="296" y="171" on="1"/>
        <pt x="296" y="0" on="1"/>
        <pt x="44" y="0" on="1"/>
        <pt x="44" y="430" on="1"/>
        <pt x="-6" y="430" on="1"/>
        <pt x="-6" y="551" on="1"/>
        <pt x="44" y="551" on="1"/>
        <pt x="44" y="620" on="1"/>
        <pt x="296" y="620" on="1"/>
        <pt x="296" y="546" on="1"/>
        <pt x="374" y="546" on="1"/>
        <pt x="374" y="620" on="1"/>
        <pt x="629" y="620" on="1"/>
        <pt x="629" y="551" on="1"/>
        <pt x="679" y="551" on="1"/>
        <pt x="679" y="430" on="1"/>
        <pt x="629" y="430" on="1"/>
        <pt x="629" y="0" on="1"/>
      </contour>
    </TTGlyph>
    <TTGlyph name="Hbar.sc" xMin="-9" yMin="0" xMax="652" yMax="561">
      <contour>
        <pt x="354" y="334" on="1"/>
        <pt x="354" y="394" on="1"/>
        <pt x="287" y="394" on="1"/>
        <pt x="287" y="334" on="1"/>
      </contour>
      <contour>
        <pt x="354" y="0" on="1"/>
        <pt x="354" y="159" on="1"/>
        <pt x="287" y="159" on="1"/>
        <pt x="287" y="0" on="1"/>
        <pt x="41" y="0" on="1"/>
        <pt x="41" y="390" on="1"/>
        <pt x="-9" y="390" on="1"/>
        <pt x="-9" y="491" on="1"/>
        <pt x="41" y="491" on="1"/>
        <pt x="41" y="561" on="1"/>
        <pt x="287" y="561" on="1"/>
        <pt x="287" y="487" on="1"/>
        <pt x="354" y="487" on="1"/>
        <pt x="354" y="561" on="1"/>
        <pt x="602" y="561" on="1"/>
        <pt x="602" y="491" on="1"/>
        <pt x="652" y="491" on="1"/>
        <pt x="652" y="390" on="1"/>
        <pt x="602" y="390" on="1"/>
        <pt x="602" y="0" on="1"/>
      </contour>
    </TTGlyph>
    <TTGlyph name="I" xMin="32" yMin="0" xMax="510" yMax="620">
      <contour>
        <pt x="390" y="449" on="1"/>
        <pt x="390" y="171" on="1"/>
        <pt x="510" y="171" on="1"/>
        <pt x="500" y="0" on="1"/>
        <pt x="32" y="0" on="1"/>
        <pt x="32" y="171" on="1"/>
        <pt x="146" y="171" on="1"/>
        <pt x="146" y="449" on="1"/>
        <pt x="32" y="449" on="1"/>
        <pt x="32" y="620" on="1"/>
        <pt x="504" y="620" on="1"/>
        <pt x="504" y="449" on="1"/>
      </contour>
    </TTGlyph>
    <TTGlyph name="I.sc" xMin="30" yMin="0" xMax="489" yMax="561">
      <contour>
        <pt x="376" y="403" on="1"/>
        <pt x="376" y="158" on="1"/>
        <pt x="489" y="158" on="1"/>
        <pt x="480" y="0" on="1"/>
        <pt x="30" y="0" on="1"/>
        <pt x="30" y="158" on="1"/>
        <pt x="138" y="158" on="1"/>
        <pt x="138" y="403" on="1"/>
        <pt x="30" y="403" on="1"/>
        <pt x="30" y="561" on="1"/>
        <pt x="484" y="561" on="1"/>
        <pt x="484" y="403" on="1"/>
      </contour>
    </TTGlyph>
    <TTGlyph name="Iacute" xMin="32" yMin="0" xMax="510" yMax="915">
      <contour>
        <pt x="109" y="738" on="1"/>
        <pt x="178" y="776" on="0"/>
        <pt x="306" y="864" on="0"/>
        <pt x="365" y="915" on="1"/>
        <pt x="487" y="749" on="1"/>
        <pt x="406" y="701" on="0"/>
        <pt x="230" y="655" on="0"/>
        <pt x="138" y="647" on="1"/>
      </contour>
      <contour>
        <pt x="390" y="449" on="1"/>
        <pt x="390" y="171" on="1"/>
        <pt x="510" y="171" on="1"/>
        <pt x="500" y="0" on="1"/>
        <pt x="32" y="0" on="1"/>
        <pt x="32" y="171" on="1"/>
        <pt x="146" y="171" on="1"/>
        <pt x="146" y="449" on="1"/>
        <pt x="32" y="449" on="1"/>
        <pt x="32" y="620" on="1"/>
        <pt x="504" y="620" on="1"/>
        <pt x="504" y="449" on="1"/>
      </contour>
    </TTGlyph>
    <TTGlyph name="Iacute.sc" xMin="30" yMin="0" xMax="489" yMax="856">
      <contour>
        <pt x="99" y="679" on="1"/>
        <pt x="168" y="717" on="0"/>
        <pt x="296" y="805" on="0"/>
        <pt x="355" y="856" on="1"/>
        <pt x="477" y="690" on="1"/>
        <pt x="396" y="642" on="0"/>
        <pt x="220" y="596" on="0"/>
        <pt x="128" y="588" on="1"/>
      </contour>
      <contour>
        <pt x="376" y="403" on="1"/>
        <pt x="376" y="158" on="1"/>
        <pt x="489" y="158" on="1"/>
        <pt x="480" y="0" on="1"/>
        <pt x="30" y="0" on="1"/>
        <pt x="30" y="158" on="1"/>
        <pt x="138" y="158" on="1"/>
        <pt x="138" y="403" on="1"/>
        <pt x="30" y="403" on="1"/>
        <pt x="30" y="561" on="1"/>
        <pt x="484" y="561" on="1"/>
        <pt x="484" y="403" on="1"/>
      </contour>
    </TTGlyph>
    <TTGlyph name="Ibreve" xMin="32" yMin="0" xMax="510" yMax="888">
      <contour>
        <pt x="265" y="652" on="1"/>
        <pt x="187" y="652" on="0"/>
        <pt x="80" y="749" on="0"/>
        <pt x="48" y="822" on="1"/>
        <pt x="177" y="888" on="1"/>
        <pt x="200" y="858" on="0"/>
        <pt x="253" y="827" on="0"/>
        <pt x="279" y="827" on="1"/>
        <pt x="307" y="827" on="0"/>
        <pt x="357" y="858" on="0"/>
        <pt x="378" y="888" on="1"/>
        <pt x="488" y="841" on="1"/>
        <pt x="472" y="802" on="0"/>
        <pt x="429" y="733" on="0"/>
        <pt x="375" y="682" on="0"/>
        <pt x="306" y="652" on="0"/>
      </contour>
      <contour>
        <pt x="390" y="449" on="1"/>
        <pt x="390" y="171" on="1"/>
        <pt x="510" y="171" on="1"/>
        <pt x="500" y="0" on="1"/>
        <pt x="32" y="0" on="1"/>
        <pt x="32" y="171" on="1"/>
        <pt x="146" y="171" on="1"/>
        <pt x="146" y="449" on="1"/>
        <pt x="32" y="449" on="1"/>
        <pt x="32" y="620" on="1"/>
        <pt x="504" y="620" on="1"/>
        <pt x="504" y="449" on="1"/>
      </contour>
    </TTGlyph>
    <TTGlyph name="Ibreve.sc" xMin="30" yMin="0" xMax="489" yMax="829">
      <contour>
        <pt x="255" y="593" on="1"/>
        <pt x="177" y="593" on="0"/>
        <pt x="70" y="690" on="0"/>
        <pt x="38" y="763" on="1"/>
        <pt x="167" y="829" on="1"/>
        <pt x="190" y="799" on="0"/>
        <pt x="243" y="768" on="0"/>
        <pt x="269" y="768" on="1"/>
        <pt x="297" y="768" on="0"/>
        <pt x="347" y="799" on="0"/>
        <pt x="368" y="829" on="1"/>
        <pt x="478" y="782" on="1"/>
        <pt x="462" y="743" on="0"/>
        <pt x="419" y="674" on="0"/>
        <pt x="365" y="623" on="0"/>
        <pt x="296" y="593" on="0"/>
      </contour>
      <contour>
        <pt x="376" y="403" on="1"/>
        <pt x="376" y="158" on="1"/>
        <pt x="489" y="158" on="1"/>
        <pt x="480" y="0" on="1"/>
        <pt x="30" y="0" on="1"/>
        <pt x="30" y="158" on="1"/>
        <pt x="138" y="158" on="1"/>
        <pt x="138" y="403" on="1"/>
        <pt x="30" y="403" on="1"/>
        <pt x="30" y="561" on="1"/>
        <pt x="484" y="561" on="1"/>
        <pt x="484" y="403" on="1"/>
      </contour>
    </TTGlyph>
    <TTGlyph name="Icircumflex" xMin="32" yMin="0" xMax="510" yMax="894">
      <contour>
        <pt x="371" y="645" on="1"/>
        <pt x="258" y="728" on="1"/>
        <pt x="145" y="645" on="1"/>
        <pt x="58" y="750" on="1"/>
        <pt x="243" y="894" on="1"/>
        <pt x="297" y="894" on="1"/>
        <pt x="478" y="760" on="1"/>
      </contour>
      <contour>
        <pt x="390" y="449" on="1"/>
        <pt x="390" y="171" on="1"/>
        <pt x="510" y="171" on="1"/>
        <pt x="500" y="0" on="1"/>
        <pt x="32" y="0" on="1"/>
        <pt x="32" y="171" on="1"/>
        <pt x="146" y="171" on="1"/>
        <pt x="146" y="449" on="1"/>
        <pt x="32" y="449" on="1"/>
        <pt x="32" y="620" on="1"/>
        <pt x="504" y="620" on="1"/>
        <pt x="504" y="449" on="1"/>
      </contour>
    </TTGlyph>
    <TTGlyph name="Icircumflex.sc" xMin="30" yMin="0" xMax="489" yMax="835">
      <contour>
        <pt x="361" y="586" on="1"/>
        <pt x="248" y="669" on="1"/>
        <pt x="135" y="586" on="1"/>
        <pt x="48" y="691" on="1"/>
        <pt x="233" y="835" on="1"/>
        <pt x="287" y="835" on="1"/>
        <pt x="468" y="701" on="1"/>
      </contour>
      <contour>
        <pt x="376" y="403" on="1"/>
        <pt x="376" y="158" on="1"/>
        <pt x="489" y="158" on="1"/>
        <pt x="480" y="0" on="1"/>
        <pt x="30" y="0" on="1"/>
        <pt x="30" y="158" on="1"/>
        <pt x="138" y="158" on="1"/>
        <pt x="138" y="403" on="1"/>
        <pt x="30" y="403" on="1"/>
        <pt x="30" y="561" on="1"/>
        <pt x="484" y="561" on="1"/>
        <pt x="484" y="403" on="1"/>
      </contour>
    </TTGlyph>
    <TTGlyph name="Idieresis" xMin="32" yMin="0" xMax="510" yMax="852">
      <contour>
        <pt x="499" y="667" on="1"/>
        <pt x="288" y="667" on="1"/>
        <pt x="290" y="852" on="1"/>
        <pt x="502" y="852" on="1"/>
      </contour>
      <contour>
        <pt x="246" y="667" on="1"/>
        <pt x="34" y="667" on="1"/>
        <pt x="37" y="852" on="1"/>
        <pt x="248" y="852" on="1"/>
      </contour>
      <contour>
        <pt x="390" y="449" on="1"/>
        <pt x="390" y="171" on="1"/>
        <pt x="510" y="171" on="1"/>
        <pt x="500" y="0" on="1"/>
        <pt x="32" y="0" on="1"/>
        <pt x="32" y="171" on="1"/>
        <pt x="146" y="171" on="1"/>
        <pt x="146" y="449" on="1"/>
        <pt x="32" y="449" on="1"/>
        <pt x="32" y="620" on="1"/>
        <pt x="504" y="620" on="1"/>
        <pt x="504" y="449" on="1"/>
      </contour>
    </TTGlyph>
    <TTGlyph name="Idieresis.sc" xMin="24" yMin="0" xMax="492" yMax="793">
      <contour>
        <pt x="489" y="608" on="1"/>
        <pt x="278" y="608" on="1"/>
        <pt x="280" y="793" on="1"/>
        <pt x="492" y="793" on="1"/>
      </contour>
      <contour>
        <pt x="236" y="608" on="1"/>
        <pt x="24" y="608" on="1"/>
        <pt x="27" y="793" on="1"/>
        <pt x="238" y="793" on="1"/>
      </contour>
      <contour>
        <pt x="376" y="403" on="1"/>
        <pt x="376" y="158" on="1"/>
        <pt x="489" y="158" on="1"/>
        <pt x="480" y="0" on="1"/>
        <pt x="30" y="0" on="1"/>
        <pt x="30" y="158" on="1"/>
        <pt x="138" y="158" on="1"/>
        <pt x="138" y="403" on="1"/>
        <pt x="30" y="403" on="1"/>
        <pt x="30" y="561" on="1"/>
        <pt x="484" y="561" on="1"/>
        <pt x="484" y="403" on="1"/>
      </contour>
    </TTGlyph>
    <TTGlyph name="Idotaccent" xMin="32" yMin="0" xMax="510" yMax="852">
      <contour>
        <pt x="384" y="667" on="1"/>
        <pt x="144" y="667" on="1"/>
        <pt x="152" y="852" on="1"/>
        <pt x="392" y="852" on="1"/>
      </contour>
      <contour>
        <pt x="390" y="449" on="1"/>
        <pt x="390" y="171" on="1"/>
        <pt x="510" y="171" on="1"/>
        <pt x="500" y="0" on="1"/>
        <pt x="32" y="0" on="1"/>
        <pt x="32" y="171" on="1"/>
        <pt x="146" y="171" on="1"/>
        <pt x="146" y="449" on="1"/>
        <pt x="32" y="449" on="1"/>
        <pt x="32" y="620" on="1"/>
        <pt x="504" y="620" on="1"/>
        <pt x="504" y="449" on="1"/>
      </contour>
    </TTGlyph>
    <TTGlyph name="Idotaccent.sc" xMin="30" yMin="0" xMax="489" yMax="793">
      <contour>
        <pt x="374" y="608" on="1"/>
        <pt x="134" y="608" on="1"/>
        <pt x="142" y="793" on="1"/>
        <pt x="382" y="793" on="1"/>
      </contour>
      <contour>
        <pt x="376" y="403" on="1"/>
        <pt x="376" y="158" on="1"/>
        <pt x="489" y="158" on="1"/>
        <pt x="480" y="0" on="1"/>
        <pt x="30" y="0" on="1"/>
        <pt x="30" y="158" on="1"/>
        <pt x="138" y="158" on="1"/>
        <pt x="138" y="403" on="1"/>
        <pt x="30" y="403" on="1"/>
        <pt x="30" y="561" on="1"/>
        <pt x="484" y="561" on="1"/>
        <pt x="484" y="403" on="1"/>
      </contour>
    </TTGlyph>
    <TTGlyph name="Igrave" xMin="32" yMin="0" xMax="510" yMax="915">
      <contour>
        <pt x="430" y="739" on="1"/>
        <pt x="395" y="647" on="1"/>
        <pt x="305" y="659" on="0"/>
        <pt x="132" y="706" on="0"/>
        <pt x="54" y="750" on="1"/>
        <pt x="168" y="915" on="1"/>
        <pt x="228" y="868" on="0"/>
        <pt x="359" y="780" on="0"/>
      </contour>
      <contour>
        <pt x="390" y="449" on="1"/>
        <pt x="390" y="171" on="1"/>
        <pt x="510" y="171" on="1"/>
        <pt x="500" y="0" on="1"/>
        <pt x="32" y="0" on="1"/>
        <pt x="32" y="171" on="1"/>
        <pt x="146" y="171" on="1"/>
        <pt x="146" y="449" on="1"/>
        <pt x="32" y="449" on="1"/>
        <pt x="32" y="620" on="1"/>
        <pt x="504" y="620" on="1"/>
        <pt x="504" y="449" on="1"/>
      </contour>
    </TTGlyph>
    <TTGlyph name="Igrave.sc" xMin="30" yMin="0" xMax="489" yMax="856">
      <contour>
        <pt x="420" y="680" on="1"/>
        <pt x="385" y="588" on="1"/>
        <pt x="295" y="600" on="0"/>
        <pt x="122" y="647" on="0"/>
        <pt x="44" y="691" on="1"/>
        <pt x="158" y="856" on="1"/>
        <pt x="218" y="809" on="0"/>
        <pt x="349" y="721" on="0"/>
      </contour>
      <contour>
        <pt x="376" y="403" on="1"/>
        <pt x="376" y="158" on="1"/>
        <pt x="489" y="158" on="1"/>
        <pt x="480" y="0" on="1"/>
        <pt x="30" y="0" on="1"/>
        <pt x="30" y="158" on="1"/>
        <pt x="138" y="158" on="1"/>
        <pt x="138" y="403" on="1"/>
        <pt x="30" y="403" on="1"/>
        <pt x="30" y="561" on="1"/>
        <pt x="484" y="561" on="1"/>
        <pt x="484" y="403" on="1"/>
      </contour>
    </TTGlyph>
    <TTGlyph name="Imacron" xMin="32" yMin="0" xMax="510" yMax="852">
      <contour>
        <pt x="468" y="852" on="1"/>
        <pt x="468" y="667" on="1"/>
        <pt x="68" y="667" on="1"/>
        <pt x="68" y="852" on="1"/>
      </contour>
      <contour>
        <pt x="390" y="449" on="1"/>
        <pt x="390" y="171" on="1"/>
        <pt x="510" y="171" on="1"/>
        <pt x="500" y="0" on="1"/>
        <pt x="32" y="0" on="1"/>
        <pt x="32" y="171" on="1"/>
        <pt x="146" y="171" on="1"/>
        <pt x="146" y="449" on="1"/>
        <pt x="32" y="449" on="1"/>
        <pt x="32" y="620" on="1"/>
        <pt x="504" y="620" on="1"/>
        <pt x="504" y="449" on="1"/>
      </contour>
    </TTGlyph>
    <TTGlyph name="Imacron.sc" xMin="30" yMin="0" xMax="489" yMax="793">
      <contour>
        <pt x="458" y="793" on="1"/>
        <pt x="458" y="608" on="1"/>
        <pt x="58" y="608" on="1"/>
        <pt x="58" y="793" on="1"/>
      </contour>
      <contour>
        <pt x="376" y="403" on="1"/>
        <pt x="376" y="158" on="1"/>
        <pt x="489" y="158" on="1"/>
        <pt x="480" y="0" on="1"/>
        <pt x="30" y="0" on="1"/>
        <pt x="30" y="158" on="1"/>
        <pt x="138" y="158" on="1"/>
        <pt x="138" y="403" on="1"/>
        <pt x="30" y="403" on="1"/>
        <pt x="30" y="561" on="1"/>
        <pt x="484" y="561" on="1"/>
        <pt x="484" y="403" on="1"/>
      </contour>
    </TTGlyph>
    <TTGlyph name="Iogonek" xMin="32" yMin="-260" xMax="510" yMax="620">
      <contour>
        <pt x="407" y="-95" on="1"/>
        <pt x="392" y="-260" on="1"/>
        <pt x="311" y="-256" on="0"/>
        <pt x="202" y="-228" on="0"/>
        <pt x="137" y="-190" on="0"/>
        <pt x="110" y="-143" on="0"/>
        <pt x="110" y="-119" on="1"/>
        <pt x="110" y="-85" on="0"/>
        <pt x="156" y="-26" on="0"/>
        <pt x="202" y="0" on="1"/>
        <pt x="32" y="0" on="1"/>
        <pt x="32" y="171" on="1"/>
        <pt x="146" y="171" on="1"/>
        <pt x="146" y="449" on="1"/>
        <pt x="32" y="449" on="1"/>
        <pt x="32" y="620" on="1"/>
        <pt x="504" y="620" on="1"/>
        <pt x="504" y="449" on="1"/>
        <pt x="390" y="449" on="1"/>
        <pt x="390" y="171" on="1"/>
        <pt x="510" y="171" on="1"/>
        <pt x="500" y="0" on="1"/>
        <pt x="394" y="0" on="1"/>
        <pt x="332" y="-21" on="0"/>
        <pt x="290" y="-47" on="0"/>
        <pt x="290" y="-60" on="1"/>
        <pt x="290" y="-75" on="0"/>
        <pt x="344" y="-91" on="0"/>
      </contour>
    </TTGlyph>
    <TTGlyph name="Iogonek.sc" xMin="30" yMin="-260" xMax="489" yMax="561">
      <contour>
        <pt x="377" y="-95" on="1"/>
        <pt x="362" y="-260" on="1"/>
        <pt x="281" y="-256" on="0"/>
        <pt x="172" y="-228" on="0"/>
        <pt x="107" y="-190" on="0"/>
        <pt x="80" y="-143" on="0"/>
        <pt x="80" y="-119" on="1"/>
        <pt x="80" y="-85" on="0"/>
        <pt x="126" y="-26" on="0"/>
        <pt x="172" y="0" on="1"/>
        <pt x="30" y="0" on="1"/>
        <pt x="30" y="158" on="1"/>
        <pt x="138" y="158" on="1"/>
        <pt x="138" y="403" on="1"/>
        <pt x="30" y="403" on="1"/>
        <pt x="30" y="561" on="1"/>
        <pt x="484" y="561" on="1"/>
        <pt x="484" y="403" on="1"/>
        <pt x="376" y="403" on="1"/>
        <pt x="376" y="158" on="1"/>
        <pt x="489" y="158" on="1"/>
        <pt x="480" y="0" on="1"/>
        <pt x="364" y="0" on="1"/>
        <pt x="302" y="-21" on="0"/>
        <pt x="260" y="-47" on="0"/>
        <pt x="260" y="-60" on="1"/>
        <pt x="260" y="-75" on="0"/>
        <pt x="314" y="-91" on="0"/>
      </contour>
    </TTGlyph>
    <TTGlyph name="J" xMin="32" yMin="-7" xMax="469" yMax="620">
      <contour>
        <pt x="50" y="620" on="1"/>
        <pt x="469" y="620" on="1"/>
        <pt x="469" y="232" on="1"/>
        <pt x="469" y="173" on="0"/>
        <pt x="429" y="83" on="0"/>
        <pt x="336" y="23" on="0"/>
        <pt x="182" y="-7" on="0"/>
        <pt x="70" y="-7" on="1"/>
        <pt x="32" y="-7" on="1"/>
        <pt x="32" y="178" on="1"/>
        <pt x="86" y="178" on="1"/>
        <pt x="133" y="178" on="0"/>
        <pt x="185" y="182" on="0"/>
        <pt x="209" y="192" on="0"/>
        <pt x="214" y="211" on="0"/>
        <pt x="214" y="226" on="1"/>
        <pt x="214" y="432" on="1"/>
        <pt x="50" y="432" on="1"/>
      </contour>
    </TTGlyph>
    <TTGlyph name="J.sc" xMin="31" yMin="-8" xMax="451" yMax="561">
      <contour>
        <pt x="47" y="561" on="1"/>
        <pt x="451" y="561" on="1"/>
        <pt x="451" y="208" on="1"/>
        <pt x="451" y="155" on="0"/>
        <pt x="412" y="73" on="0"/>
        <pt x="323" y="19" on="0"/>
        <pt x="175" y="-8" on="0"/>
        <pt x="66" y="-8" on="1"/>
        <pt x="31" y="-8" on="1"/>
        <pt x="31" y="162" on="1"/>
        <pt x="69" y="162" on="1"/>
        <pt x="118" y="162" on="0"/>
        <pt x="172" y="165" on="0"/>
        <pt x="198" y="174" on="0"/>
        <pt x="203" y="190" on="0"/>
        <pt x="203" y="203" on="1"/>
        <pt x="203" y="388" on="1"/>
        <pt x="47" y="388" on="1"/>
      </contour>
    </TTGlyph>
    <TTGlyph name="K" xMin="44" yMin="-4" xMax="660" yMax="620">
      <contour>
        <pt x="397" y="-4" on="1"/>
        <pt x="297" y="215" on="1"/>
        <pt x="288" y="215" on="1"/>
        <pt x="288" y="0" on="1"/>
        <pt x="44" y="0" on="1"/>
        <pt x="44" y="620" on="1"/>
        <pt x="288" y="620" on="1"/>
        <pt x="288" y="405" on="1"/>
        <pt x="302" y="405" on="1"/>
        <pt x="393" y="620" on="1"/>
        <pt x="645" y="620" on="1"/>
        <pt x="497" y="322" on="1"/>
        <pt x="660" y="4" on="1"/>
      </contour>
    </TTGlyph>
    <TTGlyph name="K.sc" xMin="41" yMin="-3" xMax="632" yMax="561">
      <contour>
        <pt x="377" y="-3" on="1"/>
        <pt x="284" y="193" on="1"/>
        <pt x="279" y="193" on="1"/>
        <pt x="279" y="0" on="1"/>
        <pt x="41" y="0" on="1"/>
        <pt x="41" y="561" on="1"/>
        <pt x="279" y="561" on="1"/>
        <pt x="279" y="368" on="1"/>
        <pt x="289" y="368" on="1"/>
        <pt x="371" y="561" on="1"/>
        <pt x="616" y="561" on="1"/>
        <pt x="480" y="289" on="1"/>
        <pt x="632" y="3" on="1"/>
      </contour>
    </TTGlyph>
    <TTGlyph name="Kcommaaccent" xMin="44" yMin="-334" xMax="660" yMax="620">
      <contour>
        <pt x="397" y="-4" on="1"/>
        <pt x="297" y="215" on="1"/>
        <pt x="288" y="215" on="1"/>
        <pt x="288" y="0" on="1"/>
        <pt x="44" y="0" on="1"/>
        <pt x="44" y="620" on="1"/>
        <pt x="288" y="620" on="1"/>
        <pt x="288" y="405" on="1"/>
        <pt x="302" y="405" on="1"/>
        <pt x="393" y="620" on="1"/>
        <pt x="645" y="620" on="1"/>
        <pt x="497" y="322" on="1"/>
        <pt x="660" y="4" on="1"/>
      </contour>
      <contour>
        <pt x="203" y="-294" on="1"/>
        <pt x="208" y="-262" on="0"/>
        <pt x="214" y="-202" on="0"/>
        <pt x="214" y="-171" on="1"/>
        <pt x="214" y="-144" on="0"/>
        <pt x="209" y="-88" on="0"/>
        <pt x="203" y="-56" on="1"/>
        <pt x="443" y="-49" on="1"/>
        <pt x="443" y="-54" on="1"/>
        <pt x="443" y="-141" on="0"/>
        <pt x="383" y="-274" on="0"/>
        <pt x="301" y="-334" on="1"/>
      </contour>
    </TTGlyph>
    <TTGlyph name="Kcommaaccent.sc" xMin="41" yMin="-333" xMax="632" yMax="561">
      <contour>
        <pt x="377" y="-3" on="1"/>
        <pt x="284" y="193" on="1"/>
        <pt x="279" y="193" on="1"/>
        <pt x="279" y="0" on="1"/>
        <pt x="41" y="0" on="1"/>
        <pt x="41" y="561" on="1"/>
        <pt x="279" y="561" on="1"/>
        <pt x="279" y="368" on="1"/>
        <pt x="289" y="368" on="1"/>
        <pt x="371" y="561" on="1"/>
        <pt x="616" y="561" on="1"/>
        <pt x="480" y="289" on="1"/>
        <pt x="632" y="3" on="1"/>
      </contour>
      <contour>
        <pt x="181" y="-293" on="1"/>
        <pt x="186" y="-261" on="0"/>
        <pt x="192" y="-201" on="0"/>
        <pt x="192" y="-170" on="1"/>
        <pt x="192" y="-143" on="0"/>
        <pt x="187" y="-87" on="0"/>
        <pt x="181" y="-55" on="1"/>
        <pt x="421" y="-48" on="1"/>
        <pt x="421" y="-53" on="1"/>
        <pt x="421" y="-140" on="0"/>
        <pt x="361" y="-273" on="0"/>
        <pt x="279" y="-333" on="1"/>
      </contour>
    </TTGlyph>
    <TTGlyph name="L" xMin="44" yMin="0" xMax="503" yMax="620">
      <contour>
        <pt x="492" y="0" on="1"/>
        <pt x="44" y="0" on="1"/>
        <pt x="44" y="620" on="1"/>
        <pt x="296" y="620" on="1"/>
        <pt x="296" y="192" on="1"/>
        <pt x="503" y="192" on="1"/>
      </contour>
    </TTGlyph>
    <TTGlyph name="L.sc" xMin="41" yMin="0" xMax="482" yMax="561">
      <contour>
        <pt x="472" y="0" on="1"/>
        <pt x="41" y="0" on="1"/>
        <pt x="41" y="561" on="1"/>
        <pt x="287" y="561" on="1"/>
        <pt x="287" y="177" on="1"/>
        <pt x="482" y="177" on="1"/>
      </contour>
    </TTGlyph>
    <TTGlyph name="Lacute" xMin="44" yMin="0" xMax="503" yMax="915">
      <contour>
        <pt x="101" y="738" on="1"/>
        <pt x="170" y="776" on="0"/>
        <pt x="298" y="864" on="0"/>
        <pt x="357" y="915" on="1"/>
        <pt x="479" y="749" on="1"/>
        <pt x="398" y="701" on="0"/>
        <pt x="222" y="655" on="0"/>
        <pt x="130" y="647" on="1"/>
      </contour>
      <contour>
        <pt x="492" y="0" on="1"/>
        <pt x="44" y="0" on="1"/>
        <pt x="44" y="620" on="1"/>
        <pt x="296" y="620" on="1"/>
        <pt x="296" y="192" on="1"/>
        <pt x="503" y="192" on="1"/>
      </contour>
    </TTGlyph>
    <TTGlyph name="Lacute.sc" xMin="41" yMin="0" xMax="482" yMax="856">
      <contour>
        <pt x="80" y="679" on="1"/>
        <pt x="149" y="717" on="0"/>
        <pt x="277" y="805" on="0"/>
        <pt x="336" y="856" on="1"/>
        <pt x="458" y="690" on="1"/>
        <pt x="377" y="642" on="0"/>
        <pt x="201" y="596" on="0"/>
        <pt x="109" y="588" on="1"/>
      </contour>
      <contour>
        <pt x="472" y="0" on="1"/>
        <pt x="41" y="0" on="1"/>
        <pt x="41" y="561" on="1"/>
        <pt x="287" y="561" on="1"/>
        <pt x="287" y="177" on="1"/>
        <pt x="482" y="177" on="1"/>
      </contour>
    </TTGlyph>
    <TTGlyph name="Lcaron" xMin="44" yMin="0" xMax="539" yMax="649">
      <contour>
        <pt x="341" y="412" on="1"/>
        <pt x="345" y="443" on="0"/>
        <pt x="349" y="505" on="0"/>
        <pt x="349" y="535" on="1"/>
        <pt x="349" y="563" on="0"/>
        <pt x="345" y="617" on="0"/>
        <pt x="341" y="645" on="1"/>
        <pt x="539" y="649" on="1"/>
        <pt x="532" y="589" on="0"/>
        <pt x="483" y="458" on="0"/>
        <pt x="448" y="400" on="1"/>
      </contour>
      <contour>
        <pt x="492" y="0" on="1"/>
        <pt x="44" y="0" on="1"/>
        <pt x="44" y="620" on="1"/>
        <pt x="296" y="620" on="1"/>
        <pt x="296" y="192" on="1"/>
        <pt x="503" y="192" on="1"/>
      </contour>
    </TTGlyph>
    <TTGlyph name="Lcaron.sc" xMin="41" yMin="0" xMax="523" yMax="599">
      <contour>
        <pt x="325" y="362" on="1"/>
        <pt x="329" y="393" on="0"/>
        <pt x="333" y="455" on="0"/>
        <pt x="333" y="485" on="1"/>
        <pt x="333" y="513" on="0"/>
        <pt x="329" y="567" on="0"/>
        <pt x="325" y="595" on="1"/>
        <pt x="523" y="599" on="1"/>
        <pt x="516" y="539" on="0"/>
        <pt x="467" y="408" on="0"/>
        <pt x="432" y="350" on="1"/>
      </contour>
      <contour>
        <pt x="472" y="0" on="1"/>
        <pt x="41" y="0" on="1"/>
        <pt x="41" y="561" on="1"/>
        <pt x="287" y="561" on="1"/>
        <pt x="287" y="177" on="1"/>
        <pt x="482" y="177" on="1"/>
      </contour>
    </TTGlyph>
    <TTGlyph name="Lcommaaccent" xMin="44" yMin="-330" xMax="503" yMax="620">
      <contour>
        <pt x="492" y="0" on="1"/>
        <pt x="44" y="0" on="1"/>
        <pt x="44" y="620" on="1"/>
        <pt x="296" y="620" on="1"/>
        <pt x="296" y="192" on="1"/>
        <pt x="503" y="192" on="1"/>
      </contour>
      <contour>
        <pt x="140" y="-290" on="1"/>
        <pt x="145" y="-258" on="0"/>
        <pt x="151" y="-198" on="0"/>
        <pt x="151" y="-167" on="1"/>
        <pt x="151" y="-140" on="0"/>
        <pt x="146" y="-84" on="0"/>
        <pt x="140" y="-52" on="1"/>
        <pt x="380" y="-45" on="1"/>
        <pt x="380" y="-50" on="1"/>
        <pt x="380" y="-137" on="0"/>
        <pt x="320" y="-270" on="0"/>
        <pt x="238" y="-330" on="1"/>
      </contour>
    </TTGlyph>
    <TTGlyph name="Lcommaaccent.sc" xMin="41" yMin="-330" xMax="482" yMax="561">
      <contour>
        <pt x="472" y="0" on="1"/>
        <pt x="41" y="0" on="1"/>
        <pt x="41" y="561" on="1"/>
        <pt x="287" y="561" on="1"/>
        <pt x="287" y="177" on="1"/>
        <pt x="482" y="177" on="1"/>
      </contour>
      <contour>
        <pt x="119" y="-290" on="1"/>
        <pt x="124" y="-258" on="0"/>
        <pt x="130" y="-198" on="0"/>
        <pt x="130" y="-167" on="1"/>
        <pt x="130" y="-140" on="0"/>
        <pt x="125" y="-84" on="0"/>
        <pt x="119" y="-52" on="1"/>
        <pt x="359" y="-45" on="1"/>
        <pt x="359" y="-50" on="1"/>
        <pt x="359" y="-137" on="0"/>
        <pt x="299" y="-270" on="0"/>
        <pt x="217" y="-330" on="1"/>
      </contour>
    </TTGlyph>
    <TTGlyph name="Ldot" xMin="44" yMin="0" xMax="515" yMax="620">
      <contour>
        <pt x="492" y="0" on="1"/>
        <pt x="44" y="0" on="1"/>
        <pt x="44" y="620" on="1"/>
        <pt x="296" y="620" on="1"/>
        <pt x="296" y="192" on="1"/>
        <pt x="503" y="192" on="1"/>
      </contour>
      <contour>
        <pt x="506" y="270" on="1"/>
        <pt x="332" y="270" on="1"/>
        <pt x="342" y="463" on="1"/>
        <pt x="515" y="463" on="1"/>
      </contour>
    </TTGlyph>
    <TTGlyph name="Ldot.sc" xMin="41" yMin="0" xMax="494" yMax="561">
      <contour>
        <pt x="472" y="0" on="1"/>
        <pt x="41" y="0" on="1"/>
        <pt x="41" y="561" on="1"/>
        <pt x="287" y="561" on="1"/>
        <pt x="287" y="177" on="1"/>
        <pt x="482" y="177" on="1"/>
      </contour>
      <contour>
        <pt x="485" y="260" on="1"/>
        <pt x="324" y="260" on="1"/>
        <pt x="334" y="443" on="1"/>
        <pt x="494" y="443" on="1"/>
      </contour>
    </TTGlyph>
    <TTGlyph name="Lslash" xMin="-30" yMin="0" xMax="503" yMax="620">
      <contour>
        <pt x="492" y="0" on="1"/>
        <pt x="44" y="0" on="1"/>
        <pt x="44" y="226" on="1"/>
        <pt x="-2" y="207" on="1"/>
        <pt x="-30" y="325" on="1"/>
        <pt x="44" y="356" on="1"/>
        <pt x="44" y="620" on="1"/>
        <pt x="296" y="620" on="1"/>
        <pt x="296" y="460" on="1"/>
        <pt x="377" y="494" on="1"/>
        <pt x="405" y="376" on="1"/>
        <pt x="296" y="331" on="1"/>
        <pt x="296" y="192" on="1"/>
        <pt x="503" y="192" on="1"/>
      </contour>
    </TTGlyph>
    <TTGlyph name="Lslash.sc" xMin="-27" yMin="0" xMax="482" yMax="561">
      <contour>
        <pt x="472" y="0" on="1"/>
        <pt x="41" y="0" on="1"/>
        <pt x="41" y="209" on="1"/>
        <pt x="2" y="193" on="1"/>
        <pt x="-27" y="300" on="1"/>
        <pt x="41" y="327" on="1"/>
        <pt x="41" y="561" on="1"/>
        <pt x="287" y="561" on="1"/>
        <pt x="287" y="426" on="1"/>
        <pt x="346" y="450" on="1"/>
        <pt x="375" y="343" on="1"/>
        <pt x="287" y="308" on="1"/>
        <pt x="287" y="177" on="1"/>
        <pt x="482" y="177" on="1"/>
      </contour>
    </TTGlyph>
    <TTGlyph name="M" xMin="43" yMin="0" xMax="695" yMax="620">
      <contour>
        <pt x="451" y="620" on="1"/>
        <pt x="693" y="620" on="1"/>
        <pt x="695" y="0" on="1"/>
        <pt x="475" y="0" on="1"/>
        <pt x="488" y="249" on="1"/>
        <pt x="482" y="249" on="1"/>
        <pt x="413" y="47" on="1"/>
        <pt x="330" y="48" on="1"/>
        <pt x="261" y="249" on="1"/>
        <pt x="255" y="249" on="1"/>
        <pt x="268" y="0" on="1"/>
        <pt x="43" y="0" on="1"/>
        <pt x="43" y="620" on="1"/>
        <pt x="298" y="620" on="1"/>
        <pt x="372" y="411" on="1"/>
        <pt x="376" y="411" on="1"/>
      </contour>
    </TTGlyph>
    <TTGlyph name="M.sc" xMin="41" yMin="0" xMax="658" yMax="561">
      <contour>
        <pt x="314" y="44" on="1"/>
        <pt x="253" y="213" on="1"/>
        <pt x="249" y="213" on="1"/>
        <pt x="261" y="0" on="1"/>
        <pt x="41" y="0" on="1"/>
        <pt x="41" y="561" on="1"/>
        <pt x="288" y="561" on="1"/>
        <pt x="355" y="380" on="1"/>
        <pt x="359" y="380" on="1"/>
        <pt x="425" y="561" on="1"/>
        <pt x="658" y="561" on="1"/>
        <pt x="658" y="0" on="1"/>
        <pt x="445" y="0" on="1"/>
        <pt x="456" y="214" on="1"/>
        <pt x="452" y="214" on="1"/>
        <pt x="391" y="43" on="1"/>
      </contour>
    </TTGlyph>
    <TTGlyph name="N" xMin="44" yMin="0" xMax="619" yMax="620">
      <contour>
        <pt x="382" y="0" on="1"/>
        <pt x="276" y="209" on="1"/>
        <pt x="272" y="209" on="1"/>
        <pt x="273" y="0" on="1"/>
        <pt x="44" y="0" on="1"/>
        <pt x="44" y="620" on="1"/>
        <pt x="266" y="620" on="1"/>
        <pt x="386" y="389" on="1"/>
        <pt x="390" y="389" on="1"/>
        <pt x="389" y="620" on="1"/>
        <pt x="619" y="620" on="1"/>
        <pt x="619" y="0" on="1"/>
      </contour>
    </TTGlyph>
    <TTGlyph name="N.sc" xMin="41" yMin="0" xMax="573" yMax="561">
      <contour>
        <pt x="352" y="0" on="1"/>
        <pt x="259" y="179" on="1"/>
        <pt x="254" y="179" on="1"/>
        <pt x="255" y="0" on="1"/>
        <pt x="41" y="0" on="1"/>
        <pt x="41" y="561" on="1"/>
        <pt x="245" y="561" on="1"/>
        <pt x="355" y="360" on="1"/>
        <pt x="360" y="360" on="1"/>
        <pt x="359" y="561" on="1"/>
        <pt x="573" y="561" on="1"/>
        <pt x="573" y="0" on="1"/>
      </contour>
    </TTGlyph>
    <TTGlyph name="Nacute" xMin="44" yMin="0" xMax="619" yMax="915">
      <contour>
        <pt x="181" y="738" on="1"/>
        <pt x="250" y="776" on="0"/>
        <pt x="378" y="864" on="0"/>
        <pt x="437" y="915" on="1"/>
        <pt x="559" y="749" on="1"/>
        <pt x="478" y="701" on="0"/>
        <pt x="302" y="655" on="0"/>
        <pt x="210" y="647" on="1"/>
      </contour>
      <contour>
        <pt x="382" y="0" on="1"/>
        <pt x="276" y="209" on="1"/>
        <pt x="272" y="209" on="1"/>
        <pt x="273" y="0" on="1"/>
        <pt x="44" y="0" on="1"/>
        <pt x="44" y="620" on="1"/>
        <pt x="266" y="620" on="1"/>
        <pt x="386" y="389" on="1"/>
        <pt x="390" y="389" on="1"/>
        <pt x="389" y="620" on="1"/>
        <pt x="619" y="620" on="1"/>
        <pt x="619" y="0" on="1"/>
      </contour>
    </TTGlyph>
    <TTGlyph name="Nacute.sc" xMin="41" yMin="0" xMax="573" yMax="856">
      <contour>
        <pt x="154" y="679" on="1"/>
        <pt x="223" y="717" on="0"/>
        <pt x="351" y="805" on="0"/>
        <pt x="410" y="856" on="1"/>
        <pt x="532" y="690" on="1"/>
        <pt x="451" y="642" on="0"/>
        <pt x="275" y="596" on="0"/>
        <pt x="183" y="588" on="1"/>
      </contour>
      <contour>
        <pt x="352" y="0" on="1"/>
        <pt x="259" y="179" on="1"/>
        <pt x="254" y="179" on="1"/>
        <pt x="255" y="0" on="1"/>
        <pt x="41" y="0" on="1"/>
        <pt x="41" y="561" on="1"/>
        <pt x="245" y="561" on="1"/>
        <pt x="355" y="360" on="1"/>
        <pt x="360" y="360" on="1"/>
        <pt x="359" y="561" on="1"/>
        <pt x="573" y="561" on="1"/>
        <pt x="573" y="0" on="1"/>
      </contour>
    </TTGlyph>
    <TTGlyph name="Ncaron" xMin="44" yMin="0" xMax="619" yMax="897">
      <contour>
        <pt x="365" y="648" on="1"/>
        <pt x="311" y="648" on="1"/>
        <pt x="130" y="782" on="1"/>
        <pt x="237" y="897" on="1"/>
        <pt x="350" y="814" on="1"/>
        <pt x="463" y="897" on="1"/>
        <pt x="550" y="792" on="1"/>
      </contour>
      <contour>
        <pt x="382" y="0" on="1"/>
        <pt x="276" y="209" on="1"/>
        <pt x="272" y="209" on="1"/>
        <pt x="273" y="0" on="1"/>
        <pt x="44" y="0" on="1"/>
        <pt x="44" y="620" on="1"/>
        <pt x="266" y="620" on="1"/>
        <pt x="386" y="389" on="1"/>
        <pt x="390" y="389" on="1"/>
        <pt x="389" y="620" on="1"/>
        <pt x="619" y="620" on="1"/>
        <pt x="619" y="0" on="1"/>
      </contour>
    </TTGlyph>
    <TTGlyph name="Ncaron.sc" xMin="41" yMin="0" xMax="573" yMax="838">
      <contour>
        <pt x="338" y="589" on="1"/>
        <pt x="284" y="589" on="1"/>
        <pt x="103" y="723" on="1"/>
        <pt x="210" y="838" on="1"/>
        <pt x="323" y="755" on="1"/>
        <pt x="436" y="838" on="1"/>
        <pt x="523" y="733" on="1"/>
      </contour>
      <contour>
        <pt x="352" y="0" on="1"/>
        <pt x="259" y="179" on="1"/>
        <pt x="254" y="179" on="1"/>
        <pt x="255" y="0" on="1"/>
        <pt x="41" y="0" on="1"/>
        <pt x="41" y="561" on="1"/>
        <pt x="245" y="561" on="1"/>
        <pt x="355" y="360" on="1"/>
        <pt x="360" y="360" on="1"/>
        <pt x="359" y="561" on="1"/>
        <pt x="573" y="561" on="1"/>
        <pt x="573" y="0" on="1"/>
      </contour>
    </TTGlyph>
    <TTGlyph name="Ncommaaccent" xMin="44" yMin="-330" xMax="619" yMax="620">
      <contour>
        <pt x="382" y="0" on="1"/>
        <pt x="276" y="209" on="1"/>
        <pt x="272" y="209" on="1"/>
        <pt x="273" y="0" on="1"/>
        <pt x="44" y="0" on="1"/>
        <pt x="44" y="620" on="1"/>
        <pt x="266" y="620" on="1"/>
        <pt x="386" y="389" on="1"/>
        <pt x="390" y="389" on="1"/>
        <pt x="389" y="620" on="1"/>
        <pt x="619" y="620" on="1"/>
        <pt x="619" y="0" on="1"/>
      </contour>
      <contour>
        <pt x="220" y="-290" on="1"/>
        <pt x="225" y="-258" on="0"/>
        <pt x="231" y="-198" on="0"/>
        <pt x="231" y="-167" on="1"/>
        <pt x="231" y="-140" on="0"/>
        <pt x="226" y="-84" on="0"/>
        <pt x="220" y="-52" on="1"/>
        <pt x="460" y="-45" on="1"/>
        <pt x="460" y="-50" on="1"/>
        <pt x="460" y="-137" on="0"/>
        <pt x="400" y="-270" on="0"/>
        <pt x="318" y="-330" on="1"/>
      </contour>
    </TTGlyph>
    <TTGlyph name="Ncommaaccent.sc" xMin="41" yMin="-330" xMax="573" yMax="561">
      <contour>
        <pt x="352" y="0" on="1"/>
        <pt x="259" y="179" on="1"/>
        <pt x="254" y="179" on="1"/>
        <pt x="255" y="0" on="1"/>
        <pt x="41" y="0" on="1"/>
        <pt x="41" y="561" on="1"/>
        <pt x="245" y="561" on="1"/>
        <pt x="355" y="360" on="1"/>
        <pt x="360" y="360" on="1"/>
        <pt x="359" y="561" on="1"/>
        <pt x="573" y="561" on="1"/>
        <pt x="573" y="0" on="1"/>
      </contour>
      <contour>
        <pt x="193" y="-290" on="1"/>
        <pt x="198" y="-258" on="0"/>
        <pt x="204" y="-198" on="0"/>
        <pt x="204" y="-167" on="1"/>
        <pt x="204" y="-140" on="0"/>
        <pt x="199" y="-84" on="0"/>
        <pt x="193" y="-52" on="1"/>
        <pt x="433" y="-45" on="1"/>
        <pt x="433" y="-50" on="1"/>
        <pt x="433" y="-137" on="0"/>
        <pt x="373" y="-270" on="0"/>
        <pt x="291" y="-330" on="1"/>
      </contour>
    </TTGlyph>
    <TTGlyph name="Ntilde" xMin="44" yMin="0" xMax="619" yMax="881">
      <contour>
        <pt x="432" y="656" on="1"/>
        <pt x="406" y="656" on="0"/>
        <pt x="359" y="672" on="0"/>
        <pt x="319" y="692" on="0"/>
        <pt x="284" y="708" on="0"/>
        <pt x="271" y="708" on="1"/>
        <pt x="258" y="708" on="0"/>
        <pt x="237" y="685" on="0"/>
        <pt x="223" y="657" on="1"/>
        <pt x="113" y="694" on="1"/>
        <pt x="133" y="772" on="0"/>
        <pt x="208" y="875" on="0"/>
        <pt x="269" y="875" on="1"/>
        <pt x="294" y="875" on="0"/>
        <pt x="340" y="858" on="0"/>
        <pt x="380" y="839" on="0"/>
        <pt x="414" y="822" on="0"/>
        <pt x="427" y="822" on="1"/>
        <pt x="440" y="822" on="0"/>
        <pt x="463" y="847" on="0"/>
        <pt x="481" y="881" on="1"/>
        <pt x="591" y="845" on="1"/>
        <pt x="569" y="763" on="0"/>
        <pt x="493" y="656" on="0"/>
      </contour>
      <contour>
        <pt x="382" y="0" on="1"/>
        <pt x="276" y="209" on="1"/>
        <pt x="272" y="209" on="1"/>
        <pt x="273" y="0" on="1"/>
        <pt x="44" y="0" on="1"/>
        <pt x="44" y="620" on="1"/>
        <pt x="266" y="620" on="1"/>
        <pt x="386" y="389" on="1"/>
        <pt x="390" y="389" on="1"/>
        <pt x="389" y="620" on="1"/>
        <pt x="619" y="620" on="1"/>
        <pt x="619" y="0" on="1"/>
      </contour>
    </TTGlyph>
    <TTGlyph name="Ntilde.sc" xMin="41" yMin="0" xMax="573" yMax="822">
      <contour>
        <pt x="405" y="597" on="1"/>
        <pt x="379" y="597" on="0"/>
        <pt x="332" y="613" on="0"/>
        <pt x="292" y="633" on="0"/>
        <pt x="257" y="649" on="0"/>
        <pt x="244" y="649" on="1"/>
        <pt x="231" y="649" on="0"/>
        <pt x="210" y="626" on="0"/>
        <pt x="196" y="598" on="1"/>
        <pt x="86" y="635" on="1"/>
        <pt x="106" y="713" on="0"/>
        <pt x="181" y="816" on="0"/>
        <pt x="242" y="816" on="1"/>
        <pt x="267" y="816" on="0"/>
        <pt x="313" y="799" on="0"/>
        <pt x="353" y="780" on="0"/>
        <pt x="387" y="763" on="0"/>
        <pt x="400" y="763" on="1"/>
        <pt x="413" y="763" on="0"/>
        <pt x="436" y="788" on="0"/>
        <pt x="454" y="822" on="1"/>
        <pt x="564" y="786" on="1"/>
        <pt x="542" y="704" on="0"/>
        <pt x="466" y="597" on="0"/>
      </contour>
      <contour>
        <pt x="352" y="0" on="1"/>
        <pt x="259" y="179" on="1"/>
        <pt x="254" y="179" on="1"/>
        <pt x="255" y="0" on="1"/>
        <pt x="41" y="0" on="1"/>
        <pt x="41" y="561" on="1"/>
        <pt x="245" y="561" on="1"/>
        <pt x="355" y="360" on="1"/>
        <pt x="360" y="360" on="1"/>
        <pt x="359" y="561" on="1"/>
        <pt x="573" y="561" on="1"/>
        <pt x="573" y="0" on="1"/>
      </contour>
    </TTGlyph>
    <TTGlyph name="O" xMin="19" yMin="-14" xMax="636" yMax="634">
      <contour>
        <pt x="306" y="-14" on="1"/>
        <pt x="244" y="-14" on="0"/>
        <pt x="138" y="28" on="0"/>
        <pt x="62" y="106" on="0"/>
        <pt x="19" y="218" on="0"/>
        <pt x="19" y="288" on="1"/>
        <pt x="19" y="369" on="0"/>
        <pt x="71" y="498" on="0"/>
        <pt x="160" y="587" on="0"/>
        <pt x="281" y="634" on="0"/>
        <pt x="349" y="634" on="1"/>
        <pt x="411" y="634" on="0"/>
        <pt x="517" y="592" on="0"/>
        <pt x="593" y="514" on="0"/>
        <pt x="636" y="402" on="0"/>
        <pt x="636" y="332" on="1"/>
        <pt x="636" y="251" on="0"/>
        <pt x="584" y="121" on="0"/>
        <pt x="494" y="33" on="0"/>
        <pt x="374" y="-14" on="0"/>
      </contour>
      <contour>
        <pt x="324" y="436" on="1"/>
        <pt x="300" y="436" on="0"/>
        <pt x="276" y="375" on="0"/>
        <pt x="276" y="316" on="1"/>
        <pt x="276" y="254" on="0"/>
        <pt x="306" y="185" on="0"/>
        <pt x="331" y="185" on="1"/>
        <pt x="354" y="185" on="0"/>
        <pt x="380" y="245" on="0"/>
        <pt x="380" y="304" on="1"/>
        <pt x="380" y="366" on="0"/>
        <pt x="349" y="436" on="0"/>
      </contour>
    </TTGlyph>
    <TTGlyph name="O.sc" xMin="18" yMin="-14" xMax="608" yMax="575">
      <contour>
        <pt x="293" y="-14" on="1"/>
        <pt x="233" y="-14" on="0"/>
        <pt x="132" y="24" on="0"/>
        <pt x="59" y="95" on="0"/>
        <pt x="18" y="197" on="0"/>
        <pt x="18" y="260" on="1"/>
        <pt x="18" y="334" on="0"/>
        <pt x="68" y="451" on="0"/>
        <pt x="153" y="532" on="0"/>
        <pt x="268" y="575" on="0"/>
        <pt x="333" y="575" on="1"/>
        <pt x="392" y="575" on="0"/>
        <pt x="494" y="537" on="0"/>
        <pt x="567" y="466" on="0"/>
        <pt x="608" y="364" on="0"/>
        <pt x="608" y="301" on="1"/>
        <pt x="608" y="227" on="0"/>
        <pt x="558" y="109" on="0"/>
        <pt x="473" y="29" on="0"/>
        <pt x="358" y="-14" on="0"/>
      </contour>
      <contour>
        <pt x="310" y="393" on="1"/>
        <pt x="290" y="393" on="0"/>
        <pt x="269" y="338" on="0"/>
        <pt x="269" y="286" on="1"/>
        <pt x="269" y="231" on="0"/>
        <pt x="294" y="170" on="0"/>
        <pt x="316" y="170" on="1"/>
        <pt x="335" y="170" on="0"/>
        <pt x="359" y="223" on="0"/>
        <pt x="359" y="276" on="1"/>
        <pt x="359" y="330" on="0"/>
        <pt x="331" y="393" on="0"/>
      </contour>
    </TTGlyph>
    <TTGlyph name="OE" xMin="19" yMin="0" xMax="803" yMax="620">
      <contour>
        <pt x="260" y="309" on="1"/>
        <pt x="260" y="237" on="0"/>
        <pt x="307" y="187" on="0"/>
        <pt x="351" y="184" on="1"/>
        <pt x="351" y="436" on="1"/>
        <pt x="305" y="433" on="0"/>
        <pt x="260" y="381" on="0"/>
      </contour>
      <contour>
        <pt x="803" y="185" on="1"/>
        <pt x="792" y="0" on="1"/>
        <pt x="421" y="0" on="1"/>
        <pt x="324" y="0" on="0"/>
        <pt x="173" y="27" on="0"/>
        <pt x="72" y="94" on="0"/>
        <pt x="19" y="207" on="0"/>
        <pt x="19" y="292" on="1"/>
        <pt x="19" y="375" on="0"/>
        <pt x="77" y="499" on="0"/>
        <pt x="181" y="580" on="0"/>
        <pt x="330" y="620" on="0"/>
        <pt x="421" y="620" on="1"/>
        <pt x="794" y="620" on="1"/>
        <pt x="794" y="435" on="1"/>
        <pt x="581" y="435" on="1"/>
        <pt x="581" y="379" on="1"/>
        <pt x="743" y="379" on="1"/>
        <pt x="743" y="242" on="1"/>
        <pt x="581" y="242" on="1"/>
        <pt x="581" y="185" on="1"/>
      </contour>
    </TTGlyph>
    <TTGlyph name="OE.sc" xMin="18" yMin="0" xMax="761" yMax="561">
      <contour>
        <pt x="253" y="281" on="1"/>
        <pt x="253" y="218" on="0"/>
        <pt x="297" y="169" on="0"/>
        <pt x="331" y="169" on="1"/>
        <pt x="331" y="392" on="1"/>
        <pt x="291" y="392" on="0"/>
        <pt x="253" y="344" on="0"/>
      </contour>
      <contour>
        <pt x="761" y="170" on="1"/>
        <pt x="750" y="0" on="1"/>
        <pt x="405" y="0" on="1"/>
        <pt x="312" y="0" on="0"/>
        <pt x="167" y="25" on="0"/>
        <pt x="69" y="85" on="0"/>
        <pt x="18" y="188" on="0"/>
        <pt x="18" y="265" on="1"/>
        <pt x="18" y="412" on="0"/>
        <pt x="224" y="561" on="0"/>
        <pt x="405" y="561" on="1"/>
        <pt x="752" y="561" on="1"/>
        <pt x="752" y="391" on="1"/>
        <pt x="551" y="391" on="1"/>
        <pt x="551" y="344" on="1"/>
        <pt x="703" y="344" on="1"/>
        <pt x="703" y="218" on="1"/>
        <pt x="551" y="218" on="1"/>
        <pt x="551" y="170" on="1"/>
      </contour>
    </TTGlyph>
    <TTGlyph name="Oacute" xMin="19" yMin="-14" xMax="636" yMax="922">
      <contour>
        <pt x="174" y="745" on="1"/>
        <pt x="243" y="783" on="0"/>
        <pt x="371" y="871" on="0"/>
        <pt x="430" y="922" on="1"/>
        <pt x="552" y="756" on="1"/>
        <pt x="471" y="708" on="0"/>
        <pt x="295" y="662" on="0"/>
        <pt x="203" y="654" on="1"/>
      </contour>
      <contour>
        <pt x="306" y="-14" on="1"/>
        <pt x="244" y="-14" on="0"/>
        <pt x="138" y="28" on="0"/>
        <pt x="62" y="106" on="0"/>
        <pt x="19" y="218" on="0"/>
        <pt x="19" y="288" on="1"/>
        <pt x="19" y="369" on="0"/>
        <pt x="71" y="498" on="0"/>
        <pt x="160" y="587" on="0"/>
        <pt x="281" y="634" on="0"/>
        <pt x="349" y="634" on="1"/>
        <pt x="411" y="634" on="0"/>
        <pt x="517" y="592" on="0"/>
        <pt x="593" y="514" on="0"/>
        <pt x="636" y="402" on="0"/>
        <pt x="636" y="332" on="1"/>
        <pt x="636" y="251" on="0"/>
        <pt x="584" y="121" on="0"/>
        <pt x="494" y="33" on="0"/>
        <pt x="374" y="-14" on="0"/>
      </contour>
      <contour>
        <pt x="324" y="436" on="1"/>
        <pt x="300" y="436" on="0"/>
        <pt x="276" y="375" on="0"/>
        <pt x="276" y="316" on="1"/>
        <pt x="276" y="254" on="0"/>
        <pt x="306" y="185" on="0"/>
        <pt x="331" y="185" on="1"/>
        <pt x="354" y="185" on="0"/>
        <pt x="380" y="245" on="0"/>
        <pt x="380" y="304" on="1"/>
        <pt x="380" y="366" on="0"/>
        <pt x="349" y="436" on="0"/>
      </contour>
    </TTGlyph>
    <TTGlyph name="Oacute.sc" xMin="18" yMin="-14" xMax="608" yMax="863">
      <contour>
        <pt x="159" y="686" on="1"/>
        <pt x="228" y="724" on="0"/>
        <pt x="356" y="812" on="0"/>
        <pt x="415" y="863" on="1"/>
        <pt x="537" y="697" on="1"/>
        <pt x="456" y="649" on="0"/>
        <pt x="280" y="603" on="0"/>
        <pt x="188" y="595" on="1"/>
      </contour>
      <contour>
        <pt x="293" y="-14" on="1"/>
        <pt x="233" y="-14" on="0"/>
        <pt x="132" y="24" on="0"/>
        <pt x="59" y="95" on="0"/>
        <pt x="18" y="197" on="0"/>
        <pt x="18" y="260" on="1"/>
        <pt x="18" y="334" on="0"/>
        <pt x="68" y="451" on="0"/>
        <pt x="153" y="532" on="0"/>
        <pt x="268" y="575" on="0"/>
        <pt x="333" y="575" on="1"/>
        <pt x="392" y="575" on="0"/>
        <pt x="494" y="537" on="0"/>
        <pt x="567" y="466" on="0"/>
        <pt x="608" y="364" on="0"/>
        <pt x="608" y="301" on="1"/>
        <pt x="608" y="227" on="0"/>
        <pt x="558" y="109" on="0"/>
        <pt x="473" y="29" on="0"/>
        <pt x="358" y="-14" on="0"/>
      </contour>
      <contour>
        <pt x="310" y="393" on="1"/>
        <pt x="290" y="393" on="0"/>
        <pt x="269" y="338" on="0"/>
        <pt x="269" y="286" on="1"/>
        <pt x="269" y="231" on="0"/>
        <pt x="294" y="170" on="0"/>
        <pt x="316" y="170" on="1"/>
        <pt x="335" y="170" on="0"/>
        <pt x="359" y="223" on="0"/>
        <pt x="359" y="276" on="1"/>
        <pt x="359" y="330" on="0"/>
        <pt x="331" y="393" on="0"/>
      </contour>
    </TTGlyph>
    <TTGlyph name="Obreve" xMin="19" yMin="-14" xMax="636" yMax="895">
      <contour>
        <pt x="330" y="659" on="1"/>
        <pt x="252" y="659" on="0"/>
        <pt x="145" y="756" on="0"/>
        <pt x="113" y="829" on="1"/>
        <pt x="242" y="895" on="1"/>
        <pt x="265" y="865" on="0"/>
        <pt x="318" y="834" on="0"/>
        <pt x="344" y="834" on="1"/>
        <pt x="372" y="834" on="0"/>
        <pt x="422" y="865" on="0"/>
        <pt x="443" y="895" on="1"/>
        <pt x="553" y="848" on="1"/>
        <pt x="537" y="809" on="0"/>
        <pt x="494" y="740" on="0"/>
        <pt x="440" y="689" on="0"/>
        <pt x="371" y="659" on="0"/>
      </contour>
      <contour>
        <pt x="306" y="-14" on="1"/>
        <pt x="244" y="-14" on="0"/>
        <pt x="138" y="28" on="0"/>
        <pt x="62" y="106" on="0"/>
        <pt x="19" y="218" on="0"/>
        <pt x="19" y="288" on="1"/>
        <pt x="19" y="369" on="0"/>
        <pt x="71" y="498" on="0"/>
        <pt x="160" y="587" on="0"/>
        <pt x="281" y="634" on="0"/>
        <pt x="349" y="634" on="1"/>
        <pt x="411" y="634" on="0"/>
        <pt x="517" y="592" on="0"/>
        <pt x="593" y="514" on="0"/>
        <pt x="636" y="402" on="0"/>
        <pt x="636" y="332" on="1"/>
        <pt x="636" y="251" on="0"/>
        <pt x="584" y="121" on="0"/>
        <pt x="494" y="33" on="0"/>
        <pt x="374" y="-14" on="0"/>
      </contour>
      <contour>
        <pt x="324" y="436" on="1"/>
        <pt x="300" y="436" on="0"/>
        <pt x="276" y="375" on="0"/>
        <pt x="276" y="316" on="1"/>
        <pt x="276" y="254" on="0"/>
        <pt x="306" y="185" on="0"/>
        <pt x="331" y="185" on="1"/>
        <pt x="354" y="185" on="0"/>
        <pt x="380" y="245" on="0"/>
        <pt x="380" y="304" on="1"/>
        <pt x="380" y="366" on="0"/>
        <pt x="349" y="436" on="0"/>
      </contour>
    </TTGlyph>
    <TTGlyph name="Obreve.sc" xMin="18" yMin="-14" xMax="608" yMax="836">
      <contour>
        <pt x="315" y="600" on="1"/>
        <pt x="237" y="600" on="0"/>
        <pt x="130" y="697" on="0"/>
        <pt x="98" y="770" on="1"/>
        <pt x="227" y="836" on="1"/>
        <pt x="250" y="806" on="0"/>
        <pt x="303" y="775" on="0"/>
        <pt x="329" y="775" on="1"/>
        <pt x="357" y="775" on="0"/>
        <pt x="407" y="806" on="0"/>
        <pt x="428" y="836" on="1"/>
        <pt x="538" y="789" on="1"/>
        <pt x="522" y="750" on="0"/>
        <pt x="479" y="681" on="0"/>
        <pt x="425" y="630" on="0"/>
        <pt x="356" y="600" on="0"/>
      </contour>
      <contour>
        <pt x="293" y="-14" on="1"/>
        <pt x="233" y="-14" on="0"/>
        <pt x="132" y="24" on="0"/>
        <pt x="59" y="95" on="0"/>
        <pt x="18" y="197" on="0"/>
        <pt x="18" y="260" on="1"/>
        <pt x="18" y="334" on="0"/>
        <pt x="68" y="451" on="0"/>
        <pt x="153" y="532" on="0"/>
        <pt x="268" y="575" on="0"/>
        <pt x="333" y="575" on="1"/>
        <pt x="392" y="575" on="0"/>
        <pt x="494" y="537" on="0"/>
        <pt x="567" y="466" on="0"/>
        <pt x="608" y="364" on="0"/>
        <pt x="608" y="301" on="1"/>
        <pt x="608" y="227" on="0"/>
        <pt x="558" y="109" on="0"/>
        <pt x="473" y="29" on="0"/>
        <pt x="358" y="-14" on="0"/>
      </contour>
      <contour>
        <pt x="310" y="393" on="1"/>
        <pt x="290" y="393" on="0"/>
        <pt x="269" y="338" on="0"/>
        <pt x="269" y="286" on="1"/>
        <pt x="269" y="231" on="0"/>
        <pt x="294" y="170" on="0"/>
        <pt x="316" y="170" on="1"/>
        <pt x="335" y="170" on="0"/>
        <pt x="359" y="223" on="0"/>
        <pt x="359" y="276" on="1"/>
        <pt x="359" y="330" on="0"/>
        <pt x="331" y="393" on="0"/>
      </contour>
    </TTGlyph>
    <TTGlyph name="Ocircumflex" xMin="19" yMin="-14" xMax="636" yMax="901">
      <contour>
        <pt x="436" y="652" on="1"/>
        <pt x="323" y="735" on="1"/>
        <pt x="210" y="652" on="1"/>
        <pt x="123" y="757" on="1"/>
        <pt x="308" y="901" on="1"/>
        <pt x="362" y="901" on="1"/>
        <pt x="543" y="767" on="1"/>
      </contour>
      <contour>
        <pt x="306" y="-14" on="1"/>
        <pt x="244" y="-14" on="0"/>
        <pt x="138" y="28" on="0"/>
        <pt x="62" y="106" on="0"/>
        <pt x="19" y="218" on="0"/>
        <pt x="19" y="288" on="1"/>
        <pt x="19" y="369" on="0"/>
        <pt x="71" y="498" on="0"/>
        <pt x="160" y="587" on="0"/>
        <pt x="281" y="634" on="0"/>
        <pt x="349" y="634" on="1"/>
        <pt x="411" y="634" on="0"/>
        <pt x="517" y="592" on="0"/>
        <pt x="593" y="514" on="0"/>
        <pt x="636" y="402" on="0"/>
        <pt x="636" y="332" on="1"/>
        <pt x="636" y="251" on="0"/>
        <pt x="584" y="121" on="0"/>
        <pt x="494" y="33" on="0"/>
        <pt x="374" y="-14" on="0"/>
      </contour>
      <contour>
        <pt x="324" y="436" on="1"/>
        <pt x="300" y="436" on="0"/>
        <pt x="276" y="375" on="0"/>
        <pt x="276" y="316" on="1"/>
        <pt x="276" y="254" on="0"/>
        <pt x="306" y="185" on="0"/>
        <pt x="331" y="185" on="1"/>
        <pt x="354" y="185" on="0"/>
        <pt x="380" y="245" on="0"/>
        <pt x="380" y="304" on="1"/>
        <pt x="380" y="366" on="0"/>
        <pt x="349" y="436" on="0"/>
      </contour>
    </TTGlyph>
    <TTGlyph name="Ocircumflex.sc" xMin="18" yMin="-14" xMax="608" yMax="842">
      <contour>
        <pt x="421" y="593" on="1"/>
        <pt x="308" y="676" on="1"/>
        <pt x="195" y="593" on="1"/>
        <pt x="108" y="698" on="1"/>
        <pt x="293" y="842" on="1"/>
        <pt x="347" y="842" on="1"/>
        <pt x="528" y="708" on="1"/>
      </contour>
      <contour>
        <pt x="293" y="-14" on="1"/>
        <pt x="233" y="-14" on="0"/>
        <pt x="132" y="24" on="0"/>
        <pt x="59" y="95" on="0"/>
        <pt x="18" y="197" on="0"/>
        <pt x="18" y="260" on="1"/>
        <pt x="18" y="334" on="0"/>
        <pt x="68" y="451" on="0"/>
        <pt x="153" y="532" on="0"/>
        <pt x="268" y="575" on="0"/>
        <pt x="333" y="575" on="1"/>
        <pt x="392" y="575" on="0"/>
        <pt x="494" y="537" on="0"/>
        <pt x="567" y="466" on="0"/>
        <pt x="608" y="364" on="0"/>
        <pt x="608" y="301" on="1"/>
        <pt x="608" y="227" on="0"/>
        <pt x="558" y="109" on="0"/>
        <pt x="473" y="29" on="0"/>
        <pt x="358" y="-14" on="0"/>
      </contour>
      <contour>
        <pt x="310" y="393" on="1"/>
        <pt x="290" y="393" on="0"/>
        <pt x="269" y="338" on="0"/>
        <pt x="269" y="286" on="1"/>
        <pt x="269" y="231" on="0"/>
        <pt x="294" y="170" on="0"/>
        <pt x="316" y="170" on="1"/>
        <pt x="335" y="170" on="0"/>
        <pt x="359" y="223" on="0"/>
        <pt x="359" y="276" on="1"/>
        <pt x="359" y="330" on="0"/>
        <pt x="331" y="393" on="0"/>
      </contour>
    </TTGlyph>
    <TTGlyph name="Odieresis" xMin="19" yMin="-14" xMax="636" yMax="859">
      <contour>
        <pt x="564" y="674" on="1"/>
        <pt x="353" y="674" on="1"/>
        <pt x="355" y="859" on="1"/>
        <pt x="567" y="859" on="1"/>
      </contour>
      <contour>
        <pt x="311" y="674" on="1"/>
        <pt x="99" y="674" on="1"/>
        <pt x="102" y="859" on="1"/>
        <pt x="313" y="859" on="1"/>
      </contour>
      <contour>
        <pt x="306" y="-14" on="1"/>
        <pt x="244" y="-14" on="0"/>
        <pt x="138" y="28" on="0"/>
        <pt x="62" y="106" on="0"/>
        <pt x="19" y="218" on="0"/>
        <pt x="19" y="288" on="1"/>
        <pt x="19" y="369" on="0"/>
        <pt x="71" y="498" on="0"/>
        <pt x="160" y="587" on="0"/>
        <pt x="281" y="634" on="0"/>
        <pt x="349" y="634" on="1"/>
        <pt x="411" y="634" on="0"/>
        <pt x="517" y="592" on="0"/>
        <pt x="593" y="514" on="0"/>
        <pt x="636" y="402" on="0"/>
        <pt x="636" y="332" on="1"/>
        <pt x="636" y="251" on="0"/>
        <pt x="584" y="121" on="0"/>
        <pt x="494" y="33" on="0"/>
        <pt x="374" y="-14" on="0"/>
      </contour>
      <contour>
        <pt x="324" y="436" on="1"/>
        <pt x="300" y="436" on="0"/>
        <pt x="276" y="375" on="0"/>
        <pt x="276" y="316" on="1"/>
        <pt x="276" y="254" on="0"/>
        <pt x="306" y="185" on="0"/>
        <pt x="331" y="185" on="1"/>
        <pt x="354" y="185" on="0"/>
        <pt x="380" y="245" on="0"/>
        <pt x="380" y="304" on="1"/>
        <pt x="380" y="366" on="0"/>
        <pt x="349" y="436" on="0"/>
      </contour>
    </TTGlyph>
    <TTGlyph name="Odieresis.sc" xMin="18" yMin="-14" xMax="608" yMax="800">
      <contour>
        <pt x="549" y="615" on="1"/>
        <pt x="338" y="615" on="1"/>
        <pt x="340" y="800" on="1"/>
        <pt x="552" y="800" on="1"/>
      </contour>
      <contour>
        <pt x="296" y="615" on="1"/>
        <pt x="84" y="615" on="1"/>
        <pt x="87" y="800" on="1"/>
        <pt x="298" y="800" on="1"/>
      </contour>
      <contour>
        <pt x="293" y="-14" on="1"/>
        <pt x="233" y="-14" on="0"/>
        <pt x="132" y="24" on="0"/>
        <pt x="59" y="95" on="0"/>
        <pt x="18" y="197" on="0"/>
        <pt x="18" y="260" on="1"/>
        <pt x="18" y="334" on="0"/>
        <pt x="68" y="451" on="0"/>
        <pt x="153" y="532" on="0"/>
        <pt x="268" y="575" on="0"/>
        <pt x="333" y="575" on="1"/>
        <pt x="392" y="575" on="0"/>
        <pt x="494" y="537" on="0"/>
        <pt x="567" y="466" on="0"/>
        <pt x="608" y="364" on="0"/>
        <pt x="608" y="301" on="1"/>
        <pt x="608" y="227" on="0"/>
        <pt x="558" y="109" on="0"/>
        <pt x="473" y="29" on="0"/>
        <pt x="358" y="-14" on="0"/>
      </contour>
      <contour>
        <pt x="310" y="393" on="1"/>
        <pt x="290" y="393" on="0"/>
        <pt x="269" y="338" on="0"/>
        <pt x="269" y="286" on="1"/>
        <pt x="269" y="231" on="0"/>
        <pt x="294" y="170" on="0"/>
        <pt x="316" y="170" on="1"/>
        <pt x="335" y="170" on="0"/>
        <pt x="359" y="223" on="0"/>
        <pt x="359" y="276" on="1"/>
        <pt x="359" y="330" on="0"/>
        <pt x="331" y="393" on="0"/>
      </contour>
    </TTGlyph>
    <TTGlyph name="Ograve" xMin="19" yMin="-14" xMax="636" yMax="922">
      <contour>
        <pt x="495" y="746" on="1"/>
        <pt x="460" y="654" on="1"/>
        <pt x="370" y="666" on="0"/>
        <pt x="197" y="713" on="0"/>
        <pt x="119" y="757" on="1"/>
        <pt x="233" y="922" on="1"/>
        <pt x="293" y="875" on="0"/>
        <pt x="424" y="787" on="0"/>
      </contour>
      <contour>
        <pt x="306" y="-14" on="1"/>
        <pt x="244" y="-14" on="0"/>
        <pt x="138" y="28" on="0"/>
        <pt x="62" y="106" on="0"/>
        <pt x="19" y="218" on="0"/>
        <pt x="19" y="288" on="1"/>
        <pt x="19" y="369" on="0"/>
        <pt x="71" y="498" on="0"/>
        <pt x="160" y="587" on="0"/>
        <pt x="281" y="634" on="0"/>
        <pt x="349" y="634" on="1"/>
        <pt x="411" y="634" on="0"/>
        <pt x="517" y="592" on="0"/>
        <pt x="593" y="514" on="0"/>
        <pt x="636" y="402" on="0"/>
        <pt x="636" y="332" on="1"/>
        <pt x="636" y="251" on="0"/>
        <pt x="584" y="121" on="0"/>
        <pt x="494" y="33" on="0"/>
        <pt x="374" y="-14" on="0"/>
      </contour>
      <contour>
        <pt x="324" y="436" on="1"/>
        <pt x="300" y="436" on="0"/>
        <pt x="276" y="375" on="0"/>
        <pt x="276" y="316" on="1"/>
        <pt x="276" y="254" on="0"/>
        <pt x="306" y="185" on="0"/>
        <pt x="331" y="185" on="1"/>
        <pt x="354" y="185" on="0"/>
        <pt x="380" y="245" on="0"/>
        <pt x="380" y="304" on="1"/>
        <pt x="380" y="366" on="0"/>
        <pt x="349" y="436" on="0"/>
      </contour>
    </TTGlyph>
    <TTGlyph name="Ograve.sc" xMin="18" yMin="-14" xMax="608" yMax="863">
      <contour>
        <pt x="480" y="687" on="1"/>
        <pt x="445" y="595" on="1"/>
        <pt x="355" y="607" on="0"/>
        <pt x="182" y="654" on="0"/>
        <pt x="104" y="698" on="1"/>
        <pt x="218" y="863" on="1"/>
        <pt x="278" y="816" on="0"/>
        <pt x="409" y="728" on="0"/>
      </contour>
      <contour>
        <pt x="293" y="-14" on="1"/>
        <pt x="233" y="-14" on="0"/>
        <pt x="132" y="24" on="0"/>
        <pt x="59" y="95" on="0"/>
        <pt x="18" y="197" on="0"/>
        <pt x="18" y="260" on="1"/>
        <pt x="18" y="334" on="0"/>
        <pt x="68" y="451" on="0"/>
        <pt x="153" y="532" on="0"/>
        <pt x="268" y="575" on="0"/>
        <pt x="333" y="575" on="1"/>
        <pt x="392" y="575" on="0"/>
        <pt x="494" y="537" on="0"/>
        <pt x="567" y="466" on="0"/>
        <pt x="608" y="364" on="0"/>
        <pt x="608" y="301" on="1"/>
        <pt x="608" y="227" on="0"/>
        <pt x="558" y="109" on="0"/>
        <pt x="473" y="29" on="0"/>
        <pt x="358" y="-14" on="0"/>
      </contour>
      <contour>
        <pt x="310" y="393" on="1"/>
        <pt x="290" y="393" on="0"/>
        <pt x="269" y="338" on="0"/>
        <pt x="269" y="286" on="1"/>
        <pt x="269" y="231" on="0"/>
        <pt x="294" y="170" on="0"/>
        <pt x="316" y="170" on="1"/>
        <pt x="335" y="170" on="0"/>
        <pt x="359" y="223" on="0"/>
        <pt x="359" y="276" on="1"/>
        <pt x="359" y="330" on="0"/>
        <pt x="331" y="393" on="0"/>
      </contour>
    </TTGlyph>
    <TTGlyph name="Ohungarumlaut" xMin="19" yMin="-14" xMax="650" yMax="937">
      <contour>
        <pt x="122" y="700" on="1"/>
        <pt x="156" y="752" on="0"/>
        <pt x="219" y="879" on="0"/>
        <pt x="241" y="937" on="1"/>
        <pt x="407" y="845" on="1"/>
        <pt x="364" y="784" on="0"/>
        <pt x="264" y="692" on="0"/>
        <pt x="204" y="654" on="1"/>
      </contour>
      <contour>
        <pt x="347" y="694" on="1"/>
        <pt x="384" y="750" on="0"/>
        <pt x="448" y="866" on="0"/>
        <pt x="472" y="927" on="1"/>
        <pt x="650" y="839" on="1"/>
        <pt x="602" y="781" on="0"/>
        <pt x="494" y="692" on="0"/>
        <pt x="435" y="654" on="1"/>
      </contour>
      <contour>
        <pt x="306" y="-14" on="1"/>
        <pt x="244" y="-14" on="0"/>
        <pt x="138" y="28" on="0"/>
        <pt x="62" y="106" on="0"/>
        <pt x="19" y="218" on="0"/>
        <pt x="19" y="288" on="1"/>
        <pt x="19" y="369" on="0"/>
        <pt x="71" y="498" on="0"/>
        <pt x="160" y="587" on="0"/>
        <pt x="281" y="634" on="0"/>
        <pt x="349" y="634" on="1"/>
        <pt x="411" y="634" on="0"/>
        <pt x="517" y="592" on="0"/>
        <pt x="593" y="514" on="0"/>
        <pt x="636" y="402" on="0"/>
        <pt x="636" y="332" on="1"/>
        <pt x="636" y="251" on="0"/>
        <pt x="584" y="121" on="0"/>
        <pt x="494" y="33" on="0"/>
        <pt x="374" y="-14" on="0"/>
      </contour>
      <contour>
        <pt x="324" y="436" on="1"/>
        <pt x="300" y="436" on="0"/>
        <pt x="276" y="375" on="0"/>
        <pt x="276" y="316" on="1"/>
        <pt x="276" y="254" on="0"/>
        <pt x="306" y="185" on="0"/>
        <pt x="331" y="185" on="1"/>
        <pt x="354" y="185" on="0"/>
        <pt x="380" y="245" on="0"/>
        <pt x="380" y="304" on="1"/>
        <pt x="380" y="366" on="0"/>
        <pt x="349" y="436" on="0"/>
      </contour>
    </TTGlyph>
    <TTGlyph name="Ohungarumlaut.sc" xMin="18" yMin="-14" xMax="635" yMax="878">
      <contour>
        <pt x="107" y="641" on="1"/>
        <pt x="141" y="693" on="0"/>
        <pt x="204" y="820" on="0"/>
        <pt x="226" y="878" on="1"/>
        <pt x="392" y="786" on="1"/>
        <pt x="349" y="725" on="0"/>
        <pt x="249" y="633" on="0"/>
        <pt x="189" y="595" on="1"/>
      </contour>
      <contour>
        <pt x="332" y="635" on="1"/>
        <pt x="369" y="691" on="0"/>
        <pt x="433" y="807" on="0"/>
        <pt x="457" y="868" on="1"/>
        <pt x="635" y="780" on="1"/>
        <pt x="587" y="722" on="0"/>
        <pt x="479" y="633" on="0"/>
        <pt x="420" y="595" on="1"/>
      </contour>
      <contour>
        <pt x="293" y="-14" on="1"/>
        <pt x="233" y="-14" on="0"/>
        <pt x="132" y="24" on="0"/>
        <pt x="59" y="95" on="0"/>
        <pt x="18" y="197" on="0"/>
        <pt x="18" y="260" on="1"/>
        <pt x="18" y="334" on="0"/>
        <pt x="68" y="451" on="0"/>
        <pt x="153" y="532" on="0"/>
        <pt x="268" y="575" on="0"/>
        <pt x="333" y="575" on="1"/>
        <pt x="392" y="575" on="0"/>
        <pt x="494" y="537" on="0"/>
        <pt x="567" y="466" on="0"/>
        <pt x="608" y="364" on="0"/>
        <pt x="608" y="301" on="1"/>
        <pt x="608" y="227" on="0"/>
        <pt x="558" y="109" on="0"/>
        <pt x="473" y="29" on="0"/>
        <pt x="358" y="-14" on="0"/>
      </contour>
      <contour>
        <pt x="310" y="393" on="1"/>
        <pt x="290" y="393" on="0"/>
        <pt x="269" y="338" on="0"/>
        <pt x="269" y="286" on="1"/>
        <pt x="269" y="231" on="0"/>
        <pt x="294" y="170" on="0"/>
        <pt x="316" y="170" on="1"/>
        <pt x="335" y="170" on="0"/>
        <pt x="359" y="223" on="0"/>
        <pt x="359" y="276" on="1"/>
        <pt x="359" y="330" on="0"/>
        <pt x="331" y="393" on="0"/>
      </contour>
    </TTGlyph>
    <TTGlyph name="Omacron" xMin="19" yMin="-14" xMax="636" yMax="859">
      <contour>
        <pt x="533" y="859" on="1"/>
        <pt x="533" y="674" on="1"/>
        <pt x="133" y="674" on="1"/>
        <pt x="133" y="859" on="1"/>
      </contour>
      <contour>
        <pt x="306" y="-14" on="1"/>
        <pt x="244" y="-14" on="0"/>
        <pt x="138" y="28" on="0"/>
        <pt x="62" y="106" on="0"/>
        <pt x="19" y="218" on="0"/>
        <pt x="19" y="288" on="1"/>
        <pt x="19" y="369" on="0"/>
        <pt x="71" y="498" on="0"/>
        <pt x="160" y="587" on="0"/>
        <pt x="281" y="634" on="0"/>
        <pt x="349" y="634" on="1"/>
        <pt x="411" y="634" on="0"/>
        <pt x="517" y="592" on="0"/>
        <pt x="593" y="514" on="0"/>
        <pt x="636" y="402" on="0"/>
        <pt x="636" y="332" on="1"/>
        <pt x="636" y="251" on="0"/>
        <pt x="584" y="121" on="0"/>
        <pt x="494" y="33" on="0"/>
        <pt x="374" y="-14" on="0"/>
      </contour>
      <contour>
        <pt x="324" y="436" on="1"/>
        <pt x="300" y="436" on="0"/>
        <pt x="276" y="375" on="0"/>
        <pt x="276" y="316" on="1"/>
        <pt x="276" y="254" on="0"/>
        <pt x="306" y="185" on="0"/>
        <pt x="331" y="185" on="1"/>
        <pt x="354" y="185" on="0"/>
        <pt x="380" y="245" on="0"/>
        <pt x="380" y="304" on="1"/>
        <pt x="380" y="366" on="0"/>
        <pt x="349" y="436" on="0"/>
      </contour>
    </TTGlyph>
    <TTGlyph name="Omacron.sc" xMin="18" yMin="-14" xMax="608" yMax="800">
      <contour>
        <pt x="518" y="800" on="1"/>
        <pt x="518" y="615" on="1"/>
        <pt x="118" y="615" on="1"/>
        <pt x="118" y="800" on="1"/>
      </contour>
      <contour>
        <pt x="293" y="-14" on="1"/>
        <pt x="233" y="-14" on="0"/>
        <pt x="132" y="24" on="0"/>
        <pt x="59" y="95" on="0"/>
        <pt x="18" y="197" on="0"/>
        <pt x="18" y="260" on="1"/>
        <pt x="18" y="334" on="0"/>
        <pt x="68" y="451" on="0"/>
        <pt x="153" y="532" on="0"/>
        <pt x="268" y="575" on="0"/>
        <pt x="333" y="575" on="1"/>
        <pt x="392" y="575" on="0"/>
        <pt x="494" y="537" on="0"/>
        <pt x="567" y="466" on="0"/>
        <pt x="608" y="364" on="0"/>
        <pt x="608" y="301" on="1"/>
        <pt x="608" y="227" on="0"/>
        <pt x="558" y="109" on="0"/>
        <pt x="473" y="29" on="0"/>
        <pt x="358" y="-14" on="0"/>
      </contour>
      <contour>
        <pt x="310" y="393" on="1"/>
        <pt x="290" y="393" on="0"/>
        <pt x="269" y="338" on="0"/>
        <pt x="269" y="286" on="1"/>
        <pt x="269" y="231" on="0"/>
        <pt x="294" y="170" on="0"/>
        <pt x="316" y="170" on="1"/>
        <pt x="335" y="170" on="0"/>
        <pt x="359" y="223" on="0"/>
        <pt x="359" y="276" on="1"/>
        <pt x="359" y="330" on="0"/>
        <pt x="331" y="393" on="0"/>
      </contour>
    </TTGlyph>
    <TTGlyph name="Omega" xMin="20" yMin="0" xMax="628" yMax="634">
      <contour>
        <pt x="299" y="6" on="1"/>
        <pt x="295" y="0" on="1"/>
        <pt x="20" y="0" on="1"/>
        <pt x="20" y="193" on="1"/>
        <pt x="111" y="193" on="1"/>
        <pt x="82" y="242" on="0"/>
        <pt x="53" y="343" on="0"/>
        <pt x="53" y="387" on="1"/>
        <pt x="53" y="439" on="0"/>
        <pt x="91" y="530" on="0"/>
        <pt x="163" y="596" on="0"/>
        <pt x="268" y="634" on="0"/>
        <pt x="333" y="634" on="1"/>
        <pt x="396" y="634" on="0"/>
        <pt x="494" y="596" on="0"/>
        <pt x="561" y="529" on="0"/>
        <pt x="596" y="440" on="0"/>
        <pt x="596" y="389" on="1"/>
        <pt x="596" y="345" on="0"/>
        <pt x="567" y="243" on="0"/>
        <pt x="538" y="193" on="1"/>
        <pt x="628" y="193" on="1"/>
        <pt x="628" y="0" on="1"/>
        <pt x="353" y="0" on="1"/>
        <pt x="349" y="6" on="1"/>
        <pt x="360" y="98" on="0"/>
        <pt x="371" y="240" on="0"/>
        <pt x="371" y="292" on="1"/>
        <pt x="371" y="361" on="0"/>
        <pt x="347" y="427" on="0"/>
        <pt x="324" y="427" on="1"/>
        <pt x="301" y="427" on="0"/>
        <pt x="277" y="361" on="0"/>
        <pt x="277" y="292" on="1"/>
        <pt x="277" y="241" on="0"/>
        <pt x="288" y="98" on="0"/>
      </contour>
    </TTGlyph>
    <TTGlyph name="Oslash" xMin="19" yMin="-60" xMax="636" yMax="680">
      <contour>
        <pt x="263" y="317" on="1"/>
        <pt x="263" y="307" on="0"/>
        <pt x="264" y="288" on="0"/>
        <pt x="265" y="280" on="1"/>
        <pt x="364" y="426" on="1"/>
        <pt x="356" y="437" on="0"/>
        <pt x="335" y="449" on="0"/>
        <pt x="324" y="449" on="1"/>
        <pt x="294" y="449" on="0"/>
        <pt x="263" y="381" on="0"/>
      </contour>
      <contour>
        <pt x="331" y="172" on="1"/>
        <pt x="359" y="172" on="0"/>
        <pt x="393" y="238" on="0"/>
        <pt x="393" y="303" on="1"/>
        <pt x="393" y="314" on="0"/>
        <pt x="392" y="336" on="0"/>
        <pt x="391" y="345" on="1"/>
        <pt x="289" y="197" on="1"/>
        <pt x="297" y="185" on="0"/>
        <pt x="318" y="172" on="0"/>
      </contour>
      <contour>
        <pt x="306" y="-14" on="1"/>
        <pt x="277" y="-14" on="0"/>
        <pt x="223" y="-5" on="0"/>
        <pt x="198" y="4" on="1"/>
        <pt x="154" y="-60" on="1"/>
        <pt x="39" y="11" on="1"/>
        <pt x="87" y="81" on="1"/>
        <pt x="55" y="119" on="0"/>
        <pt x="19" y="225" on="0"/>
        <pt x="19" y="288" on="1"/>
        <pt x="19" y="369" on="0"/>
        <pt x="71" y="498" on="0"/>
        <pt x="160" y="587" on="0"/>
        <pt x="281" y="634" on="0"/>
        <pt x="349" y="634" on="1"/>
        <pt x="378" y="634" on="0"/>
        <pt x="432" y="625" on="0"/>
        <pt x="457" y="616" on="1"/>
        <pt x="501" y="680" on="1"/>
        <pt x="616" y="609" on="1"/>
        <pt x="568" y="539" on="1"/>
        <pt x="600" y="501" on="0"/>
        <pt x="636" y="395" on="0"/>
        <pt x="636" y="332" on="1"/>
        <pt x="636" y="251" on="0"/>
        <pt x="584" y="121" on="0"/>
        <pt x="494" y="33" on="0"/>
        <pt x="374" y="-14" on="0"/>
      </contour>
    </TTGlyph>
    <TTGlyph name="Oslash.sc" xMin="18" yMin="-55" xMax="608" yMax="616">
      <contour>
        <pt x="258" y="286" on="1"/>
        <pt x="258" y="278" on="0"/>
        <pt x="258" y="263" on="0"/>
        <pt x="259" y="256" on="1"/>
        <pt x="344" y="385" on="1"/>
        <pt x="337" y="394" on="0"/>
        <pt x="320" y="404" on="0"/>
        <pt x="310" y="404" on="1"/>
        <pt x="284" y="404" on="0"/>
        <pt x="258" y="343" on="0"/>
      </contour>
      <contour>
        <pt x="316" y="159" on="1"/>
        <pt x="341" y="159" on="0"/>
        <pt x="371" y="217" on="0"/>
        <pt x="371" y="275" on="1"/>
        <pt x="371" y="286" on="0"/>
        <pt x="369" y="307" on="0"/>
        <pt x="368" y="317" on="1"/>
        <pt x="279" y="181" on="1"/>
        <pt x="286" y="171" on="0"/>
        <pt x="305" y="159" on="0"/>
      </contour>
      <contour>
        <pt x="293" y="-14" on="1"/>
        <pt x="265" y="-14" on="0"/>
        <pt x="212" y="-5" on="0"/>
        <pt x="189" y="3" on="1"/>
        <pt x="149" y="-55" on="1"/>
        <pt x="44" y="6" on="1"/>
        <pt x="87" y="68" on="1"/>
        <pt x="54" y="103" on="0"/>
        <pt x="18" y="201" on="0"/>
        <pt x="18" y="260" on="1"/>
        <pt x="18" y="334" on="0"/>
        <pt x="68" y="451" on="0"/>
        <pt x="153" y="532" on="0"/>
        <pt x="268" y="575" on="0"/>
        <pt x="333" y="575" on="1"/>
        <pt x="361" y="575" on="0"/>
        <pt x="413" y="566" on="0"/>
        <pt x="437" y="558" on="1"/>
        <pt x="477" y="616" on="1"/>
        <pt x="582" y="555" on="1"/>
        <pt x="539" y="492" on="1"/>
        <pt x="571" y="457" on="0"/>
        <pt x="608" y="360" on="0"/>
        <pt x="608" y="301" on="1"/>
        <pt x="608" y="227" on="0"/>
        <pt x="558" y="109" on="0"/>
        <pt x="473" y="29" on="0"/>
        <pt x="358" y="-14" on="0"/>
      </contour>
    </TTGlyph>
    <TTGlyph name="Oslashacute" xMin="19" yMin="-60" xMax="636" yMax="929">
      <contour>
        <pt x="174" y="752" on="1"/>
        <pt x="243" y="790" on="0"/>
        <pt x="371" y="878" on="0"/>
        <pt x="430" y="929" on="1"/>
        <pt x="552" y="763" on="1"/>
        <pt x="471" y="715" on="0"/>
        <pt x="295" y="669" on="0"/>
        <pt x="203" y="661" on="1"/>
      </contour>
      <contour>
        <pt x="263" y="317" on="1"/>
        <pt x="263" y="307" on="0"/>
        <pt x="264" y="288" on="0"/>
        <pt x="265" y="280" on="1"/>
        <pt x="364" y="426" on="1"/>
        <pt x="356" y="437" on="0"/>
        <pt x="335" y="449" on="0"/>
        <pt x="324" y="449" on="1"/>
        <pt x="294" y="449" on="0"/>
        <pt x="263" y="381" on="0"/>
      </contour>
      <contour>
        <pt x="331" y="172" on="1"/>
        <pt x="359" y="172" on="0"/>
        <pt x="393" y="238" on="0"/>
        <pt x="393" y="303" on="1"/>
        <pt x="393" y="314" on="0"/>
        <pt x="392" y="336" on="0"/>
        <pt x="391" y="345" on="1"/>
        <pt x="289" y="197" on="1"/>
        <pt x="297" y="185" on="0"/>
        <pt x="318" y="172" on="0"/>
      </contour>
      <contour>
        <pt x="306" y="-14" on="1"/>
        <pt x="277" y="-14" on="0"/>
        <pt x="223" y="-5" on="0"/>
        <pt x="198" y="4" on="1"/>
        <pt x="154" y="-60" on="1"/>
        <pt x="39" y="11" on="1"/>
        <pt x="87" y="81" on="1"/>
        <pt x="55" y="119" on="0"/>
        <pt x="19" y="225" on="0"/>
        <pt x="19" y="288" on="1"/>
        <pt x="19" y="369" on="0"/>
        <pt x="71" y="498" on="0"/>
        <pt x="160" y="587" on="0"/>
        <pt x="281" y="634" on="0"/>
        <pt x="349" y="634" on="1"/>
        <pt x="378" y="634" on="0"/>
        <pt x="432" y="625" on="0"/>
        <pt x="457" y="616" on="1"/>
        <pt x="501" y="680" on="1"/>
        <pt x="616" y="609" on="1"/>
        <pt x="568" y="539" on="1"/>
        <pt x="600" y="501" on="0"/>
        <pt x="636" y="395" on="0"/>
        <pt x="636" y="332" on="1"/>
        <pt x="636" y="251" on="0"/>
        <pt x="584" y="121" on="0"/>
        <pt x="494" y="33" on="0"/>
        <pt x="374" y="-14" on="0"/>
      </contour>
    </TTGlyph>
    <TTGlyph name="Oslashacute.sc" xMin="18" yMin="-55" xMax="608" yMax="870">
      <contour>
        <pt x="159" y="693" on="1"/>
        <pt x="228" y="731" on="0"/>
        <pt x="356" y="819" on="0"/>
        <pt x="415" y="870" on="1"/>
        <pt x="537" y="704" on="1"/>
        <pt x="456" y="656" on="0"/>
        <pt x="280" y="610" on="0"/>
        <pt x="188" y="602" on="1"/>
      </contour>
      <contour>
        <pt x="258" y="286" on="1"/>
        <pt x="258" y="278" on="0"/>
        <pt x="258" y="263" on="0"/>
        <pt x="259" y="256" on="1"/>
        <pt x="344" y="385" on="1"/>
        <pt x="337" y="394" on="0"/>
        <pt x="320" y="404" on="0"/>
        <pt x="310" y="404" on="1"/>
        <pt x="284" y="404" on="0"/>
        <pt x="258" y="343" on="0"/>
      </contour>
      <contour>
        <pt x="316" y="159" on="1"/>
        <pt x="341" y="159" on="0"/>
        <pt x="371" y="217" on="0"/>
        <pt x="371" y="275" on="1"/>
        <pt x="371" y="286" on="0"/>
        <pt x="369" y="307" on="0"/>
        <pt x="368" y="317" on="1"/>
        <pt x="279" y="181" on="1"/>
        <pt x="286" y="171" on="0"/>
        <pt x="305" y="159" on="0"/>
      </contour>
      <contour>
        <pt x="293" y="-14" on="1"/>
        <pt x="265" y="-14" on="0"/>
        <pt x="212" y="-5" on="0"/>
        <pt x="189" y="3" on="1"/>
        <pt x="149" y="-55" on="1"/>
        <pt x="44" y="6" on="1"/>
        <pt x="87" y="68" on="1"/>
        <pt x="54" y="103" on="0"/>
        <pt x="18" y="201" on="0"/>
        <pt x="18" y="260" on="1"/>
        <pt x="18" y="334" on="0"/>
        <pt x="68" y="451" on="0"/>
        <pt x="153" y="532" on="0"/>
        <pt x="268" y="575" on="0"/>
        <pt x="333" y="575" on="1"/>
        <pt x="361" y="575" on="0"/>
        <pt x="413" y="566" on="0"/>
        <pt x="437" y="558" on="1"/>
        <pt x="477" y="616" on="1"/>
        <pt x="582" y="555" on="1"/>
        <pt x="539" y="492" on="1"/>
        <pt x="571" y="457" on="0"/>
        <pt x="608" y="360" on="0"/>
        <pt x="608" y="301" on="1"/>
        <pt x="608" y="227" on="0"/>
        <pt x="558" y="109" on="0"/>
        <pt x="473" y="29" on="0"/>
        <pt x="358" y="-14" on="0"/>
      </contour>
    </TTGlyph>
    <TTGlyph name="Otilde" xMin="19" yMin="-14" xMax="636" yMax="888">
      <contour>
        <pt x="425" y="663" on="1"/>
        <pt x="399" y="663" on="0"/>
        <pt x="352" y="679" on="0"/>
        <pt x="312" y="699" on="0"/>
        <pt x="277" y="715" on="0"/>
        <pt x="264" y="715" on="1"/>
        <pt x="251" y="715" on="0"/>
        <pt x="230" y="692" on="0"/>
        <pt x="216" y="664" on="1"/>
        <pt x="106" y="701" on="1"/>
        <pt x="126" y="779" on="0"/>
        <pt x="201" y="882" on="0"/>
        <pt x="262" y="882" on="1"/>
        <pt x="287" y="882" on="0"/>
        <pt x="333" y="865" on="0"/>
        <pt x="373" y="846" on="0"/>
        <pt x="407" y="829" on="0"/>
        <pt x="420" y="829" on="1"/>
        <pt x="433" y="829" on="0"/>
        <pt x="456" y="854" on="0"/>
        <pt x="474" y="888" on="1"/>
        <pt x="584" y="852" on="1"/>
        <pt x="562" y="770" on="0"/>
        <pt x="486" y="663" on="0"/>
      </contour>
      <contour>
        <pt x="306" y="-14" on="1"/>
        <pt x="244" y="-14" on="0"/>
        <pt x="138" y="28" on="0"/>
        <pt x="62" y="106" on="0"/>
        <pt x="19" y="218" on="0"/>
        <pt x="19" y="288" on="1"/>
        <pt x="19" y="369" on="0"/>
        <pt x="71" y="498" on="0"/>
        <pt x="160" y="587" on="0"/>
        <pt x="281" y="634" on="0"/>
        <pt x="349" y="634" on="1"/>
        <pt x="411" y="634" on="0"/>
        <pt x="517" y="592" on="0"/>
        <pt x="593" y="514" on="0"/>
        <pt x="636" y="402" on="0"/>
        <pt x="636" y="332" on="1"/>
        <pt x="636" y="251" on="0"/>
        <pt x="584" y="121" on="0"/>
        <pt x="494" y="33" on="0"/>
        <pt x="374" y="-14" on="0"/>
      </contour>
      <contour>
        <pt x="324" y="436" on="1"/>
        <pt x="300" y="436" on="0"/>
        <pt x="276" y="375" on="0"/>
        <pt x="276" y="316" on="1"/>
        <pt x="276" y="254" on="0"/>
        <pt x="306" y="185" on="0"/>
        <pt x="331" y="185" on="1"/>
        <pt x="354" y="185" on="0"/>
        <pt x="380" y="245" on="0"/>
        <pt x="380" y="304" on="1"/>
        <pt x="380" y="366" on="0"/>
        <pt x="349" y="436" on="0"/>
      </contour>
    </TTGlyph>
    <TTGlyph name="Otilde.sc" xMin="18" yMin="-14" xMax="608" yMax="829">
      <contour>
        <pt x="410" y="604" on="1"/>
        <pt x="384" y="604" on="0"/>
        <pt x="337" y="620" on="0"/>
        <pt x="297" y="640" on="0"/>
        <pt x="262" y="656" on="0"/>
        <pt x="249" y="656" on="1"/>
        <pt x="236" y="656" on="0"/>
        <pt x="215" y="633" on="0"/>
        <pt x="201" y="605" on="1"/>
        <pt x="91" y="642" on="1"/>
        <pt x="111" y="720" on="0"/>
        <pt x="186" y="823" on="0"/>
        <pt x="247" y="823" on="1"/>
        <pt x="272" y="823" on="0"/>
        <pt x="318" y="806" on="0"/>
        <pt x="358" y="787" on="0"/>
        <pt x="392" y="770" on="0"/>
        <pt x="405" y="770" on="1"/>
        <pt x="418" y="770" on="0"/>
        <pt x="441" y="795" on="0"/>
        <pt x="459" y="829" on="1"/>
        <pt x="569" y="793" on="1"/>
        <pt x="547" y="711" on="0"/>
        <pt x="471" y="604" on="0"/>
      </contour>
      <contour>
        <pt x="293" y="-14" on="1"/>
        <pt x="233" y="-14" on="0"/>
        <pt x="132" y="24" on="0"/>
        <pt x="59" y="95" on="0"/>
        <pt x="18" y="197" on="0"/>
        <pt x="18" y="260" on="1"/>
        <pt x="18" y="334" on="0"/>
        <pt x="68" y="451" on="0"/>
        <pt x="153" y="532" on="0"/>
        <pt x="268" y="575" on="0"/>
        <pt x="333" y="575" on="1"/>
        <pt x="392" y="575" on="0"/>
        <pt x="494" y="537" on="0"/>
        <pt x="567" y="466" on="0"/>
        <pt x="608" y="364" on="0"/>
        <pt x="608" y="301" on="1"/>
        <pt x="608" y="227" on="0"/>
        <pt x="558" y="109" on="0"/>
        <pt x="473" y="29" on="0"/>
        <pt x="358" y="-14" on="0"/>
      </contour>
      <contour>
        <pt x="310" y="393" on="1"/>
        <pt x="290" y="393" on="0"/>
        <pt x="269" y="338" on="0"/>
        <pt x="269" y="286" on="1"/>
        <pt x="269" y="231" on="0"/>
        <pt x="294" y="170" on="0"/>
        <pt x="316" y="170" on="1"/>
        <pt x="335" y="170" on="0"/>
        <pt x="359" y="223" on="0"/>
        <pt x="359" y="276" on="1"/>
        <pt x="359" y="330" on="0"/>
        <pt x="331" y="393" on="0"/>
      </contour>
    </TTGlyph>
    <TTGlyph name="P" xMin="44" yMin="0" xMax="589" yMax="629">
      <contour>
        <pt x="285" y="0" on="1"/>
        <pt x="44" y="0" on="1"/>
        <pt x="44" y="618" on="1"/>
        <pt x="98" y="623" on="0"/>
        <pt x="194" y="629" on="0"/>
        <pt x="237" y="629" on="1"/>
        <pt x="428" y="629" on="0"/>
        <pt x="589" y="517" on="0"/>
        <pt x="589" y="406" on="1"/>
        <pt x="589" y="348" on="0"/>
        <pt x="544" y="257" on="0"/>
        <pt x="465" y="189" on="0"/>
        <pt x="352" y="141" on="0"/>
        <pt x="285" y="127" on="1"/>
      </contour>
      <contour>
        <pt x="301" y="296" on="1"/>
        <pt x="326" y="296" on="0"/>
        <pt x="359" y="328" on="0"/>
        <pt x="359" y="364" on="1"/>
        <pt x="359" y="400" on="0"/>
        <pt x="319" y="436" on="0"/>
        <pt x="285" y="436" on="1"/>
        <pt x="285" y="297" on="1"/>
        <pt x="289" y="296" on="0"/>
        <pt x="297" y="296" on="0"/>
      </contour>
    </TTGlyph>
    <TTGlyph name="P.sc" xMin="41" yMin="0" xMax="565" yMax="570">
      <contour>
        <pt x="276" y="0" on="1"/>
        <pt x="41" y="0" on="1"/>
        <pt x="41" y="561" on="1"/>
        <pt x="92" y="565" on="0"/>
        <pt x="183" y="570" on="0"/>
        <pt x="223" y="570" on="1"/>
        <pt x="410" y="570" on="0"/>
        <pt x="565" y="470" on="0"/>
        <pt x="565" y="366" on="1"/>
        <pt x="565" y="314" on="0"/>
        <pt x="523" y="231" on="0"/>
        <pt x="447" y="170" on="0"/>
        <pt x="340" y="126" on="0"/>
        <pt x="276" y="113" on="1"/>
      </contour>
      <contour>
        <pt x="290" y="270" on="1"/>
        <pt x="312" y="270" on="0"/>
        <pt x="341" y="298" on="0"/>
        <pt x="341" y="329" on="1"/>
        <pt x="341" y="361" on="0"/>
        <pt x="306" y="393" on="0"/>
        <pt x="278" y="393" on="1"/>
        <pt x="278" y="393" on="0"/>
        <pt x="277" y="393" on="0"/>
        <pt x="276" y="393" on="1"/>
        <pt x="276" y="271" on="1"/>
        <pt x="280" y="270" on="0"/>
        <pt x="286" y="270" on="0"/>
      </contour>
    </TTGlyph>
    <TTGlyph name="Q" xMin="19" yMin="-158" xMax="636" yMax="634">
      <contour>
        <pt x="590" y="-158" on="1"/>
        <pt x="231" y="-128" on="1"/>
        <pt x="246" y="-9" on="1"/>
        <pt x="145" y="10" on="0"/>
        <pt x="19" y="166" on="0"/>
        <pt x="19" y="288" on="1"/>
        <pt x="19" y="369" on="0"/>
        <pt x="71" y="498" on="0"/>
        <pt x="160" y="587" on="0"/>
        <pt x="281" y="634" on="0"/>
        <pt x="349" y="634" on="1"/>
        <pt x="411" y="634" on="0"/>
        <pt x="517" y="592" on="0"/>
        <pt x="593" y="514" on="0"/>
        <pt x="636" y="402" on="0"/>
        <pt x="636" y="332" on="1"/>
        <pt x="636" y="241" on="0"/>
        <pt x="570" y="101" on="0"/>
        <pt x="516" y="57" on="1"/>
        <pt x="517" y="52" on="1"/>
        <pt x="602" y="51" on="1"/>
      </contour>
      <contour>
        <pt x="324" y="436" on="1"/>
        <pt x="300" y="436" on="0"/>
        <pt x="276" y="375" on="0"/>
        <pt x="276" y="316" on="1"/>
        <pt x="276" y="254" on="0"/>
        <pt x="306" y="185" on="0"/>
        <pt x="331" y="185" on="1"/>
        <pt x="354" y="185" on="0"/>
        <pt x="380" y="245" on="0"/>
        <pt x="380" y="304" on="1"/>
        <pt x="380" y="366" on="0"/>
        <pt x="349" y="436" on="0"/>
      </contour>
    </TTGlyph>
    <TTGlyph name="Q.sc" xMin="18" yMin="-140" xMax="608" yMax="575">
      <contour>
        <pt x="566" y="-140" on="1"/>
        <pt x="220" y="-116" on="1"/>
        <pt x="234" y="-4" on="1"/>
        <pt x="138" y="13" on="0"/>
        <pt x="18" y="154" on="0"/>
        <pt x="18" y="263" on="1"/>
        <pt x="18" y="336" on="0"/>
        <pt x="68" y="453" on="0"/>
        <pt x="153" y="532" on="0"/>
        <pt x="268" y="575" on="0"/>
        <pt x="333" y="575" on="1"/>
        <pt x="392" y="575" on="0"/>
        <pt x="494" y="537" on="0"/>
        <pt x="567" y="467" on="0"/>
        <pt x="608" y="366" on="0"/>
        <pt x="608" y="304" on="1"/>
        <pt x="608" y="223" on="0"/>
        <pt x="548" y="98" on="0"/>
        <pt x="497" y="58" on="1"/>
        <pt x="498" y="53" on="1"/>
        <pt x="576" y="53" on="1"/>
      </contour>
      <contour>
        <pt x="310" y="393" on="1"/>
        <pt x="290" y="393" on="0"/>
        <pt x="269" y="340" on="0"/>
        <pt x="269" y="288" on="1"/>
        <pt x="269" y="234" on="0"/>
        <pt x="294" y="174" on="0"/>
        <pt x="316" y="174" on="1"/>
        <pt x="335" y="174" on="0"/>
        <pt x="359" y="227" on="0"/>
        <pt x="359" y="278" on="1"/>
        <pt x="359" y="332" on="0"/>
        <pt x="331" y="393" on="0"/>
      </contour>
    </TTGlyph>
    <TTGlyph name="R" xMin="44" yMin="-4" xMax="633" yMax="627">
      <contour>
        <pt x="374" y="-4" on="1"/>
        <pt x="312" y="166" on="1"/>
        <pt x="280" y="165" on="1"/>
        <pt x="280" y="0" on="1"/>
        <pt x="44" y="0" on="1"/>
        <pt x="44" y="618" on="1"/>
        <pt x="97" y="622" on="0"/>
        <pt x="192" y="627" on="0"/>
        <pt x="233" y="627" on="1"/>
        <pt x="337" y="627" on="0"/>
        <pt x="474" y="600" on="0"/>
        <pt x="554" y="552" on="0"/>
        <pt x="587" y="484" on="0"/>
        <pt x="587" y="443" on="1"/>
        <pt x="587" y="392" on="0"/>
        <pt x="535" y="312" on="0"/>
        <pt x="492" y="281" on="1"/>
        <pt x="633" y="4" on="1"/>
      </contour>
      <contour>
        <pt x="280" y="442" on="1"/>
        <pt x="280" y="317" on="1"/>
        <pt x="320" y="317" on="1"/>
        <pt x="335" y="328" on="0"/>
        <pt x="354" y="361" on="0"/>
        <pt x="354" y="386" on="1"/>
        <pt x="354" y="414" on="0"/>
        <pt x="320" y="443" on="0"/>
        <pt x="291" y="443" on="1"/>
        <pt x="288" y="443" on="0"/>
        <pt x="283" y="442" on="0"/>
      </contour>
    </TTGlyph>
    <TTGlyph name="R.sc" xMin="41" yMin="-3" xMax="606" yMax="569">
      <contour>
        <pt x="354" y="-3" on="1"/>
        <pt x="299" y="148" on="1"/>
        <pt x="272" y="148" on="1"/>
        <pt x="272" y="0" on="1"/>
        <pt x="41" y="0" on="1"/>
        <pt x="41" y="561" on="1"/>
        <pt x="92" y="565" on="0"/>
        <pt x="184" y="569" on="0"/>
        <pt x="224" y="569" on="1"/>
        <pt x="324" y="569" on="0"/>
        <pt x="455" y="545" on="0"/>
        <pt x="532" y="500" on="0"/>
        <pt x="563" y="438" on="0"/>
        <pt x="563" y="401" on="1"/>
        <pt x="563" y="355" on="0"/>
        <pt x="513" y="283" on="0"/>
        <pt x="473" y="255" on="1"/>
        <pt x="606" y="3" on="1"/>
      </contour>
      <contour>
        <pt x="272" y="399" on="1"/>
        <pt x="272" y="288" on="1"/>
        <pt x="305" y="288" on="1"/>
        <pt x="319" y="298" on="0"/>
        <pt x="336" y="327" on="0"/>
        <pt x="336" y="349" on="1"/>
        <pt x="336" y="374" on="0"/>
        <pt x="305" y="399" on="0"/>
        <pt x="280" y="399" on="1"/>
      </contour>
    </TTGlyph>
    <TTGlyph name="R_p" xMin="29" yMin="-178" xMax="934" yMax="629">
      <contour>
        <pt x="292" y="-8" on="1"/>
        <pt x="247" y="175" on="1"/>
        <pt x="218" y="174" on="1"/>
        <pt x="218" y="0" on="1"/>
        <pt x="29" y="0" on="1"/>
        <pt x="29" y="618" on="1"/>
        <pt x="76" y="624" on="0"/>
        <pt x="158" y="629" on="0"/>
        <pt x="193" y="629" on="1"/>
        <pt x="270" y="629" on="0"/>
        <pt x="375" y="603" on="0"/>
        <pt x="437" y="557" on="0"/>
        <pt x="463" y="490" on="0"/>
        <pt x="463" y="450" on="1"/>
        <pt x="463" y="398" on="0"/>
        <pt x="425" y="319" on="0"/>
        <pt x="394" y="288" on="1"/>
        <pt x="487" y="8" on="1"/>
      </contour>
      <contour>
        <pt x="218" y="462" on="1"/>
        <pt x="218" y="314" on="1"/>
        <pt x="248" y="315" on="1"/>
        <pt x="260" y="329" on="0"/>
        <pt x="275" y="372" on="0"/>
        <pt x="275" y="399" on="1"/>
        <pt x="275" y="431" on="0"/>
        <pt x="250" y="463" on="0"/>
        <pt x="228" y="463" on="1"/>
        <pt x="226" y="463" on="0"/>
        <pt x="220" y="462" on="0"/>
      </contour>
      <contour>
        <pt x="704" y="158" on="1"/>
        <pt x="723" y="158" on="0"/>
        <pt x="748" y="200" on="0"/>
        <pt x="748" y="260" on="1"/>
        <pt x="748" y="311" on="0"/>
        <pt x="723" y="357" on="0"/>
        <pt x="701" y="357" on="1"/>
        <pt x="697" y="357" on="0"/>
        <pt x="689" y="356" on="0"/>
        <pt x="685" y="355" on="1"/>
        <pt x="686" y="314" on="0"/>
        <pt x="687" y="211" on="0"/>
        <pt x="687" y="160" on="1"/>
        <pt x="691" y="159" on="0"/>
        <pt x="700" y="158" on="0"/>
      </contour>
      <contour>
        <pt x="688" y="-162" on="1"/>
        <pt x="500" y="-178" on="1"/>
        <pt x="500" y="-23" on="1"/>
        <pt x="500" y="175" on="0"/>
        <pt x="496" y="454" on="0"/>
        <pt x="494" y="527" on="1"/>
        <pt x="671" y="535" on="1"/>
        <pt x="676" y="479" on="1"/>
        <pt x="696" y="505" on="0"/>
        <pt x="753" y="542" on="0"/>
        <pt x="792" y="542" on="1"/>
        <pt x="862" y="542" on="0"/>
        <pt x="934" y="407" on="0"/>
        <pt x="934" y="293" on="1"/>
        <pt x="934" y="147" on="0"/>
        <pt x="807" y="-10" on="0"/>
        <pt x="695" y="-10" on="1"/>
        <pt x="694" y="-10" on="0"/>
        <pt x="689" y="-10" on="0"/>
        <pt x="688" y="-10" on="1"/>
        <pt x="688" y="-13" on="0"/>
        <pt x="688" y="-19" on="0"/>
        <pt x="688" y="-22" on="1"/>
      </contour>
    </TTGlyph>
    <TTGlyph name="Racute" xMin="44" yMin="-4" xMax="633" yMax="922">
      <contour>
        <pt x="131" y="745" on="1"/>
        <pt x="200" y="783" on="0"/>
        <pt x="328" y="871" on="0"/>
        <pt x="387" y="922" on="1"/>
        <pt x="509" y="756" on="1"/>
        <pt x="428" y="708" on="0"/>
        <pt x="252" y="662" on="0"/>
        <pt x="160" y="654" on="1"/>
      </contour>
      <contour>
        <pt x="374" y="-4" on="1"/>
        <pt x="312" y="166" on="1"/>
        <pt x="280" y="165" on="1"/>
        <pt x="280" y="0" on="1"/>
        <pt x="44" y="0" on="1"/>
        <pt x="44" y="618" on="1"/>
        <pt x="97" y="622" on="0"/>
        <pt x="192" y="627" on="0"/>
        <pt x="233" y="627" on="1"/>
        <pt x="337" y="627" on="0"/>
        <pt x="474" y="600" on="0"/>
        <pt x="554" y="552" on="0"/>
        <pt x="587" y="484" on="0"/>
        <pt x="587" y="443" on="1"/>
        <pt x="587" y="392" on="0"/>
        <pt x="535" y="312" on="0"/>
        <pt x="492" y="281" on="1"/>
        <pt x="633" y="4" on="1"/>
      </contour>
      <contour>
        <pt x="280" y="442" on="1"/>
        <pt x="280" y="317" on="1"/>
        <pt x="320" y="317" on="1"/>
        <pt x="335" y="328" on="0"/>
        <pt x="354" y="361" on="0"/>
        <pt x="354" y="386" on="1"/>
        <pt x="354" y="414" on="0"/>
        <pt x="320" y="443" on="0"/>
        <pt x="291" y="443" on="1"/>
        <pt x="288" y="443" on="0"/>
        <pt x="283" y="442" on="0"/>
      </contour>
    </TTGlyph>
    <TTGlyph name="Racute.sc" xMin="41" yMin="-3" xMax="606" yMax="864">
      <contour>
        <pt x="128" y="687" on="1"/>
        <pt x="197" y="725" on="0"/>
        <pt x="325" y="813" on="0"/>
        <pt x="384" y="864" on="1"/>
        <pt x="506" y="698" on="1"/>
        <pt x="425" y="650" on="0"/>
        <pt x="249" y="604" on="0"/>
        <pt x="157" y="596" on="1"/>
      </contour>
      <contour>
        <pt x="354" y="-3" on="1"/>
        <pt x="299" y="148" on="1"/>
        <pt x="272" y="148" on="1"/>
        <pt x="272" y="0" on="1"/>
        <pt x="41" y="0" on="1"/>
        <pt x="41" y="561" on="1"/>
        <pt x="92" y="565" on="0"/>
        <pt x="184" y="569" on="0"/>
        <pt x="224" y="569" on="1"/>
        <pt x="324" y="569" on="0"/>
        <pt x="455" y="545" on="0"/>
        <pt x="532" y="500" on="0"/>
        <pt x="563" y="438" on="0"/>
        <pt x="563" y="401" on="1"/>
        <pt x="563" y="355" on="0"/>
        <pt x="513" y="283" on="0"/>
        <pt x="473" y="255" on="1"/>
        <pt x="606" y="3" on="1"/>
      </contour>
      <contour>
        <pt x="272" y="399" on="1"/>
        <pt x="272" y="288" on="1"/>
        <pt x="305" y="288" on="1"/>
        <pt x="319" y="298" on="0"/>
        <pt x="336" y="327" on="0"/>
        <pt x="336" y="349" on="1"/>
        <pt x="336" y="374" on="0"/>
        <pt x="305" y="399" on="0"/>
        <pt x="280" y="399" on="1"/>
      </contour>
    </TTGlyph>
</ttFont>
